<?xml version="1.0" standalone="no"?>
<!DOCTYPE svg PUBLIC "-//W3C//DTD SVG 20010904//EN"
 "http://www.w3.org/TR/2001/REC-SVG-20010904/DTD/svg10.dtd">
<svg version="1.0" xmlns="http://www.w3.org/2000/svg"
 width="508.000000pt" height="424.000000pt" viewBox="0 0 508.000000 424.000000"
 preserveAspectRatio="xMidYMid meet">
<metadata>
Created by potrace 1.16, written by Peter Selinger 2001-2019
</metadata>
<g transform="translate(0.000000,424.000000) scale(0.100000,-0.100000)"
fill="#000000" stroke="none">
<path d="M817 4163 c-4 -3 -7 -24 -7 -45 0 -35 2 -38 28 -38 33 0 52 16 52 45
0 12 -5 26 -12 33 -13 13 -50 16 -61 5z m47 -19 c12 -12 13 -20 6 -35 -18 -32
-40 -23 -40 16 0 38 10 44 34 19z"/>
<path d="M1257 4157 c-9 -25 5 -77 22 -76 10 0 11 2 4 6 -17 6 -17 40 -1 45 9
3 8 9 -4 21 -12 12 -17 13 -21 4z"/>
<path d="M1346 4148 c-9 -35 -7 -52 7 -71 10 -15 12 -9 12 38 0 57 -8 71 -19
33z"/>
<path d="M1397 4163 c-15 -14 -6 -44 16 -52 l22 -9 -25 -10 c-22 -9 -23 -11
-4 -11 26 -1 44 17 44 44 0 33 -34 58 -53 38z m33 -29 c0 -16 -16 -19 -25 -4
-8 13 4 32 16 25 5 -4 9 -13 9 -21z"/>
<path d="M1518 4163 c26 -5 29 -30 5 -36 -17 -4 -17 -5 0 -6 25 -2 21 -29 -5
-34 -16 -4 -13 -5 7 -4 28 2 30 5 30 42 0 37 -2 40 -30 42 -20 1 -23 0 -7 -4z"/>
<path d="M1758 4159 c-2 -6 -2 -26 0 -45 3 -27 8 -34 26 -33 16 1 17 2 4 6
-20 5 -24 39 -6 45 9 3 8 9 -4 21 -10 11 -18 13 -20 6z"/>
<path d="M1814 4114 c0 -30 3 -48 8 -41 10 15 10 84 1 90 -5 3 -8 -19 -9 -49z"/>
<path d="M3373 4125 c0 -27 2 -40 4 -27 6 29 43 31 43 2 0 -11 5 -20 10 -20 6
0 10 20 10 45 0 25 -4 45 -10 45 -5 0 -10 -9 -10 -20 0 -29 -37 -27 -43 3 -2
12 -4 0 -4 -28z"/>
<path d="M3572 4125 c0 -38 2 -43 7 -21 8 38 25 40 29 4 4 -34 22 -37 22 -4 0
26 -23 51 -39 42 -5 -4 -12 2 -14 11 -3 10 -5 -4 -5 -32z"/>
<path d="M3770 4125 c0 -25 5 -45 10 -45 6 0 10 11 10 24 0 38 18 40 29 4 l9
-33 1 33 c1 26 -4 35 -19 39 -11 3 -20 9 -20 14 0 5 -4 9 -10 9 -5 0 -10 -20
-10 -45z"/>
<path d="M3990 4125 c0 -25 5 -45 10 -45 6 0 10 20 10 45 0 25 -4 45 -10 45
-5 0 -10 -20 -10 -45z"/>
<path d="M4077 4163 c-9 -9 -8 -75 1 -90 4 -7 8 12 8 42 0 30 -1 55 -1 55 -1
0 -5 -3 -8 -7z"/>
<path d="M4120 4145 c0 -14 3 -24 8 -24 39 6 40 -21 1 -33 -22 -6 -21 -7 6 -5
23 2 31 7 33 25 3 17 -2 25 -17 29 -26 7 -27 20 -3 26 13 4 11 5 -5 6 -18 1
-23 -4 -23 -24z"/>
<path d="M4190 4160 c0 -5 6 -7 14 -4 24 9 29 -17 7 -40 -29 -30 -27 -36 12
-35 23 1 26 3 9 6 l-22 4 19 25 c11 14 17 32 14 40 -6 16 -53 20 -53 4z"/>
<path d="M4318 4163 c24 -5 27 -15 11 -44 -6 -11 -8 -25 -6 -32 4 -11 37 55
37 74 0 5 -15 8 -32 8 -24 -1 -27 -3 -10 -6z"/>
<path d="M4614 4114 c0 -30 3 -48 8 -41 10 15 10 84 1 90 -5 3 -8 -19 -9 -49z"/>
<path d="M103 4149 c-6 -6 -9 -17 -6 -24 2 -7 -4 -15 -14 -18 -10 -3 5 -5 32
-5 34 0 42 2 26 7 -34 9 -39 31 -7 31 14 0 26 5 26 10 0 14 -43 13 -57 -1z"/>
<path d="M2783 4149 c-6 -6 -9 -17 -6 -24 2 -7 -4 -15 -14 -18 -10 -3 5 -5 32
-5 34 0 42 2 26 7 -34 9 -39 31 -7 31 14 0 26 5 26 10 0 14 -43 13 -57 -1z"/>
<path d="M4562 4123 c2 -29 8 -38 23 -40 11 -2 14 0 8 3 -16 7 -17 40 -2 50 8
4 7 9 -2 15 -25 16 -30 10 -27 -28z"/>
<path d="M911 4110 c1 -27 3 -29 6 -10 2 14 11 30 20 37 13 10 13 12 -6 10
-17 -1 -21 -7 -20 -37z"/>
<path d="M960 4135 c-18 -21 -3 -55 25 -55 27 0 39 24 25 51 -13 23 -33 25
-50 4z m40 -26 c0 -10 -7 -19 -15 -19 -15 0 -21 31 -9 43 11 10 24 -3 24 -24z"/>
<path d="M1031 4096 c1 -28 3 -43 6 -34 2 9 14 18 26 20 17 2 22 10 22 33 0
26 -4 30 -27 31 -27 1 -28 -1 -27 -50z m45 23 c10 -17 -13 -36 -27 -22 -12 12
-4 33 11 33 5 0 12 -5 16 -11z"/>
<path d="M1110 4135 c-18 -21 -3 -55 25 -55 27 0 39 24 25 51 -13 23 -33 25
-50 4z m40 -26 c0 -10 -7 -19 -15 -19 -15 0 -21 31 -9 43 11 10 24 -3 24 -24z"/>
<path d="M1181 4118 c-1 -36 1 -38 29 -38 28 0 30 3 30 35 0 19 -4 35 -10 35
-5 0 -10 -14 -10 -31 0 -39 -22 -34 -31 7 -6 27 -7 27 -8 -8z"/>
<path d="M1621 4096 c1 -28 3 -43 6 -33 2 9 13 17 24 17 43 0 33 64 -10 66
-19 1 -21 -4 -20 -50z m39 13 c0 -20 -15 -26 -25 -9 -9 15 3 43 15 35 5 -3 10
-15 10 -26z"/>
<path d="M1700 4135 c-20 -24 -8 -50 25 -52 21 -1 23 0 7 4 -17 3 -22 10 -20
26 2 12 9 21 16 20 6 -2 12 2 12 7 0 15 -26 12 -40 -5z"/>
<path d="M3463 4115 c0 -22 2 -30 4 -17 2 12 2 30 0 40 -3 9 -5 -1 -4 -23z"/>
<path d="M3497 4143 c-4 -3 -7 -17 -7 -31 0 -16 7 -26 23 -30 22 -6 22 -6 -3
-13 -22 -5 -23 -7 -7 -14 27 -11 47 13 47 56 0 34 -3 39 -23 39 -13 0 -27 -3
-30 -7z m33 -34 c0 -20 -15 -26 -25 -9 -9 15 3 43 15 35 5 -3 10 -15 10 -26z"/>
<path d="M3644 4139 c-4 -7 3 -20 17 -29 l23 -18 -25 -5 c-23 -4 -23 -4 4 -6
30 -1 39 25 12 35 -8 4 -15 11 -15 16 0 6 7 8 15 4 8 -3 15 -1 15 4 0 14 -37
12 -46 -1z"/>
<path d="M3710 4135 c-19 -23 -3 -55 28 -54 25 2 25 2 4 6 -17 3 -22 10 -20
26 2 14 10 21 20 21 10 -1 15 2 12 7 -8 14 -30 11 -44 -6z"/>
<path d="M3852 4134 c-15 -27 -3 -54 24 -54 28 0 42 25 27 49 -14 23 -40 25
-51 5z m38 -25 c0 -20 -15 -26 -25 -9 -9 15 3 43 15 35 5 -3 10 -15 10 -26z"/>
<path d="M3924 4136 c-11 -29 0 -51 26 -51 21 0 25 5 25 30 0 24 -5 31 -23 33
-13 2 -24 -3 -28 -12z m38 -38 c-16 -16 -37 4 -28 28 6 16 8 16 23 1 13 -13
15 -19 5 -29z"/>
<path d="M4421 4096 c1 -28 3 -43 6 -34 2 9 14 18 26 20 17 2 22 10 22 33 0
26 -4 30 -27 31 -27 1 -28 -1 -27 -50z m45 23 c10 -17 -13 -36 -27 -22 -12 12
-4 33 11 33 5 0 12 -5 16 -11z"/>
<path d="M4500 4135 c-20 -24 -8 -50 25 -52 21 -1 23 0 7 4 -17 3 -22 10 -20
26 2 12 9 21 16 20 6 -2 12 2 12 7 0 15 -26 12 -40 -5z"/>
<path d="M4270 4090 c0 -5 5 -10 11 -10 5 0 7 5 4 10 -3 6 -8 10 -11 10 -2 0
-4 -4 -4 -10z"/>
<path d="M245 4080 c-5 -9 -1 -10 13 -6 32 10 35 -9 6 -43 l-26 -31 34 1 c18
1 25 3 15 6 -17 4 -17 6 -2 23 9 10 15 27 13 37 -4 21 -43 30 -53 13z"/>
<path d="M330 4065 c0 -14 3 -24 8 -24 39 6 40 -21 1 -33 -22 -6 -21 -7 6 -5
23 2 31 7 33 25 3 17 -2 25 -17 29 -26 7 -27 20 -3 26 13 4 11 5 -5 6 -18 1
-23 -4 -23 -24z"/>
<path d="M2925 4080 c-5 -9 -1 -10 13 -6 32 10 35 -9 6 -43 l-26 -31 34 1 c18
1 25 3 15 6 -17 4 -17 6 -2 23 9 10 15 27 13 37 -4 21 -43 30 -53 13z"/>
<path d="M3003 4075 c-6 -17 2 -30 20 -30 23 0 19 -33 -5 -38 -16 -4 -14 -5 7
-4 23 2 31 7 33 25 3 17 -2 25 -17 29 -26 7 -27 20 -3 26 12 4 11 5 -6 6 -12
0 -25 -6 -29 -14z"/>
<path d="M87 4066 c-7 -18 7 -23 45 -18 18 3 28 10 27 21 0 10 -2 11 -6 4 -6
-15 -43 -17 -43 -3 0 15 -17 12 -23 -4z"/>
<path d="M2767 4066 c-7 -18 7 -23 45 -18 18 3 28 10 27 21 0 10 -2 11 -6 4
-6 -15 -43 -17 -43 -3 0 15 -17 12 -23 -4z"/>
<path d="M427 4033 c-4 -3 -7 -318 -7 -700 l0 -693 900 0 900 0 0 700 0 700
-893 0 c-492 0 -897 -3 -900 -7z m354 -30 c1 -17 2 -17 6 0 4 15 21 17 179 17
159 0 174 -2 175 -17 1 -17 2 -17 6 0 4 15 21 17 179 17 159 0 174 -2 175 -17
1 -17 2 -17 6 0 4 15 21 17 174 17 154 0 169 -2 170 -17 1 -17 2 -17 6 0 4 15
21 17 179 17 l174 0 0 -130 c0 -117 -2 -130 -17 -131 -17 -1 -17 -2 0 -6 15
-4 17 -19 17 -139 0 -120 -2 -134 -17 -135 -17 -1 -17 -2 0 -6 15 -4 17 -19
17 -134 0 -116 -2 -129 -17 -130 -17 -1 -17 -2 0 -6 15 -4 17 -19 17 -139 0
-120 -2 -134 -17 -135 -17 -1 -17 -2 0 -6 15 -4 17 -19 17 -139 l0 -134 -175
0 c-160 0 -175 2 -176 18 -1 16 -2 16 -6 0 -4 -16 -20 -18 -160 -18 -138 0
-154 2 -143 15 11 14 10 14 -14 6 -21 -9 -26 -8 -26 4 0 8 -5 15 -11 15 -6 0
-8 -8 -4 -19 6 -19 2 -20 -62 -16 -37 3 -116 5 -175 5 -96 0 -108 2 -109 18
-1 16 -2 16 -6 0 -4 -16 -21 -18 -179 -18 -132 0 -174 3 -174 13 0 9 -2 9 -8
0 -6 -9 -59 -15 -175 -20 l-167 -6 0 136 c0 123 2 137 18 138 16 1 16 2 0 6
-16 4 -18 19 -18 139 0 120 2 134 18 135 16 1 16 2 0 6 -16 4 -18 19 -18 134
0 116 2 129 18 130 16 1 16 2 0 6 -16 4 -18 19 -18 139 0 120 2 134 18 135 16
1 16 2 0 6 -16 4 -18 19 -18 134 l0 129 170 0 c155 0 170 -2 171 -17z"/>
<path d="M1755 2761 c-11 -5 -24 -6 -30 -3 -6 3 -6 1 0 -6 11 -12 55 -5 55 9
0 5 -1 9 -2 8 -2 0 -12 -4 -23 -8z"/>
<path d="M1634 2715 c-26 -18 -15 -26 15 -11 13 7 19 16 14 19 -6 4 -19 0 -29
-8z"/>
<path d="M3100 3340 l0 -700 900 0 900 0 0 700 0 700 -900 0 -900 0 0 -700z
m361 663 c1 -17 2 -17 6 0 4 15 21 17 179 17 159 0 174 -2 175 -17 1 -17 2
-17 6 0 4 15 21 17 179 17 159 0 174 -2 175 -17 1 -17 2 -17 6 0 4 15 21 17
174 17 154 0 169 -2 170 -17 1 -17 2 -17 6 0 4 15 21 17 179 17 l174 0 0 -130
c0 -117 -2 -130 -17 -131 -17 -1 -17 -2 0 -6 15 -4 17 -19 17 -139 0 -120 -2
-134 -17 -135 -17 -1 -17 -2 0 -6 15 -4 17 -19 17 -134 0 -116 -2 -129 -17
-130 -17 -1 -17 -2 0 -6 15 -4 17 -19 17 -139 0 -120 -2 -134 -17 -135 -17 -1
-17 -2 0 -6 15 -4 17 -19 17 -139 l0 -134 -175 0 c-160 0 -175 2 -176 18 -1
16 -2 16 -6 0 -4 -16 -21 -18 -174 -18 -154 0 -169 2 -170 18 -1 16 -2 16 -6
0 -4 -16 -21 -18 -179 -18 -173 0 -174 0 -175 23 l-2 22 -4 -22 c-4 -22 -9
-23 -82 -23 -58 0 -82 4 -91 15 -14 17 -46 20 -55 5 -3 -5 -33 -10 -66 -10
-49 0 -59 3 -60 18 -1 16 -2 16 -6 0 -4 -16 -18 -18 -121 -18 -64 0 -141 -3
-169 -6 l-53 -7 0 137 c0 122 2 136 18 137 16 1 16 2 0 6 -16 4 -18 19 -18
139 0 120 2 134 18 135 16 1 16 2 0 6 -16 4 -18 19 -18 134 0 116 2 129 18
130 16 1 16 2 0 6 -16 4 -18 19 -18 139 0 120 2 134 18 135 16 1 16 2 0 6 -16
4 -18 19 -18 134 l0 129 170 0 c155 0 170 -2 171 -17z"/>
<path d="M4490 3225 c-19 -20 -20 -25 -7 -25 9 0 21 9 27 21 17 31 7 33 -20 4z"/>
<path d="M4410 3135 c-20 -24 -6 -28 15 -5 10 11 13 20 8 20 -6 0 -16 -7 -23
-15z"/>
<path d="M4329 3038 c-12 -23 -12 -23 10 -4 23 21 26 26 11 26 -5 0 -15 -10
-21 -22z"/>
<path d="M4255 2950 c-10 -11 -16 -22 -14 -24 2 -2 12 7 22 20 22 29 17 32 -8
4z"/>
<path d="M4170 2859 c-22 -18 -22 -19 -3 -10 12 6 25 16 28 21 9 15 3 12 -25
-11z"/>
<path d="M4065 2814 l-30 -14 30 6 c31 6 41 11 34 18 -2 2 -17 -2 -34 -10z"/>
<path d="M3950 2765 c-16 -9 -19 -14 -9 -15 8 0 24 7 35 15 24 18 7 19 -26 0z"/>
<path d="M3840 2714 l-25 -15 25 7 c14 3 29 10 35 15 15 14 -7 10 -35 -7z"/>
<path d="M3720 2690 c-13 -9 -13 -10 0 -10 8 0 22 5 30 10 13 9 13 10 0 10 -8
0 -22 -5 -30 -10z"/>
<path d="M93 4023 c15 -2 37 -2 50 0 12 2 0 4 -28 4 -27 0 -38 -2 -22 -4z"/>
<path d="M2773 4023 c15 -2 37 -2 50 0 12 2 0 4 -28 4 -27 0 -38 -2 -22 -4z"/>
<path d="M106 3994 c-18 -18 -20 -30 -7 -39 5 -3 12 5 14 17 l4 23 2 -22 c1
-16 7 -23 20 -23 25 0 32 11 24 38 -6 26 -35 29 -57 6z m44 -19 c0 -8 -4 -15
-10 -15 -5 0 -10 7 -10 15 0 8 5 15 10 15 6 0 10 -7 10 -15z"/>
<path d="M2786 3994 c-18 -18 -20 -30 -7 -39 5 -3 12 5 14 17 l4 23 2 -22 c1
-16 7 -23 20 -23 25 0 32 11 24 38 -6 26 -35 29 -57 6z m44 -19 c0 -8 -4 -15
-10 -15 -5 0 -10 7 -10 15 0 8 5 15 10 15 6 0 10 -7 10 -15z"/>
<path d="M101 3916 c-22 -26 10 -63 43 -50 20 8 28 33 16 52 -8 14 -9 12 -10
-10 0 -16 -4 -28 -10 -28 -5 0 -10 11 -10 25 0 28 -12 32 -29 11z m16 -28 c-3
-8 -6 -5 -6 6 -1 11 2 17 5 13 3 -3 4 -12 1 -19z"/>
<path d="M2781 3916 c-22 -26 10 -63 43 -50 20 8 28 33 16 52 -8 14 -9 12 -10
-10 0 -16 -4 -28 -10 -28 -5 0 -10 11 -10 25 0 28 -12 32 -29 11z m16 -28 c-3
-8 -6 -5 -6 6 -1 11 2 17 5 13 3 -3 4 -12 1 -19z"/>
<path d="M110 3839 c21 -10 22 -13 8 -16 -21 -5 -24 -19 -5 -26 9 -4 8 -8 -3
-16 -13 -9 -13 -11 2 -11 23 0 48 11 48 21 0 5 -8 9 -17 9 -16 1 -16 2 1 15
24 18 19 23 -25 30 -32 5 -33 5 -9 -6z"/>
<path d="M2790 3839 c21 -10 22 -13 8 -16 -21 -5 -24 -19 -5 -26 9 -4 8 -8 -3
-16 -13 -9 -13 -11 2 -11 23 0 48 11 48 21 0 5 -8 9 -17 9 -16 1 -16 2 1 15
24 18 19 23 -25 30 -32 5 -33 5 -9 -6z"/>
<path d="M245 3800 c-5 -9 -1 -10 13 -6 32 10 35 -9 6 -43 l-26 -31 34 1 c18
1 25 3 15 6 -17 4 -17 6 -2 23 9 10 15 27 13 37 -4 21 -43 30 -53 13z"/>
<path d="M332 3798 c-24 -24 -11 -78 19 -78 26 0 41 33 29 64 -10 28 -29 33
-48 14z m36 -39 c-5 -35 -28 -36 -28 -1 0 16 3 32 7 36 11 11 25 -10 21 -35z"/>
<path d="M2925 3800 c-5 -9 -1 -10 13 -6 32 10 35 -9 6 -43 l-26 -31 34 1 c18
1 25 3 15 6 -17 4 -17 6 -2 23 9 10 15 27 13 37 -4 21 -43 30 -53 13z"/>
<path d="M3004 3797 c-3 -9 -4 -28 -2 -44 2 -22 8 -28 28 -28 23 0 25 4 25 40
0 34 -3 40 -23 43 -13 2 -24 -3 -28 -11z m42 -23 c4 -14 2 -30 -5 -37 -12 -12
-18 -9 -21 13 -7 50 14 70 26 24z"/>
<path d="M70 3718 c0 -23 25 -35 61 -30 35 5 39 21 4 24 -14 0 -31 1 -37 2 -7
1 -16 6 -20 11 -5 6 -8 3 -8 -7z"/>
<path d="M2750 3718 c0 -23 25 -35 61 -30 35 5 39 21 4 24 -14 0 -31 1 -37 2
-7 1 -16 6 -20 11 -5 6 -8 3 -8 -7z"/>
<path d="M102 3668 c-16 -16 -15 -23 4 -42 19 -20 29 -20 48 0 12 12 13 20 6
35 -12 21 -40 25 -58 7z m48 -23 c0 -8 -9 -15 -20 -15 -11 0 -20 7 -20 15 0 8
9 15 20 15 11 0 20 -7 20 -15z"/>
<path d="M2782 3668 c-16 -16 -15 -23 4 -42 19 -20 29 -20 48 0 12 12 13 20 6
35 -12 21 -40 25 -58 7z m48 -23 c0 -8 -9 -15 -20 -15 -11 0 -20 7 -20 15 0 8
9 15 20 15 11 0 20 -7 20 -15z"/>
<path d="M101 3556 c-22 -26 10 -63 43 -50 20 8 28 33 16 52 -8 14 -9 12 -10
-10 0 -16 -4 -28 -10 -28 -5 0 -10 11 -10 25 0 28 -12 32 -29 11z m16 -28 c-3
-8 -6 -5 -6 6 -1 11 2 17 5 13 3 -3 4 -12 1 -19z"/>
<path d="M2781 3556 c-22 -26 10 -63 43 -50 20 8 28 33 16 52 -8 14 -9 12 -10
-10 0 -16 -4 -28 -10 -28 -5 0 -10 11 -10 25 0 28 -12 32 -29 11z m16 -28 c-3
-8 -6 -5 -6 6 -1 11 2 17 5 13 3 -3 4 -12 1 -19z"/>
<path d="M250 3521 c0 -6 5 -11 10 -11 15 0 12 -57 -2 -63 -7 -3 3 -6 22 -6
19 0 30 3 23 7 -6 4 -13 23 -15 42 -2 24 -9 36 -20 38 -10 2 -18 -1 -18 -7z"/>
<path d="M330 3505 c0 -14 3 -24 8 -24 39 6 40 -21 1 -33 -22 -6 -21 -7 6 -5
23 2 31 7 33 25 3 17 -2 25 -17 29 -26 7 -27 20 -3 26 13 4 11 5 -5 6 -18 1
-23 -4 -23 -24z"/>
<path d="M2930 3521 c0 -6 5 -11 10 -11 15 0 12 -57 -2 -63 -7 -3 3 -6 22 -6
19 0 30 3 23 7 -6 4 -13 23 -15 42 -2 24 -9 36 -20 38 -10 2 -18 -1 -18 -7z"/>
<path d="M3003 3515 c-6 -17 2 -30 20 -30 23 0 19 -33 -5 -38 -16 -4 -14 -5 7
-4 23 2 31 7 33 25 3 17 -2 25 -17 29 -26 7 -27 20 -3 26 12 4 11 5 -6 6 -12
0 -25 -6 -29 -14z"/>
<path d="M93 3480 c1 -16 8 -20 37 -19 24 1 28 3 12 6 -13 3 -26 11 -29 19 -8
21 -22 17 -20 -6z"/>
<path d="M2773 3480 c1 -16 8 -20 37 -19 24 1 28 3 12 6 -13 3 -26 11 -29 19
-8 21 -22 17 -20 -6z"/>
<path d="M106 3424 c-18 -18 -20 -30 -7 -39 5 -3 12 5 14 17 l4 23 2 -22 c1
-16 7 -23 20 -23 25 0 32 11 24 38 -6 26 -35 29 -57 6z m44 -19 c0 -8 -4 -15
-10 -15 -5 0 -10 7 -10 15 0 8 5 15 10 15 6 0 10 -7 10 -15z"/>
<path d="M2786 3424 c-18 -18 -20 -30 -7 -39 5 -3 12 5 14 17 l4 23 2 -22 c1
-16 7 -23 20 -23 25 0 32 11 24 38 -6 26 -35 29 -57 6z m44 -19 c0 -8 -4 -15
-10 -15 -5 0 -10 7 -10 15 0 8 5 15 10 15 6 0 10 -7 10 -15z"/>
<path d="M103 3359 c-6 -6 -9 -17 -6 -24 2 -7 -4 -15 -14 -18 -10 -3 5 -5 32
-5 34 0 42 2 26 7 -34 9 -39 31 -7 31 14 0 26 5 26 10 0 14 -43 13 -57 -1z"/>
<path d="M2783 3359 c-6 -6 -9 -17 -6 -24 2 -7 -4 -15 -14 -18 -10 -3 5 -5 32
-5 34 0 42 2 26 7 -34 9 -39 31 -7 31 14 0 26 5 26 10 0 14 -43 13 -57 -1z"/>
<path d="M95 3287 c-4 -10 -2 -24 6 -33 11 -14 15 -13 31 8 l18 23 0 -25 c1
-21 2 -22 10 -8 12 20 3 48 -15 48 -8 0 -17 -10 -21 -22 l-8 -23 -6 25 c-6 22
-8 23 -15 7z"/>
<path d="M2775 3287 c-4 -10 -2 -24 6 -33 11 -14 15 -13 31 8 l18 23 0 -25 c1
-21 2 -22 10 -8 12 20 3 48 -15 48 -8 0 -17 -10 -21 -22 l-8 -23 -6 25 c-6 22
-8 23 -15 7z"/>
<path d="M250 3251 c0 -6 5 -11 10 -11 15 0 12 -57 -2 -63 -7 -3 3 -6 22 -6
19 0 30 3 23 7 -6 4 -13 23 -15 42 -2 24 -9 36 -20 38 -10 2 -18 -1 -18 -7z"/>
<path d="M332 3248 c-24 -24 -11 -78 19 -78 26 0 41 33 29 64 -10 28 -29 33
-48 14z m36 -39 c-5 -35 -28 -36 -28 -1 0 16 3 32 7 36 11 11 25 -10 21 -35z"/>
<path d="M2930 3251 c0 -6 5 -11 10 -11 15 0 12 -57 -2 -63 -7 -3 3 -6 22 -6
19 0 30 3 23 7 -6 4 -13 23 -15 42 -2 24 -9 36 -20 38 -10 2 -18 -1 -18 -7z"/>
<path d="M3004 3247 c-3 -9 -4 -28 -2 -44 2 -22 8 -28 28 -28 23 0 25 4 25 40
0 34 -3 40 -23 43 -13 2 -24 -3 -28 -11z m42 -23 c4 -14 2 -30 -5 -37 -12 -12
-18 -9 -21 13 -7 50 14 70 26 24z"/>
<path d="M101 3176 c-22 -26 10 -63 43 -50 20 8 28 33 16 52 -8 14 -9 12 -10
-10 0 -16 -4 -28 -10 -28 -5 0 -10 11 -10 25 0 28 -12 32 -29 11z m16 -28 c-3
-8 -6 -5 -6 6 -1 11 2 17 5 13 3 -3 4 -12 1 -19z"/>
<path d="M2781 3176 c-22 -26 10 -63 43 -50 20 8 28 33 16 52 -8 14 -9 12 -10
-10 0 -16 -4 -28 -10 -28 -5 0 -10 11 -10 25 0 28 -12 32 -29 11z m16 -28 c-3
-8 -6 -5 -6 6 -1 11 2 17 5 13 3 -3 4 -12 1 -19z"/>
<path d="M100 3111 c0 -4 10 -12 23 -18 l22 -10 -22 -7 c-13 -4 -23 -11 -23
-16 0 -4 14 -3 30 3 38 15 38 32 0 46 -16 5 -30 6 -30 2z"/>
<path d="M2780 3111 c0 -4 10 -12 23 -18 l22 -10 -22 -7 c-13 -4 -23 -11 -23
-16 0 -4 14 -3 30 3 17 6 30 17 30 23 0 7 -13 17 -30 23 -16 5 -30 6 -30 2z"/>
<path d="M93 3033 c15 -2 37 -2 50 0 12 2 0 4 -28 4 -27 0 -38 -2 -22 -4z"/>
<path d="M2773 3033 c15 -2 37 -2 50 0 12 2 0 4 -28 4 -27 0 -38 -2 -22 -4z"/>
<path d="M87 2996 c-7 -18 7 -23 45 -18 18 3 28 10 27 21 0 10 -2 11 -6 4 -6
-15 -43 -17 -43 -3 0 15 -17 12 -23 -4z"/>
<path d="M2767 2996 c-7 -18 7 -23 45 -18 18 3 28 10 27 21 0 10 -2 11 -6 4
-6 -15 -43 -17 -43 -3 0 15 -17 12 -23 -4z"/>
<path d="M330 2955 c0 -14 3 -24 8 -24 39 6 40 -21 1 -33 -22 -6 -21 -7 6 -5
23 2 31 7 33 25 3 17 -2 25 -17 29 -26 7 -27 20 -3 26 13 4 11 5 -5 6 -18 1
-23 -4 -23 -24z"/>
<path d="M3003 2965 c-6 -17 2 -30 20 -30 23 0 19 -33 -5 -38 -16 -4 -14 -5 7
-4 23 2 31 7 33 25 3 17 -2 25 -17 29 -26 7 -27 20 -3 26 12 4 11 5 -6 6 -12
0 -25 -6 -29 -14z"/>
<path d="M106 2954 c-18 -18 -20 -30 -7 -39 5 -3 12 5 14 17 l4 23 2 -22 c1
-16 7 -23 20 -23 25 0 32 11 24 38 -6 26 -35 29 -57 6z m44 -19 c0 -8 -4 -15
-10 -15 -5 0 -10 7 -10 15 0 8 5 15 10 15 6 0 10 -7 10 -15z"/>
<path d="M2786 2954 c-18 -18 -20 -30 -7 -39 5 -3 12 5 14 17 l4 23 2 -22 c1
-16 7 -23 20 -23 25 0 32 11 24 38 -6 26 -35 29 -57 6z m44 -19 c0 -8 -4 -15
-10 -15 -5 0 -10 7 -10 15 0 8 5 15 10 15 6 0 10 -7 10 -15z"/>
<path d="M93 2883 c15 -2 37 -2 50 0 12 2 0 4 -28 4 -27 0 -38 -2 -22 -4z"/>
<path d="M2773 2883 c15 -2 37 -2 50 0 12 2 0 4 -28 4 -27 0 -38 -2 -22 -4z"/>
<path d="M100 2850 c0 -5 11 -10 25 -10 38 0 32 -28 -7 -33 l-33 -4 37 -1 c38
-2 48 9 40 41 -5 18 -62 25 -62 7z"/>
<path d="M2780 2850 c0 -5 11 -10 25 -10 38 0 32 -28 -7 -33 l-33 -4 37 -1
c38 -2 48 9 40 41 -5 18 -62 25 -62 7z"/>
<path d="M104 2768 c-4 -6 -8 -29 -9 -50 -2 -37 -1 -38 34 -37 31 1 32 2 12 8
-34 9 -39 31 -7 31 14 0 26 5 26 10 0 6 -11 10 -25 10 -14 0 -25 5 -25 10 0 6
11 10 25 10 14 0 25 5 25 10 0 14 -47 12 -56 -2z"/>
<path d="M2784 2768 c-4 -6 -8 -29 -9 -50 -2 -37 -1 -38 34 -37 31 1 32 2 12
8 -34 9 -39 31 -7 31 14 0 26 5 26 10 0 6 -11 10 -25 10 -14 0 -25 5 -25 10 0
6 11 10 25 10 14 0 25 5 25 10 0 14 -47 12 -56 -2z"/>
<path d="M332 2688 c-24 -24 -11 -78 19 -78 26 0 41 33 29 64 -10 28 -29 33
-48 14z m36 -39 c-5 -35 -28 -36 -28 -1 0 16 3 32 7 36 11 11 25 -10 21 -35z"/>
<path d="M3004 2687 c-3 -9 -4 -28 -2 -44 2 -22 8 -28 28 -28 23 0 25 4 25 40
0 34 -3 40 -23 43 -13 2 -24 -3 -28 -11z m42 -23 c4 -14 2 -30 -5 -37 -12 -12
-18 -9 -21 13 -7 50 14 70 26 24z"/>
<path d="M100 2660 c0 -5 11 -10 25 -10 38 0 32 -28 -7 -33 l-33 -4 37 -1 c38
-2 48 9 40 41 -5 18 -62 25 -62 7z"/>
<path d="M2780 2660 c0 -5 11 -10 25 -10 38 0 32 -28 -7 -33 l-33 -4 37 -1
c38 -2 48 9 40 41 -5 18 -62 25 -62 7z"/>
<path d="M404 2597 c-3 -9 -4 -28 -2 -44 2 -22 8 -28 28 -28 23 0 25 4 25 40
0 34 -3 40 -23 43 -13 2 -24 -3 -28 -11z m42 -23 c4 -14 2 -30 -5 -37 -12 -12
-18 -9 -21 13 -7 50 14 70 26 24z"/>
<path d="M720 2600 c0 -5 6 -7 14 -4 24 9 29 -17 7 -40 -29 -30 -27 -36 12
-35 25 1 27 3 9 6 l-24 5 22 23 c13 14 20 31 17 39 -7 17 -57 22 -57 6z"/>
<path d="M799 2589 c-15 -28 3 -69 31 -69 24 0 36 40 20 69 -14 27 -36 27 -51
0z m41 -30 c0 -20 -4 -29 -12 -27 -15 5 -22 33 -14 54 9 24 26 6 26 -27z"/>
<path d="M1107 2604 c-4 -4 -4 -18 -1 -30 4 -14 2 -24 -5 -24 -6 0 -8 8 -5 18
5 14 3 14 -11 -3 -15 -19 -15 -20 2 -24 10 -2 21 -8 26 -15 12 -19 23 10 19
49 -4 34 -11 42 -25 29z"/>
<path d="M1162 2598 c-24 -24 -11 -78 19 -78 26 0 41 33 29 64 -10 28 -29 33
-48 14z m36 -39 c-5 -35 -28 -36 -28 -1 0 16 3 32 7 36 11 11 25 -10 21 -35z"/>
<path d="M1440 2589 c-18 -32 -4 -69 24 -69 14 0 26 6 29 13 6 18 -11 47 -29
47 -8 0 -12 5 -9 11 4 6 13 8 21 5 8 -3 14 -1 14 4 0 19 -39 10 -50 -11z m40
-45 c0 -8 -7 -14 -15 -14 -15 0 -21 21 -9 33 10 9 24 -2 24 -19z"/>
<path d="M1514 2597 c-3 -9 -4 -28 -2 -44 2 -22 8 -28 28 -28 23 0 25 4 25 40
0 34 -3 40 -23 43 -13 2 -24 -3 -28 -11z m42 -23 c4 -14 2 -30 -5 -37 -12 -12
-18 -9 -21 13 -7 50 14 70 26 24z"/>
<path d="M1796 2598 c-3 -7 -4 -26 -3 -43 2 -25 6 -30 27 -30 23 0 25 4 25 40
0 34 -3 40 -23 43 -12 2 -24 -3 -26 -10z m34 -13 c0 -8 -4 -15 -10 -15 -5 0
-10 7 -10 15 0 8 5 15 10 15 6 0 10 -7 10 -15z m2 -40 c0 -5 -5 -11 -11 -13
-6 -2 -11 4 -11 13 0 9 5 15 11 13 6 -2 11 -8 11 -13z"/>
<path d="M1874 2596 c-12 -31 0 -71 23 -74 25 -4 38 26 29 64 -7 27 -43 34
-52 10z m36 -32 c0 -24 -4 -34 -12 -32 -24 8 -22 68 2 68 5 0 10 -16 10 -36z"/>
<path d="M2127 2574 c4 -25 2 -39 -8 -45 -10 -6 -3 -8 21 -8 19 0 29 3 23 6
-8 2 -13 22 -13 44 0 27 -4 39 -14 39 -11 0 -13 -9 -9 -36z"/>
<path d="M2189 2589 c-15 -28 3 -69 31 -69 24 0 36 40 20 69 -14 27 -36 27
-51 0z m41 -30 c0 -20 -4 -29 -12 -27 -15 5 -22 33 -14 54 9 24 26 6 26 -27z"/>
<path d="M2272 2598 c-24 -24 -11 -78 19 -78 26 0 41 33 29 64 -10 28 -29 33
-48 14z m36 -39 c-5 -35 -28 -36 -28 -1 0 16 3 32 7 36 11 11 25 -10 21 -35z"/>
<path d="M3084 2597 c-3 -9 -4 -28 -2 -44 2 -22 8 -28 28 -28 23 0 25 4 25 40
0 34 -3 40 -23 43 -13 2 -24 -3 -28 -11z m42 -23 c4 -14 2 -30 -5 -37 -12 -12
-18 -9 -21 13 -7 50 14 70 26 24z"/>
<path d="M3400 2600 c0 -5 6 -7 14 -4 24 9 29 -17 7 -40 -29 -30 -27 -36 12
-35 23 1 26 3 9 6 l-22 4 19 25 c11 14 17 32 14 40 -6 16 -53 20 -53 4z"/>
<path d="M3479 2589 c-15 -28 3 -69 31 -69 24 0 36 40 20 69 -14 27 -36 27
-51 0z m41 -30 c0 -20 -4 -29 -12 -27 -15 5 -22 33 -14 54 9 24 26 6 26 -27z"/>
<path d="M3771 2581 c-26 -36 -26 -41 -2 -41 11 0 22 -6 24 -12 10 -23 24 10
19 42 -6 42 -17 45 -41 11z m15 -28 c-10 -10 -19 5 -10 18 6 11 8 11 12 0 2
-7 1 -15 -2 -18z"/>
<path d="M3834 2597 c-3 -9 -4 -28 -2 -44 2 -22 8 -28 28 -28 23 0 25 4 25 40
0 34 -3 40 -23 43 -13 2 -24 -3 -28 -11z m42 -23 c4 -14 2 -30 -5 -37 -12 -12
-18 -9 -21 13 -7 50 14 70 26 24z"/>
<path d="M4120 2589 c-18 -32 -4 -69 24 -69 14 0 26 6 29 13 6 18 -11 47 -29
47 -8 0 -12 5 -9 11 4 6 13 8 21 5 8 -3 14 -1 14 4 0 19 -39 10 -50 -11z m40
-45 c0 -8 -7 -14 -15 -14 -15 0 -21 21 -9 33 10 9 24 -2 24 -19z"/>
<path d="M4194 2596 c-12 -31 0 -71 23 -74 25 -4 38 26 29 64 -7 27 -43 34
-52 10z m36 -32 c0 -24 -4 -34 -12 -32 -24 8 -22 68 2 68 5 0 10 -16 10 -36z"/>
<path d="M4476 2598 c-3 -7 -4 -26 -3 -43 2 -25 6 -30 27 -30 23 0 25 4 25 40
0 34 -3 40 -23 43 -12 2 -24 -3 -26 -10z m34 -13 c0 -8 -4 -15 -10 -15 -5 0
-10 7 -10 15 0 8 5 15 10 15 6 0 10 -7 10 -15z m2 -40 c0 -5 -5 -11 -11 -13
-6 -2 -11 4 -11 13 0 9 5 15 11 13 6 -2 11 -8 11 -13z"/>
<path d="M4549 2589 c-15 -28 3 -69 31 -69 24 0 36 40 20 69 -14 27 -36 27
-51 0z m41 -30 c0 -20 -4 -29 -12 -27 -15 5 -22 33 -14 54 9 24 26 6 26 -27z"/>
<path d="M4795 2600 c-3 -5 -1 -10 4 -10 15 0 14 -57 -1 -63 -7 -3 3 -5 22 -5
19 0 29 2 23 5 -8 2 -13 22 -13 44 0 27 -4 39 -14 39 -8 0 -18 -4 -21 -10z"/>
<path d="M4869 2589 c-15 -28 3 -69 31 -69 24 0 36 40 20 69 -14 27 -36 27
-51 0z m41 -30 c0 -20 -4 -29 -12 -27 -15 5 -22 33 -14 54 9 24 26 6 26 -27z"/>
<path d="M4944 2597 c-3 -9 -4 -28 -2 -44 2 -22 8 -28 28 -28 23 0 25 4 25 40
0 34 -3 40 -23 43 -13 2 -24 -3 -28 -11z m42 -23 c4 -14 2 -30 -5 -37 -12 -12
-18 -9 -21 13 -7 50 14 70 26 24z"/>
<path d="M78 2584 c-29 -28 24 -85 60 -65 24 13 34 35 24 59 -5 13 -8 11 -12
-13 -4 -24 -10 -30 -30 -30 -19 0 -26 6 -30 28 -3 16 -8 25 -12 21z"/>
<path d="M2758 2584 c-29 -28 24 -85 60 -65 24 13 34 35 24 59 -5 13 -8 11
-12 -13 -4 -24 -10 -30 -30 -30 -19 0 -26 6 -30 28 -3 16 -8 25 -12 21z"/>
<path d="M1041 2393 c1 -27 3 -40 6 -30 2 9 10 17 18 17 19 0 36 25 29 44 -3
9 -17 16 -30 16 -22 0 -24 -4 -23 -47z m37 19 c2 -7 -3 -12 -12 -12 -9 0 -16
7 -16 16 0 17 22 14 28 -4z"/>
<path d="M1447 2427 c-9 -25 5 -77 22 -76 10 0 11 2 4 6 -17 6 -17 40 -1 45 9
3 8 9 -4 21 -12 12 -17 13 -21 4z"/>
<path d="M1533 2395 c0 -27 2 -38 4 -22 2 15 2 37 0 50 -2 12 -4 0 -4 -28z"/>
<path d="M3717 2433 c-11 -10 -8 -83 3 -83 6 0 10 7 10 15 0 8 7 15 15 15 21
0 37 34 23 48 -13 13 -41 16 -51 5z m41 -21 c2 -7 -3 -12 -12 -12 -9 0 -16 7
-16 16 0 17 22 14 28 -4z"/>
<path d="M4127 2427 c-9 -25 5 -77 22 -76 10 0 11 2 4 6 -17 6 -17 40 -1 45 9
3 8 9 -4 21 -12 12 -17 13 -21 4z"/>
<path d="M4213 2395 c0 -27 2 -38 4 -22 2 15 2 37 0 50 -2 12 -4 0 -4 -28z"/>
<path d="M1111 2402 c-14 -26 5 -52 37 -51 21 1 22 2 7 6 -34 8 -41 23 -12 23
29 0 34 9 15 28 -17 17 -36 15 -47 -6z m34 -2 c3 -5 -1 -10 -10 -10 -9 0 -13
5 -10 10 3 6 8 10 10 10 2 0 7 -4 10 -10z"/>
<path d="M1180 2383 c0 -18 5 -33 10 -33 6 0 10 10 10 23 0 13 5 28 11 34 9 9
7 12 -10 10 -17 -1 -21 -8 -21 -34z"/>
<path d="M1234 2406 c-11 -28 1 -51 26 -53 25 -3 25 -3 3 7 -13 5 -23 13 -23
18 0 14 26 33 33 25 4 -3 7 -1 7 5 0 17 -40 15 -46 -2z"/>
<path d="M1301 2402 c-14 -26 5 -52 37 -51 21 1 22 2 7 6 -34 8 -41 23 -12 23
29 0 34 9 15 28 -17 17 -36 15 -47 -6z m34 -2 c3 -5 -1 -10 -10 -10 -9 0 -13
5 -10 10 3 6 8 10 10 10 2 0 7 -4 10 -10z"/>
<path d="M1370 2384 c0 -19 5 -34 10 -34 6 0 10 11 10 24 0 38 18 40 29 4 l10
-33 -2 35 c-2 31 -5 35 -29 36 -25 1 -28 -2 -28 -32z"/>
<path d="M1497 2413 c-11 -10 -8 -63 3 -63 6 0 10 16 10 35 0 36 -2 40 -13 28z"/>
<path d="M1564 2406 c-12 -30 0 -51 31 -53 18 -1 22 1 10 4 -34 9 -41 23 -11
23 21 0 27 4 24 18 -4 22 -46 29 -54 8z m41 -6 c3 -6 -4 -10 -17 -10 -18 0
-20 2 -8 10 19 12 18 12 25 0z"/>
<path d="M3790 2405 c-19 -23 -3 -55 28 -54 24 2 24 2 5 6 -31 6 -29 23 2 23
27 0 32 9 13 28 -16 16 -33 15 -48 -3z m35 -5 c3 -5 -1 -10 -10 -10 -9 0 -13
5 -10 10 3 6 8 10 10 10 2 0 7 -4 10 -10z"/>
<path d="M3860 2383 c0 -18 5 -33 10 -33 6 0 10 10 10 23 0 13 5 28 11 34 9 9
7 12 -10 10 -17 -1 -21 -8 -21 -34z"/>
<path d="M3914 2406 c-11 -28 1 -51 26 -53 25 -3 25 -3 3 7 -13 5 -23 13 -23
18 0 14 26 33 33 25 4 -3 7 -1 7 5 0 17 -40 15 -46 -2z"/>
<path d="M3980 2405 c-19 -23 -3 -55 28 -54 24 2 24 2 5 6 -31 6 -29 23 2 23
27 0 32 9 13 28 -16 16 -33 15 -48 -3z m35 -5 c3 -5 -1 -10 -10 -10 -9 0 -13
5 -10 10 3 6 8 10 10 10 2 0 7 -4 10 -10z"/>
<path d="M4051 2380 c1 -30 2 -32 8 -11 9 34 31 39 31 7 0 -14 5 -26 10 -26
12 0 13 40 2 57 -4 7 -18 11 -30 10 -18 -1 -22 -7 -21 -37z"/>
<path d="M4177 2413 c-11 -10 -8 -63 3 -63 6 0 10 16 10 35 0 36 -2 40 -13 28z"/>
<path d="M4241 2402 c-14 -26 5 -52 37 -51 21 1 22 2 7 6 -34 8 -41 23 -12 23
29 0 34 9 15 28 -17 17 -36 15 -47 -6z m34 -2 c3 -5 -1 -10 -10 -10 -9 0 -13
5 -10 10 3 6 8 10 10 10 2 0 7 -4 10 -10z"/>
<path d="M862 2088 c-15 -15 -15 -51 0 -66 14 -14 58 -16 58 -4 0 5 -10 8 -22
8 -19 -1 -23 4 -23 29 0 25 4 30 23 29 12 0 22 3 22 8 0 12 -44 10 -58 -4z"/>
<path d="M1013 2055 c0 -27 2 -38 4 -22 2 15 2 37 0 50 -2 12 -4 0 -4 -28z"/>
<path d="M1040 2055 c0 -25 5 -45 10 -45 6 0 10 20 10 45 0 25 -4 45 -10 45
-5 0 -10 -20 -10 -45z"/>
<path d="M1346 2084 c-10 -27 -7 -59 9 -80 14 -17 14 -17 4 12 -6 21 -7 39 0
57 6 15 7 27 2 27 -5 0 -12 -7 -15 -16z"/>
<path d="M1390 2090 c0 -6 5 -8 10 -5 6 3 15 3 22 -1 7 -5 5 -11 -7 -21 -17
-12 -17 -13 -2 -13 28 0 19 -28 -10 -33 -26 -4 -25 -4 5 -6 33 -1 33 -1 30 42
-2 35 -7 43 -25 45 -13 2 -23 -2 -23 -8z"/>
<path d="M1466 2088 c-3 -7 -4 -26 -3 -43 2 -25 6 -30 27 -30 23 0 25 4 25 40
0 34 -3 40 -23 43 -12 2 -24 -3 -26 -10z m34 -13 c0 -8 -4 -15 -10 -15 -5 0
-10 7 -10 15 0 8 5 15 10 15 6 0 10 -7 10 -15z m2 -40 c0 -5 -5 -11 -11 -13
-6 -2 -11 4 -11 13 0 9 5 15 11 13 6 -2 11 -8 11 -13z"/>
<path d="M1718 2089 c-2 -6 -2 -26 0 -45 3 -27 8 -34 26 -33 16 1 17 2 4 6
-20 5 -24 39 -6 45 9 3 8 9 -4 21 -10 11 -18 13 -20 6z"/>
<path d="M1774 2044 c0 -30 3 -48 8 -41 10 15 10 84 1 90 -5 3 -8 -19 -9 -49z"/>
<path d="M3701 2053 c1 -27 3 -40 6 -30 2 9 10 17 18 17 19 0 36 25 29 44 -3
9 -17 16 -30 16 -22 0 -24 -4 -23 -47z m37 19 c2 -7 -3 -12 -12 -12 -9 0 -16
7 -16 16 0 17 22 14 28 -4z"/>
<path d="M3990 2055 c0 -25 5 -45 10 -45 6 0 10 20 10 45 0 25 -4 45 -10 45
-5 0 -10 -20 -10 -45z"/>
<path d="M103 2079 c-6 -6 -9 -17 -6 -24 2 -7 -4 -15 -14 -18 -10 -3 5 -5 32
-5 34 0 42 2 26 7 -34 9 -39 31 -7 31 14 0 26 5 26 10 0 14 -43 13 -57 -1z"/>
<path d="M2783 2079 c-6 -6 -9 -17 -6 -24 2 -7 -4 -15 -14 -18 -10 -3 5 -5 32
-5 34 0 42 2 26 7 -34 9 -39 31 -7 31 14 0 26 5 26 10 0 14 -43 13 -57 -1z"/>
<path d="M4102 2053 c2 -29 8 -38 23 -40 11 -2 14 0 8 3 -16 7 -17 40 -2 50 8
4 7 9 -2 15 -25 16 -30 10 -27 -28z"/>
<path d="M940 2065 c-18 -21 -3 -55 25 -55 27 0 39 24 25 51 -13 23 -33 25
-50 4z m40 -26 c0 -10 -7 -19 -15 -19 -15 0 -21 31 -9 43 11 10 24 -3 24 -24z"/>
<path d="M1080 2065 c-19 -23 -3 -55 28 -54 24 2 24 2 5 6 -31 6 -29 23 2 23
27 0 32 9 13 28 -16 16 -33 15 -48 -3z m35 -5 c3 -5 -1 -10 -10 -10 -9 0 -13
5 -10 10 3 6 8 10 10 10 2 0 7 -4 10 -10z"/>
<path d="M1157 2073 c-4 -3 -7 -17 -7 -31 0 -16 7 -26 23 -30 22 -6 22 -6 -3
-13 -22 -5 -23 -7 -7 -14 27 -11 47 13 47 56 0 34 -3 39 -23 39 -13 0 -27 -3
-30 -7z m33 -34 c0 -20 -15 -26 -25 -9 -9 15 3 43 15 35 5 -3 10 -15 10 -26z"/>
<path d="M1230 2065 c-19 -23 -3 -55 28 -54 24 2 24 2 5 6 -31 6 -29 23 2 23
27 0 32 9 13 28 -16 16 -33 15 -48 -3z m35 -5 c3 -5 -1 -10 -10 -10 -9 0 -13
5 -10 10 3 6 8 10 10 10 2 0 7 -4 10 -10z"/>
<path d="M1581 2026 c1 -28 3 -43 6 -33 2 9 13 17 24 17 43 0 33 64 -10 66
-19 1 -21 -4 -20 -50z m39 13 c0 -20 -15 -26 -25 -9 -9 15 3 43 15 35 5 -3 10
-15 10 -26z"/>
<path d="M1654 2066 c-11 -28 1 -51 26 -53 25 -3 25 -3 3 7 -13 5 -23 13 -23
18 0 14 26 33 33 25 4 -3 7 -1 7 5 0 17 -40 15 -46 -2z"/>
<path d="M3772 2064 c-15 -27 -3 -54 24 -54 28 0 42 25 27 49 -14 23 -40 25
-51 5z m38 -25 c0 -20 -15 -26 -25 -9 -9 15 3 43 15 35 5 -3 10 -15 10 -26z"/>
<path d="M3840 2036 c0 -25 5 -46 10 -46 6 0 10 4 10 9 0 5 9 11 21 14 16 4
20 12 17 34 -2 22 -9 29 -30 31 -27 3 -28 2 -28 -42z m47 0 c-4 -9 -11 -16
-17 -16 -11 0 -14 33 -3 44 11 10 26 -11 20 -28z"/>
<path d="M3922 2048 c-2 -36 0 -38 28 -38 27 0 30 3 30 29 0 38 -18 50 -22 14
-5 -39 -26 -40 -31 -1 l-4 33 -1 -37z"/>
<path d="M4030 2071 c0 -6 7 -8 15 -5 8 4 15 2 15 -4 0 -5 -9 -12 -21 -15 -29
-8 -19 -31 15 -35 26 -3 27 -1 24 30 -2 25 -8 34 -25 36 -13 2 -23 -1 -23 -7z
m35 -41 c-3 -5 -10 -10 -16 -10 -5 0 -9 5 -9 10 0 6 7 10 16 10 8 0 12 -4 9
-10z"/>
<path d="M4153 2045 c0 -22 2 -30 4 -17 2 12 2 30 0 40 -3 9 -5 -1 -4 -23z"/>
<path d="M4184 2066 c-11 -29 0 -51 26 -51 21 0 25 5 25 30 0 24 -5 31 -23 33
-13 2 -24 -3 -28 -12z m38 -38 c-16 -16 -37 4 -28 28 6 16 8 16 23 1 13 -13
15 -19 5 -29z"/>
<path d="M4257 2074 c-10 -11 -9 -64 2 -64 5 0 11 11 13 25 4 36 22 36 30 0 6
-29 6 -29 5 5 -2 27 -7 36 -22 38 -12 2 -24 0 -28 -4z"/>
<path d="M87 1996 c-7 -18 7 -23 45 -18 18 3 28 10 27 21 0 10 -2 11 -6 4 -6
-15 -43 -17 -43 -3 0 15 -17 12 -23 -4z"/>
<path d="M245 2000 c-5 -9 -1 -10 13 -6 32 10 35 -9 6 -43 l-26 -31 34 1 c18
1 25 3 15 6 -17 4 -17 6 -2 23 9 10 15 27 13 37 -4 21 -43 30 -53 13z"/>
<path d="M330 1985 c0 -14 3 -24 8 -24 39 6 40 -21 1 -33 -22 -6 -21 -7 6 -5
23 2 31 7 33 25 3 17 -2 25 -17 29 -26 7 -27 20 -3 26 13 4 11 5 -5 6 -18 1
-23 -4 -23 -24z"/>
<path d="M2767 1996 c-7 -18 7 -23 45 -18 18 3 28 10 27 21 0 10 -2 11 -6 4
-6 -15 -43 -17 -43 -3 0 15 -17 12 -23 -4z"/>
<path d="M2925 2000 c-5 -9 -1 -10 13 -6 32 10 35 -9 6 -43 l-26 -31 34 1 c18
1 25 3 15 6 -17 4 -17 6 -2 23 9 10 15 27 13 37 -4 21 -43 30 -53 13z"/>
<path d="M3003 1995 c-6 -17 2 -30 20 -30 23 0 19 -33 -5 -38 -16 -4 -14 -5 7
-4 23 2 31 7 33 25 3 17 -2 25 -17 29 -26 7 -27 20 -3 26 12 4 11 5 -6 6 -12
0 -25 -6 -29 -14z"/>
<path d="M93 1953 c15 -2 37 -2 50 0 12 2 0 4 -28 4 -27 0 -38 -2 -22 -4z"/>
<path d="M420 1265 l0 -695 900 0 900 0 0 695 0 695 -900 0 -900 0 0 -695z
m361 668 c1 -17 2 -17 6 0 4 15 21 17 179 17 159 0 174 -2 175 -17 1 -17 2
-17 6 0 4 15 21 17 179 17 159 0 174 -2 175 -17 1 -17 2 -17 6 0 4 15 21 17
174 17 154 0 169 -2 170 -17 1 -17 2 -17 6 0 4 15 21 17 179 17 l174 0 0 -135
c0 -121 -2 -135 -17 -136 -17 -1 -17 -2 0 -6 15 -4 17 -19 17 -134 0 -116 -2
-129 -17 -130 -17 -1 -17 -2 0 -6 15 -4 17 -19 17 -139 0 -120 -2 -134 -17
-135 -17 -1 -17 -2 0 -6 15 -4 17 -19 17 -134 0 -116 -2 -129 -17 -130 -17 -1
-17 -2 0 -6 15 -4 17 -19 17 -139 l0 -134 -175 0 c-160 0 -175 2 -176 18 -1
16 -2 16 -6 -1 -4 -15 -21 -17 -174 -17 -154 0 -169 2 -170 18 -1 16 -2 16 -6
0 -4 -16 -21 -18 -179 -18 -173 0 -174 0 -175 23 l-2 22 -4 -22 c-4 -23 -6
-23 -166 -22 -89 0 -156 3 -149 6 22 9 13 18 -18 18 -17 0 -30 -5 -30 -12 0
-10 -41 -13 -170 -13 l-170 0 0 135 c0 121 2 135 18 136 16 1 16 2 0 6 -16 4
-18 19 -18 134 0 116 2 129 18 130 16 1 16 2 0 6 -16 4 -18 19 -18 139 0 120
2 134 18 135 16 1 16 2 0 6 -16 4 -18 19 -18 134 0 116 2 129 18 130 16 1 16
2 0 6 -16 4 -18 19 -18 139 l0 134 170 0 c155 0 170 -2 171 -17z"/>
<path d="M1840 1115 c-8 -9 -8 -15 -2 -15 12 0 26 19 19 26 -2 2 -10 -2 -17
-11z"/>
<path d="M1764 1039 c-19 -22 -19 -22 3 -10 24 12 39 31 25 31 -5 0 -17 -10
-28 -21z"/>
<path d="M1675 960 c-10 -11 -14 -20 -8 -20 5 0 18 9 28 20 10 11 14 20 8 20
-5 0 -18 -9 -28 -20z"/>
<path d="M1585 880 c-10 -11 -14 -20 -8 -20 5 0 18 9 28 20 10 11 14 20 8 20
-5 0 -18 -9 -28 -20z"/>
<path d="M1496 805 c-11 -8 -17 -17 -14 -20 3 -3 16 3 29 14 27 23 14 28 -15
6z"/>
<path d="M1384 755 c-10 -8 -14 -15 -8 -15 5 0 19 7 30 15 10 8 14 15 8 15 -5
0 -19 -7 -30 -15z"/>
<path d="M1275 713 l-30 -14 30 6 c31 7 41 12 34 19 -2 2 -17 -3 -34 -11z"/>
<path d="M1154 665 c-24 -18 -7 -19 26 0 16 9 19 14 9 15 -8 0 -24 -7 -35 -15z"/>
<path d="M1040 640 c-18 -12 -2 -12 25 0 13 6 15 9 5 9 -8 0 -22 -4 -30 -9z"/>
<path d="M925 620 c-13 -6 -15 -9 -5 -9 8 0 22 4 30 9 18 12 2 12 -25 0z"/>
<path d="M2773 1953 c15 -2 37 -2 50 0 12 2 0 4 -28 4 -27 0 -38 -2 -22 -4z"/>
<path d="M3100 1265 l0 -695 900 0 900 0 0 695 0 695 -900 0 -900 0 0 -695z
m361 668 c1 -17 2 -17 6 0 4 15 21 17 179 17 159 0 174 -2 175 -17 1 -17 2
-17 6 0 4 15 21 17 179 17 159 0 174 -2 175 -17 1 -17 2 -17 6 0 4 15 21 17
174 17 154 0 169 -2 170 -17 1 -17 2 -17 6 0 4 15 21 17 179 17 l174 0 0 -135
c0 -121 -2 -135 -17 -136 -17 -1 -17 -2 0 -6 15 -4 17 -19 17 -134 0 -116 -2
-129 -17 -130 -17 -1 -17 -2 0 -6 15 -4 17 -19 17 -139 0 -120 -2 -134 -17
-135 -17 -1 -17 -2 0 -6 15 -4 17 -19 17 -134 0 -116 -2 -129 -17 -130 -17 -1
-17 -2 0 -6 15 -4 17 -19 17 -139 l0 -134 -175 0 c-160 0 -175 2 -176 18 -1
16 -2 16 -6 -1 -4 -15 -21 -17 -174 -17 -154 0 -169 2 -170 18 -1 16 -2 16 -6
0 -4 -16 -21 -18 -179 -18 -172 0 -208 7 -148 31 33 12 28 19 -8 12 -19 -4
-28 -12 -28 -24 0 -17 -7 -19 -57 -18 -32 1 -46 4 -30 6 15 2 27 9 27 14 0 14
-24 11 -46 -6 -22 -17 -60 -19 -69 -4 -4 6 -14 7 -24 3 -9 -4 -46 -8 -83 -9
-55 -1 -68 2 -69 14 -1 13 -2 12 -6 -2 -4 -15 -21 -17 -174 -17 l-169 0 0 135
c0 121 2 135 18 136 16 1 16 2 0 6 -16 4 -18 19 -18 134 0 116 2 129 18 130
16 1 16 2 0 6 -16 4 -18 19 -18 139 0 120 2 134 18 135 16 1 16 2 0 6 -16 4
-18 19 -18 134 0 116 2 129 18 130 16 1 16 2 0 6 -16 4 -18 19 -18 139 l0 134
170 0 c155 0 170 -2 171 -17z"/>
<path d="M4454 959 c-19 -22 -19 -22 3 -10 24 12 39 31 25 31 -5 0 -17 -10
-28 -21z"/>
<path d="M4364 878 l-19 -21 28 18 c28 18 33 25 19 25 -5 0 -17 -10 -28 -22z"/>
<path d="M4284 809 c-19 -22 -19 -22 4 -8 12 8 22 17 22 21 0 12 -6 9 -26 -13z"/>
<path d="M4191 730 c-13 -11 -19 -20 -14 -20 6 0 18 9 28 20 23 25 17 25 -14
0z"/>
<path d="M4083 690 c-30 -12 -29 -18 2 -12 14 2 25 8 25 13 0 5 -1 9 -2 8 -2
0 -13 -4 -25 -9z"/>
<path d="M3950 650 c-13 -9 -13 -10 0 -9 8 0 24 4 35 9 l20 9 -20 0 c-11 0
-27 -4 -35 -9z"/>
<path d="M106 1914 c-18 -18 -20 -30 -7 -39 5 -3 12 5 14 17 l4 23 2 -22 c1
-16 7 -23 20 -23 25 0 32 11 24 38 -6 26 -35 29 -57 6z m44 -19 c0 -8 -4 -15
-10 -15 -5 0 -10 7 -10 15 0 8 5 15 10 15 6 0 10 -7 10 -15z"/>
<path d="M2786 1914 c-18 -18 -20 -30 -7 -39 5 -3 12 5 14 17 l4 23 2 -22 c1
-16 7 -23 20 -23 25 0 32 11 24 38 -6 26 -35 29 -57 6z m44 -19 c0 -8 -4 -15
-10 -15 -5 0 -10 7 -10 15 0 8 5 15 10 15 6 0 10 -7 10 -15z"/>
<path d="M101 1846 c-22 -26 10 -63 43 -50 20 8 28 33 16 52 -8 14 -9 12 -10
-10 0 -16 -4 -28 -10 -28 -5 0 -10 11 -10 25 0 28 -12 32 -29 11z m16 -28 c-3
-8 -6 -5 -6 6 -1 11 2 17 5 13 3 -3 4 -12 1 -19z"/>
<path d="M2781 1846 c-22 -26 10 -63 43 -50 20 8 28 33 16 52 -8 14 -9 12 -10
-10 0 -16 -4 -28 -10 -28 -5 0 -10 11 -10 25 0 28 -12 32 -29 11z m16 -28 c-3
-8 -6 -5 -6 6 -1 11 2 17 5 13 3 -3 4 -12 1 -19z"/>
<path d="M110 1769 c21 -10 22 -13 8 -16 -21 -5 -24 -19 -5 -26 9 -4 8 -8 -3
-16 -13 -9 -13 -11 2 -11 23 0 48 11 48 21 0 5 -8 9 -17 9 -16 1 -16 2 1 15
24 18 19 23 -25 30 -32 5 -33 5 -9 -6z"/>
<path d="M2790 1769 c21 -10 22 -13 8 -16 -21 -5 -24 -19 -5 -26 9 -4 8 -8 -3
-16 -13 -9 -13 -11 2 -11 23 0 48 11 48 21 0 5 -8 9 -17 9 -16 1 -16 2 1 15
24 18 19 23 -25 30 -32 5 -33 5 -9 -6z"/>
<path d="M245 1730 c-5 -9 -1 -10 13 -6 32 10 35 -9 6 -43 l-26 -31 34 1 c18
1 25 3 15 6 -17 4 -17 6 -2 23 9 10 15 27 13 37 -4 21 -43 30 -53 13z"/>
<path d="M332 1728 c-24 -24 -11 -78 19 -78 26 0 41 33 29 64 -10 28 -29 33
-48 14z m36 -39 c-5 -35 -28 -36 -28 -1 0 16 3 32 7 36 11 11 25 -10 21 -35z"/>
<path d="M2925 1730 c-5 -9 -1 -10 13 -6 32 10 35 -9 6 -43 l-26 -31 34 1 c18
1 25 3 15 6 -17 4 -17 6 -2 23 9 10 15 27 13 37 -4 21 -43 30 -53 13z"/>
<path d="M3004 1727 c-3 -9 -4 -28 -2 -44 2 -22 8 -28 28 -28 23 0 25 4 25 40
0 34 -3 40 -23 43 -13 2 -24 -3 -28 -11z m42 -23 c4 -14 2 -30 -5 -37 -12 -12
-18 -9 -21 13 -7 50 14 70 26 24z"/>
<path d="M70 1648 c0 -23 25 -35 61 -30 35 5 39 21 4 24 -14 0 -31 1 -37 2 -7
1 -16 6 -20 11 -5 6 -8 3 -8 -7z"/>
<path d="M2750 1648 c0 -23 25 -35 61 -30 35 5 39 21 4 24 -14 0 -31 1 -37 2
-7 1 -16 6 -20 11 -5 6 -8 3 -8 -7z"/>
<path d="M102 1598 c-16 -16 -15 -23 4 -42 19 -20 29 -20 48 0 12 12 13 20 6
35 -12 21 -40 25 -58 7z m48 -23 c0 -8 -9 -15 -20 -15 -11 0 -20 7 -20 15 0 8
9 15 20 15 11 0 20 -7 20 -15z"/>
<path d="M2782 1598 c-16 -16 -15 -23 4 -42 19 -20 29 -20 48 0 12 12 13 20 6
35 -12 21 -40 25 -58 7z m48 -23 c0 -8 -9 -15 -20 -15 -11 0 -20 7 -20 15 0 8
9 15 20 15 11 0 20 -7 20 -15z"/>
<path d="M101 1476 c-22 -26 10 -63 43 -50 20 8 28 33 16 52 -8 14 -9 12 -10
-10 0 -16 -4 -28 -10 -28 -5 0 -10 11 -10 25 0 28 -12 32 -29 11z m16 -28 c-3
-8 -6 -5 -6 6 -1 11 2 17 5 13 3 -3 4 -12 1 -19z"/>
<path d="M2781 1476 c-22 -26 10 -63 43 -50 20 8 28 33 16 52 -8 14 -9 12 -10
-10 0 -16 -4 -28 -10 -28 -5 0 -10 11 -10 25 0 28 -12 32 -29 11z m16 -28 c-3
-8 -6 -5 -6 6 -1 11 2 17 5 13 3 -3 4 -12 1 -19z"/>
<path d="M250 1451 c0 -6 5 -11 10 -11 15 0 12 -57 -2 -63 -7 -3 3 -6 22 -6
19 0 30 3 23 7 -6 4 -13 23 -15 42 -2 24 -9 36 -20 38 -10 2 -18 -1 -18 -7z"/>
<path d="M330 1435 c0 -14 3 -24 8 -24 39 6 40 -21 1 -33 -22 -6 -21 -7 6 -5
23 2 31 7 33 25 3 17 -2 25 -17 29 -26 7 -27 20 -3 26 13 4 11 5 -5 6 -18 1
-23 -4 -23 -24z"/>
<path d="M2930 1451 c0 -6 5 -11 10 -11 15 0 12 -57 -2 -63 -7 -3 3 -6 22 -6
19 0 30 3 23 7 -6 4 -13 23 -15 42 -2 24 -9 36 -20 38 -10 2 -18 -1 -18 -7z"/>
<path d="M3003 1445 c-6 -17 2 -30 20 -30 23 0 19 -33 -5 -38 -16 -4 -14 -5 7
-4 23 2 31 7 33 25 3 17 -2 25 -17 29 -26 7 -27 20 -3 26 12 4 11 5 -6 6 -12
0 -25 -6 -29 -14z"/>
<path d="M93 1400 c1 -16 8 -20 37 -19 24 1 28 3 12 6 -13 3 -26 11 -29 19 -8
21 -22 17 -20 -6z"/>
<path d="M2773 1400 c1 -16 8 -20 37 -19 24 1 28 3 12 6 -13 3 -26 11 -29 19
-8 21 -22 17 -20 -6z"/>
<path d="M106 1354 c-18 -18 -20 -30 -7 -39 5 -3 12 5 14 17 l4 23 2 -22 c1
-16 7 -23 20 -23 25 0 32 11 24 38 -6 26 -35 29 -57 6z m44 -19 c0 -8 -4 -15
-10 -15 -5 0 -10 7 -10 15 0 8 5 15 10 15 6 0 10 -7 10 -15z"/>
<path d="M2786 1354 c-18 -18 -20 -30 -7 -39 5 -3 12 5 14 17 l4 23 2 -22 c1
-16 7 -23 20 -23 25 0 32 11 24 38 -6 26 -35 29 -57 6z m44 -19 c0 -8 -4 -15
-10 -15 -5 0 -10 7 -10 15 0 8 5 15 10 15 6 0 10 -7 10 -15z"/>
<path d="M103 1289 c-6 -6 -9 -17 -6 -24 2 -7 -4 -15 -14 -18 -10 -3 5 -5 32
-5 34 0 42 2 26 7 -34 9 -39 31 -7 31 14 0 26 5 26 10 0 14 -43 13 -57 -1z"/>
<path d="M2783 1289 c-6 -6 -9 -17 -6 -24 2 -7 -4 -15 -14 -18 -10 -3 5 -5 32
-5 34 0 42 2 26 7 -34 9 -39 31 -7 31 14 0 26 5 26 10 0 14 -43 13 -57 -1z"/>
<path d="M95 1207 c-4 -10 -2 -24 6 -33 11 -14 15 -13 31 8 l18 23 0 -25 c1
-21 2 -22 10 -8 12 20 3 48 -15 48 -8 0 -17 -10 -21 -22 l-8 -23 -6 25 c-6 22
-8 23 -15 7z"/>
<path d="M2775 1207 c-4 -10 -2 -24 6 -33 11 -14 15 -13 31 8 l18 23 0 -25 c1
-21 2 -22 10 -8 12 20 3 48 -15 48 -8 0 -17 -10 -21 -22 l-8 -23 -6 25 c-6 22
-8 23 -15 7z"/>
<path d="M250 1171 c0 -6 5 -11 10 -11 15 0 12 -57 -2 -63 -7 -3 3 -6 22 -6
19 0 30 3 23 7 -6 4 -13 23 -15 42 -2 24 -9 36 -20 38 -10 2 -18 -1 -18 -7z"/>
<path d="M332 1168 c-24 -24 -11 -78 19 -78 26 0 41 33 29 64 -10 28 -29 33
-48 14z m36 -39 c-5 -35 -28 -36 -28 -1 0 16 3 32 7 36 11 11 25 -10 21 -35z"/>
<path d="M2930 1171 c0 -6 5 -11 10 -11 15 0 12 -57 -2 -63 -7 -3 3 -6 22 -6
19 0 30 3 23 7 -6 4 -13 23 -15 42 -2 24 -9 36 -20 38 -10 2 -18 -1 -18 -7z"/>
<path d="M3004 1167 c-3 -9 -4 -28 -2 -44 2 -22 8 -28 28 -28 23 0 25 4 25 40
0 34 -3 40 -23 43 -13 2 -24 -3 -28 -11z m42 -23 c4 -14 2 -30 -5 -37 -12 -12
-18 -9 -21 13 -7 50 14 70 26 24z"/>
<path d="M101 1106 c-22 -26 10 -63 43 -50 20 8 28 33 16 52 -8 14 -9 12 -10
-10 0 -16 -4 -28 -10 -28 -5 0 -10 11 -10 25 0 28 -12 32 -29 11z m16 -28 c-3
-8 -6 -5 -6 6 -1 11 2 17 5 13 3 -3 4 -12 1 -19z"/>
<path d="M2781 1106 c-22 -26 10 -63 43 -50 20 8 28 33 16 52 -8 14 -9 12 -10
-10 0 -16 -4 -28 -10 -28 -5 0 -10 11 -10 25 0 28 -12 32 -29 11z m16 -28 c-3
-8 -6 -5 -6 6 -1 11 2 17 5 13 3 -3 4 -12 1 -19z"/>
<path d="M100 1041 c0 -4 10 -12 23 -18 l22 -10 -22 -7 c-13 -4 -23 -11 -23
-16 0 -4 14 -3 30 3 38 15 38 32 0 46 -16 5 -30 6 -30 2z"/>
<path d="M2780 1041 c0 -4 10 -12 23 -18 l22 -10 -22 -7 c-13 -4 -23 -11 -23
-16 0 -4 14 -3 30 3 17 6 30 17 30 23 0 7 -13 17 -30 23 -16 5 -30 6 -30 2z"/>
<path d="M93 963 c15 -2 37 -2 50 0 12 2 0 4 -28 4 -27 0 -38 -2 -22 -4z"/>
<path d="M2773 963 c15 -2 37 -2 50 0 12 2 0 4 -28 4 -27 0 -38 -2 -22 -4z"/>
<path d="M87 926 c-7 -18 7 -23 45 -18 18 3 28 10 27 21 0 10 -2 11 -6 4 -6
-15 -43 -17 -43 -3 0 15 -17 12 -23 -4z"/>
<path d="M2767 926 c-7 -18 7 -23 45 -18 18 3 28 10 27 21 0 10 -2 11 -6 4 -6
-15 -43 -17 -43 -3 0 15 -17 12 -23 -4z"/>
<path d="M330 885 c0 -14 3 -24 8 -24 39 6 40 -21 1 -33 -22 -6 -21 -7 6 -5
23 2 31 7 33 25 3 17 -2 25 -17 29 -26 7 -27 20 -3 26 13 4 11 5 -5 6 -18 1
-23 -4 -23 -24z"/>
<path d="M3003 895 c-6 -17 2 -30 20 -30 23 0 19 -33 -5 -38 -16 -4 -14 -5 7
-4 23 2 31 7 33 25 3 17 -2 25 -17 29 -26 7 -27 20 -3 26 12 4 11 5 -6 6 -12
0 -25 -6 -29 -14z"/>
<path d="M106 884 c-18 -18 -20 -30 -7 -39 5 -3 12 5 14 17 l4 23 2 -22 c1
-16 7 -23 20 -23 25 0 32 11 24 38 -6 26 -35 29 -57 6z m44 -19 c0 -8 -4 -15
-10 -15 -5 0 -10 7 -10 15 0 8 5 15 10 15 6 0 10 -7 10 -15z"/>
<path d="M2786 884 c-18 -18 -20 -30 -7 -39 5 -3 12 5 14 17 l4 23 2 -22 c1
-16 7 -23 20 -23 25 0 32 11 24 38 -6 26 -35 29 -57 6z m44 -19 c0 -8 -4 -15
-10 -15 -5 0 -10 7 -10 15 0 8 5 15 10 15 6 0 10 -7 10 -15z"/>
<path d="M93 803 c15 -2 37 -2 50 0 12 2 0 4 -28 4 -27 0 -38 -2 -22 -4z"/>
<path d="M2773 803 c15 -2 37 -2 50 0 12 2 0 4 -28 4 -27 0 -38 -2 -22 -4z"/>
<path d="M100 780 c0 -5 11 -10 25 -10 38 0 32 -28 -7 -33 l-33 -4 37 -1 c38
-2 48 9 40 41 -5 18 -62 25 -62 7z"/>
<path d="M2780 780 c0 -5 11 -10 25 -10 38 0 32 -28 -7 -33 l-33 -4 37 -1 c38
-2 48 9 40 41 -5 18 -62 25 -62 7z"/>
<path d="M104 698 c-4 -6 -8 -29 -9 -50 -2 -37 -1 -38 34 -37 31 1 32 2 12 8
-34 9 -39 31 -7 31 14 0 26 5 26 10 0 6 -11 10 -25 10 -14 0 -25 5 -25 10 0 6
11 10 25 10 14 0 25 5 25 10 0 14 -47 12 -56 -2z"/>
<path d="M2784 698 c-4 -6 -8 -29 -9 -50 -2 -37 -1 -38 34 -37 31 1 32 2 12 8
-34 9 -39 31 -7 31 14 0 26 5 26 10 0 6 -11 10 -25 10 -14 0 -25 5 -25 10 0 6
11 10 25 10 14 0 25 5 25 10 0 14 -47 12 -56 -2z"/>
<path d="M332 618 c-24 -24 -11 -78 19 -78 26 0 41 33 29 64 -10 28 -29 33
-48 14z m36 -39 c-5 -35 -28 -36 -28 -1 0 16 3 32 7 36 11 11 25 -10 21 -35z"/>
<path d="M3004 617 c-3 -9 -4 -28 -2 -44 2 -22 8 -28 28 -28 23 0 25 4 25 40
0 34 -3 40 -23 43 -13 2 -24 -3 -28 -11z m42 -23 c4 -14 2 -30 -5 -37 -12 -12
-18 -9 -21 13 -7 50 14 70 26 24z"/>
<path d="M100 580 c0 -5 11 -10 25 -10 38 0 32 -28 -7 -33 l-33 -4 37 -1 c38
-2 48 9 40 41 -5 18 -62 25 -62 7z"/>
<path d="M2780 580 c0 -5 11 -10 25 -10 38 0 32 -28 -7 -33 l-33 -4 37 -1 c38
-2 48 9 40 41 -5 18 -62 25 -62 7z"/>
<path d="M404 517 c-3 -9 -4 -28 -2 -44 2 -22 8 -28 28 -28 23 0 25 4 25 40 0
34 -3 40 -23 43 -13 2 -24 -3 -28 -11z m42 -23 c4 -14 2 -30 -5 -37 -12 -12
-18 -9 -21 13 -7 50 14 70 26 24z"/>
<path d="M720 520 c0 -5 6 -7 14 -4 24 9 29 -17 7 -40 -29 -30 -27 -36 12 -35
25 1 27 3 9 6 l-24 5 22 23 c13 14 20 31 17 39 -7 17 -57 22 -57 6z"/>
<path d="M799 509 c-15 -28 3 -69 31 -69 24 0 36 40 20 69 -14 27 -36 27 -51
0z m41 -30 c0 -20 -4 -29 -12 -27 -15 5 -22 33 -14 54 9 24 26 6 26 -27z"/>
<path d="M1107 524 c-4 -4 -4 -18 -1 -30 4 -14 2 -24 -5 -24 -6 0 -8 8 -5 18
5 14 3 14 -11 -3 -15 -19 -15 -20 2 -24 10 -2 21 -8 26 -15 12 -19 23 10 19
49 -4 34 -11 42 -25 29z"/>
<path d="M1162 518 c-24 -24 -11 -78 19 -78 26 0 41 33 29 64 -10 28 -29 33
-48 14z m36 -39 c-5 -35 -28 -36 -28 -1 0 16 3 32 7 36 11 11 25 -10 21 -35z"/>
<path d="M1440 509 c-18 -32 -4 -69 24 -69 14 0 26 6 29 13 6 18 -11 47 -29
47 -8 0 -12 5 -9 11 4 6 13 8 21 5 8 -3 14 -1 14 4 0 19 -39 10 -50 -11z m40
-45 c0 -8 -7 -14 -15 -14 -15 0 -21 21 -9 33 10 9 24 -2 24 -19z"/>
<path d="M1514 517 c-3 -9 -4 -28 -2 -44 2 -22 8 -28 28 -28 23 0 25 4 25 40
0 34 -3 40 -23 43 -13 2 -24 -3 -28 -11z m42 -23 c4 -14 2 -30 -5 -37 -12 -12
-18 -9 -21 13 -7 50 14 70 26 24z"/>
<path d="M1796 518 c-3 -7 -4 -26 -3 -43 2 -25 6 -30 27 -30 23 0 25 4 25 40
0 34 -3 40 -23 43 -12 2 -24 -3 -26 -10z m34 -13 c0 -8 -4 -15 -10 -15 -5 0
-10 7 -10 15 0 8 5 15 10 15 6 0 10 -7 10 -15z m2 -40 c0 -5 -5 -11 -11 -13
-6 -2 -11 4 -11 13 0 9 5 15 11 13 6 -2 11 -8 11 -13z"/>
<path d="M1874 516 c-12 -31 0 -71 23 -74 25 -4 38 26 29 64 -7 27 -43 34 -52
10z m36 -32 c0 -24 -4 -34 -12 -32 -24 8 -22 68 2 68 5 0 10 -16 10 -36z"/>
<path d="M2127 494 c4 -25 2 -39 -8 -45 -10 -6 -3 -8 21 -8 19 0 29 3 23 6 -8
2 -13 22 -13 44 0 27 -4 39 -14 39 -11 0 -13 -9 -9 -36z"/>
<path d="M2189 509 c-15 -28 3 -69 31 -69 24 0 36 40 20 69 -14 27 -36 27 -51
0z m41 -30 c0 -20 -4 -29 -12 -27 -15 5 -22 33 -14 54 9 24 26 6 26 -27z"/>
<path d="M2272 518 c-24 -24 -11 -78 19 -78 26 0 41 33 29 64 -10 28 -29 33
-48 14z m36 -39 c-5 -35 -28 -36 -28 -1 0 16 3 32 7 36 11 11 25 -10 21 -35z"/>
<path d="M3084 517 c-3 -9 -4 -28 -2 -44 2 -22 8 -28 28 -28 23 0 25 4 25 40
0 34 -3 40 -23 43 -13 2 -24 -3 -28 -11z m42 -23 c4 -14 2 -30 -5 -37 -12 -12
-18 -9 -21 13 -7 50 14 70 26 24z"/>
<path d="M3400 520 c0 -5 6 -7 14 -4 24 9 29 -17 7 -40 -29 -30 -27 -36 12
-35 23 1 26 3 9 6 l-22 4 19 25 c11 14 17 32 14 40 -6 16 -53 20 -53 4z"/>
<path d="M3479 509 c-15 -28 3 -69 31 -69 24 0 36 40 20 69 -14 27 -36 27 -51
0z m41 -30 c0 -20 -4 -29 -12 -27 -15 5 -22 33 -14 54 9 24 26 6 26 -27z"/>
<path d="M3771 501 c-26 -36 -26 -41 -2 -41 11 0 22 -6 24 -12 10 -23 24 10
19 42 -6 42 -17 45 -41 11z m15 -28 c-10 -10 -19 5 -10 18 6 11 8 11 12 0 2
-7 1 -15 -2 -18z"/>
<path d="M3834 517 c-3 -9 -4 -28 -2 -44 2 -22 8 -28 28 -28 23 0 25 4 25 40
0 34 -3 40 -23 43 -13 2 -24 -3 -28 -11z m42 -23 c4 -14 2 -30 -5 -37 -12 -12
-18 -9 -21 13 -7 50 14 70 26 24z"/>
<path d="M4120 509 c-18 -32 -4 -69 24 -69 14 0 26 6 29 13 6 18 -11 47 -29
47 -8 0 -12 5 -9 11 4 6 13 8 21 5 8 -3 14 -1 14 4 0 19 -39 10 -50 -11z m40
-45 c0 -8 -7 -14 -15 -14 -15 0 -21 21 -9 33 10 9 24 -2 24 -19z"/>
<path d="M4194 516 c-12 -31 0 -71 23 -74 25 -4 38 26 29 64 -7 27 -43 34 -52
10z m36 -32 c0 -24 -4 -34 -12 -32 -24 8 -22 68 2 68 5 0 10 -16 10 -36z"/>
<path d="M4476 518 c-3 -7 -4 -26 -3 -43 2 -25 6 -30 27 -30 23 0 25 4 25 40
0 34 -3 40 -23 43 -12 2 -24 -3 -26 -10z m34 -13 c0 -8 -4 -15 -10 -15 -5 0
-10 7 -10 15 0 8 5 15 10 15 6 0 10 -7 10 -15z m2 -40 c0 -5 -5 -11 -11 -13
-6 -2 -11 4 -11 13 0 9 5 15 11 13 6 -2 11 -8 11 -13z"/>
<path d="M4549 509 c-15 -28 3 -69 31 -69 24 0 36 40 20 69 -14 27 -36 27 -51
0z m41 -30 c0 -20 -4 -29 -12 -27 -15 5 -22 33 -14 54 9 24 26 6 26 -27z"/>
<path d="M4795 520 c-3 -5 -1 -10 4 -10 15 0 14 -57 -1 -63 -7 -3 3 -5 22 -5
19 0 29 2 23 5 -8 2 -13 22 -13 44 0 27 -4 39 -14 39 -8 0 -18 -4 -21 -10z"/>
<path d="M4869 509 c-15 -28 3 -69 31 -69 24 0 36 40 20 69 -14 27 -36 27 -51
0z m41 -30 c0 -20 -4 -29 -12 -27 -15 5 -22 33 -14 54 9 24 26 6 26 -27z"/>
<path d="M4944 517 c-3 -9 -4 -28 -2 -44 2 -22 8 -28 28 -28 23 0 25 4 25 40
0 34 -3 40 -23 43 -13 2 -24 -3 -28 -11z m42 -23 c4 -14 2 -30 -5 -37 -12 -12
-18 -9 -21 13 -7 50 14 70 26 24z"/>
<path d="M78 514 c-29 -28 24 -85 60 -65 24 13 34 35 24 59 -5 13 -8 11 -12
-13 -4 -24 -10 -30 -30 -30 -19 0 -26 6 -30 28 -3 16 -8 25 -12 21z"/>
<path d="M2758 514 c-29 -28 24 -85 60 -65 24 13 34 35 24 59 -5 13 -8 11 -12
-13 -4 -24 -10 -30 -30 -30 -19 0 -26 6 -30 28 -3 16 -8 25 -12 21z"/>
<path d="M1041 323 c1 -27 3 -40 6 -30 2 9 10 17 18 17 19 0 36 25 29 44 -3 9
-17 16 -30 16 -22 0 -24 -4 -23 -47z m37 19 c2 -7 -3 -12 -12 -12 -9 0 -16 7
-16 16 0 17 22 14 28 -4z"/>
<path d="M1447 357 c-9 -25 5 -77 22 -76 10 0 11 2 4 6 -17 6 -17 40 -1 45 9
3 8 9 -4 21 -12 12 -17 13 -21 4z"/>
<path d="M1533 325 c0 -27 2 -38 4 -22 2 15 2 37 0 50 -2 12 -4 0 -4 -28z"/>
<path d="M3717 363 c-11 -10 -8 -83 3 -83 6 0 10 7 10 15 0 8 7 15 15 15 21 0
37 34 23 48 -13 13 -41 16 -51 5z m41 -21 c2 -7 -3 -12 -12 -12 -9 0 -16 7
-16 16 0 17 22 14 28 -4z"/>
<path d="M4127 357 c-9 -25 5 -77 22 -76 10 0 11 2 4 6 -17 6 -17 40 -1 45 9
3 8 9 -4 21 -12 12 -17 13 -21 4z"/>
<path d="M4213 325 c0 -27 2 -38 4 -22 2 15 2 37 0 50 -2 12 -4 0 -4 -28z"/>
<path d="M1111 332 c-14 -26 5 -52 37 -51 21 1 22 2 7 6 -34 8 -41 23 -12 23
29 0 34 9 15 28 -17 17 -36 15 -47 -6z m34 -2 c3 -5 -1 -10 -10 -10 -9 0 -13
5 -10 10 3 6 8 10 10 10 2 0 7 -4 10 -10z"/>
<path d="M1180 313 c0 -18 5 -33 10 -33 6 0 10 10 10 23 0 13 5 28 11 34 9 9
7 12 -10 10 -17 -1 -21 -8 -21 -34z"/>
<path d="M1234 336 c-11 -28 1 -51 26 -53 25 -3 25 -3 3 7 -13 5 -23 13 -23
18 0 14 26 33 33 25 4 -3 7 -1 7 5 0 17 -40 15 -46 -2z"/>
<path d="M1301 332 c-14 -26 5 -52 37 -51 21 1 22 2 7 6 -34 8 -41 23 -12 23
29 0 34 9 15 28 -17 17 -36 15 -47 -6z m34 -2 c3 -5 -1 -10 -10 -10 -9 0 -13
5 -10 10 3 6 8 10 10 10 2 0 7 -4 10 -10z"/>
<path d="M1370 314 c0 -19 5 -34 10 -34 6 0 10 11 10 24 0 38 18 40 29 4 l10
-33 -2 35 c-2 31 -5 35 -29 36 -25 1 -28 -2 -28 -32z"/>
<path d="M1497 343 c-11 -10 -8 -63 3 -63 6 0 10 16 10 35 0 36 -2 40 -13 28z"/>
<path d="M1564 336 c-12 -30 0 -51 31 -53 18 -1 22 1 10 4 -34 9 -41 23 -11
23 21 0 27 4 24 18 -4 22 -46 29 -54 8z m41 -6 c3 -6 -4 -10 -17 -10 -18 0
-20 2 -8 10 19 12 18 12 25 0z"/>
<path d="M3790 335 c-19 -23 -3 -55 28 -54 24 2 24 2 5 6 -31 6 -29 23 2 23
27 0 32 9 13 28 -16 16 -33 15 -48 -3z m35 -5 c3 -5 -1 -10 -10 -10 -9 0 -13
5 -10 10 3 6 8 10 10 10 2 0 7 -4 10 -10z"/>
<path d="M3860 313 c0 -18 5 -33 10 -33 6 0 10 10 10 23 0 13 5 28 11 34 9 9
7 12 -10 10 -17 -1 -21 -8 -21 -34z"/>
<path d="M3914 336 c-11 -28 1 -51 26 -53 25 -3 25 -3 3 7 -13 5 -23 13 -23
18 0 14 26 33 33 25 4 -3 7 -1 7 5 0 17 -40 15 -46 -2z"/>
<path d="M3980 335 c-19 -23 -3 -55 28 -54 24 2 24 2 5 6 -31 6 -29 23 2 23
27 0 32 9 13 28 -16 16 -33 15 -48 -3z m35 -5 c3 -5 -1 -10 -10 -10 -9 0 -13
5 -10 10 3 6 8 10 10 10 2 0 7 -4 10 -10z"/>
<path d="M4051 310 c1 -30 2 -32 8 -11 9 34 31 39 31 7 0 -14 5 -26 10 -26 12
0 13 40 2 57 -4 7 -18 11 -30 10 -18 -1 -22 -7 -21 -37z"/>
<path d="M4177 343 c-11 -10 -8 -63 3 -63 6 0 10 16 10 35 0 36 -2 40 -13 28z"/>
<path d="M4241 332 c-14 -26 5 -52 37 -51 21 1 22 2 7 6 -34 8 -41 23 -12 23
29 0 34 9 15 28 -17 17 -36 15 -47 -6z m34 -2 c3 -5 -1 -10 -10 -10 -9 0 -13
5 -10 10 3 6 8 10 10 10 2 0 7 -4 10 -10z"/>
<path d="M1767 283 c-4 -3 -7 -52 -7 -109 0 -84 3 -103 16 -108 9 -3 377 -6
819 -6 717 0 805 2 819 16 20 19 23 183 4 202 -9 9 -207 12 -828 12 -449 0
-820 -3 -823 -7z m1641 -105 l3 -98 -821 0 -820 0 0 93 c0 52 3 97 7 100 3 4
371 6 817 5 l811 -3 3 -97z"/>
<path d="M2160 185 c0 -43 1 -45 30 -45 23 0 33 6 39 23 15 39 -5 67 -46 67
-21 0 -23 -5 -23 -45z m46 21 c15 -12 17 -18 8 -33 -6 -10 -19 -19 -28 -21
-12 -3 -16 4 -16 32 0 39 6 43 36 22z"/>
<path d="M3020 185 c0 -25 5 -45 10 -45 6 0 10 10 10 22 0 21 0 21 14 2 14
-18 15 -18 22 11 l8 30 7 -35 c6 -33 6 -33 8 13 1 52 -12 62 -27 20 l-10 -28
-11 28 c-16 41 -31 33 -31 -18z"/>
<path d="M3240 220 c0 -5 -6 -10 -14 -10 -21 0 -38 -27 -31 -50 4 -13 15 -20
31 -20 22 0 24 4 24 45 0 25 -2 45 -5 45 -3 0 -5 -4 -5 -10z m0 -51 c0 -10 -7
-19 -15 -19 -15 0 -21 31 -9 43 11 10 24 -3 24 -24z"/>
<path d="M3353 185 c0 -27 2 -38 4 -22 2 15 2 37 0 50 -2 12 -4 0 -4 -28z"/>
<path d="M2322 183 c2 -29 8 -38 23 -40 11 -2 14 0 8 3 -16 7 -17 40 -2 50 8
4 7 9 -2 15 -25 16 -30 10 -27 -28z"/>
<path d="M2250 200 c0 -5 6 -7 14 -4 8 3 17 1 21 -5 3 -7 -2 -11 -14 -11 -14
0 -21 -6 -21 -20 0 -16 7 -20 30 -20 32 0 38 16 20 51 -11 19 -50 27 -50 9z
m35 -40 c-3 -5 -10 -10 -16 -10 -5 0 -9 5 -9 10 0 6 7 10 16 10 8 0 12 -4 9
-10z"/>
<path d="M2370 200 c0 -5 6 -7 14 -4 8 3 17 1 21 -5 3 -7 -2 -11 -14 -11 -14
0 -21 -6 -21 -20 0 -16 7 -20 30 -20 32 0 38 16 20 51 -11 19 -50 27 -50 9z
m35 -40 c-3 -5 -10 -10 -16 -10 -5 0 -9 5 -9 10 0 6 7 10 16 10 8 0 12 -4 9
-10z"/>
<path d="M3124 196 c-11 -29 0 -51 26 -51 21 0 25 5 25 30 0 24 -5 31 -23 33
-13 2 -24 -3 -28 -12z m38 -38 c-16 -16 -37 4 -28 28 6 16 8 16 23 1 13 -13
15 -20 5 -29z"/>
<path d="M3274 196 c-12 -30 0 -51 31 -53 18 -1 22 1 10 4 -34 9 -41 23 -11
23 21 0 27 4 24 18 -4 22 -46 29 -54 8z m41 -6 c3 -6 -4 -10 -17 -10 -18 0
-20 2 -8 10 19 12 18 12 25 0z"/>
<path d="M2723 183 c9 -2 25 -2 35 0 9 3 1 5 -18 5 -19 0 -27 -2 -17 -5z"/>
<path d="M2843 183 c9 -2 23 -2 30 0 6 3 -1 5 -18 5 -16 0 -22 -2 -12 -5z"/>
</g>
</svg>
