<?xml version="1.0" standalone="no"?>
<!DOCTYPE svg PUBLIC "-//W3C//DTD SVG 20010904//EN"
 "http://www.w3.org/TR/2001/REC-SVG-20010904/DTD/svg10.dtd">
<svg version="1.0" xmlns="http://www.w3.org/2000/svg"
 width="508.000000pt" height="455.000000pt" viewBox="0 0 508.000000 455.000000"
 preserveAspectRatio="xMidYMid meet">
<metadata>
Created by potrace 1.16, written by Peter Selinger 2001-2019
</metadata>
<g transform="translate(0.000000,455.000000) scale(0.100000,-0.100000)"
fill="#000000" stroke="none">
<path d="M817 4463 c-4 -3 -7 -24 -7 -45 0 -35 2 -38 28 -38 33 0 52 16 52 45
0 12 -5 26 -12 33 -13 13 -50 16 -61 5z m47 -19 c12 -12 13 -20 6 -35 -18 -32
-40 -23 -40 16 0 38 10 44 34 19z"/>
<path d="M1346 4454 c-10 -27 -7 -59 9 -80 14 -17 14 -17 4 12 -6 21 -7 39 0
57 6 15 7 27 2 27 -5 0 -12 -7 -15 -16z"/>
<path d="M1386 4455 c-8 -23 3 -43 27 -48 21 -3 21 -4 -3 -15 -25 -11 -25 -11
-2 -11 30 -1 49 38 33 68 -13 24 -46 28 -55 6z m36 -27 c-15 -15 -26 -4 -18
18 5 13 9 15 18 6 9 -9 9 -15 0 -24z"/>
<path d="M1500 4459 c0 -5 5 -7 10 -4 6 3 15 3 22 -1 7 -5 5 -11 -7 -21 -17
-12 -17 -13 -2 -13 25 0 21 -28 -5 -33 -16 -4 -13 -5 7 -4 28 2 30 5 28 37 0
19 -1 38 -2 43 -2 11 -51 8 -51 -4z"/>
<path d="M1757 4457 c-9 -25 5 -77 22 -76 10 0 11 2 4 6 -17 6 -17 40 -1 45 9
3 8 9 -4 21 -12 12 -17 13 -21 4z"/>
<path d="M1814 4415 c0 -30 4 -49 8 -42 4 7 8 26 8 42 0 17 -4 35 -8 42 -4 7
-8 -12 -8 -42z"/>
<path d="M3373 4425 c0 -27 2 -40 4 -27 6 29 43 31 43 2 0 -11 5 -20 10 -20 6
0 10 20 10 45 0 25 -4 45 -10 45 -5 0 -10 -9 -10 -20 0 -29 -37 -27 -43 3 -2
12 -4 0 -4 -28z"/>
<path d="M3572 4425 c0 -38 2 -43 7 -21 8 38 25 40 29 4 4 -34 22 -37 22 -4 0
26 -23 51 -39 42 -5 -4 -12 2 -14 11 -3 10 -5 -4 -5 -32z"/>
<path d="M3770 4425 c0 -25 5 -45 10 -45 6 0 10 11 10 24 0 38 18 40 29 4 l9
-33 1 33 c1 26 -4 35 -19 39 -11 3 -20 9 -20 14 0 5 -4 9 -10 9 -5 0 -10 -20
-10 -45z"/>
<path d="M3990 4425 c0 -25 5 -45 10 -45 6 0 10 20 10 45 0 25 -4 45 -10 45
-5 0 -10 -20 -10 -45z"/>
<path d="M4077 4463 c-9 -9 -8 -75 1 -90 4 -7 8 12 8 42 0 30 -1 55 -1 55 -1
0 -5 -3 -8 -7z"/>
<path d="M4120 4445 c0 -14 3 -24 8 -24 39 6 40 -21 1 -33 -22 -6 -21 -7 6 -5
23 2 31 7 33 25 3 17 -2 25 -17 29 -26 7 -27 20 -3 26 13 4 11 5 -5 6 -18 1
-23 -4 -23 -24z"/>
<path d="M4190 4460 c0 -5 6 -7 14 -4 24 9 29 -17 7 -40 -29 -30 -27 -36 12
-35 23 1 26 3 9 6 l-22 4 19 25 c11 14 17 32 14 40 -6 16 -53 20 -53 4z"/>
<path d="M4318 4463 c24 -5 27 -15 11 -44 -6 -11 -8 -25 -6 -32 4 -11 37 55
37 74 0 5 -15 8 -32 8 -24 -1 -27 -3 -10 -6z"/>
<path d="M4614 4414 c0 -30 3 -48 8 -41 10 15 10 84 1 90 -5 3 -8 -19 -9 -49z"/>
<path d="M103 4449 c-6 -6 -9 -17 -6 -24 2 -7 -4 -15 -14 -18 -10 -3 5 -5 32
-5 34 0 42 2 26 7 -34 9 -39 31 -7 31 14 0 26 5 26 10 0 14 -43 13 -57 -1z"/>
<path d="M1252 4423 c2 -29 8 -38 23 -40 11 -2 14 0 8 3 -7 3 -13 14 -13 24 0
10 6 21 13 23 9 4 8 8 -3 16 -25 18 -31 12 -28 -26z"/>
<path d="M2783 4449 c-6 -6 -9 -17 -6 -24 2 -7 -4 -15 -14 -18 -10 -3 5 -5 32
-5 34 0 42 2 26 7 -34 9 -39 31 -7 31 14 0 26 5 26 10 0 14 -43 13 -57 -1z"/>
<path d="M4562 4423 c2 -29 8 -38 23 -40 11 -2 14 0 8 3 -16 7 -17 40 -2 50 8
4 7 9 -2 15 -25 16 -30 10 -27 -28z"/>
<path d="M911 4411 c1 -35 2 -35 8 -7 8 39 29 45 33 9 2 -22 8 -28 28 -28 21
0 25 5 25 30 0 29 -2 30 -47 31 l-48 0 1 -35z m86 -5 c-4 -9 -11 -16 -17 -16
-11 0 -14 33 -3 44 11 10 26 -11 20 -28z"/>
<path d="M1031 4396 c1 -28 3 -43 6 -33 2 9 13 17 24 17 43 0 33 64 -10 66
-19 1 -21 -4 -20 -50z m39 13 c0 -20 -15 -26 -25 -9 -9 15 3 43 15 35 5 -3 10
-15 10 -26z"/>
<path d="M1112 4441 c-8 -4 -12 -19 -10 -32 2 -18 9 -24 28 -24 21 0 25 5 25
30 0 31 -19 42 -43 26z m35 -35 c-4 -9 -11 -16 -17 -16 -11 0 -14 33 -3 44 11
10 26 -11 20 -28z"/>
<path d="M1182 4418 c-2 -36 0 -38 28 -38 27 0 30 3 30 29 0 38 -18 50 -22 14
-5 -39 -26 -40 -31 -1 l-4 33 -1 -37z"/>
<path d="M1617 4443 c-11 -10 -8 -83 3 -83 6 0 10 5 10 10 0 6 9 10 19 10 24
0 34 25 21 51 -10 19 -40 26 -53 12z m43 -34 c0 -10 -7 -19 -15 -19 -15 0 -21
31 -9 43 11 10 24 -3 24 -24z"/>
<path d="M1694 4436 c-11 -28 1 -51 26 -53 25 -3 25 -3 3 7 -13 5 -23 13 -23
18 0 14 26 33 33 25 4 -3 7 -1 7 5 0 17 -40 15 -46 -2z"/>
<path d="M3463 4415 c0 -22 2 -30 4 -17 2 12 2 30 0 40 -3 9 -5 -1 -4 -23z"/>
<path d="M3497 4443 c-4 -3 -7 -17 -7 -31 0 -16 7 -26 23 -30 22 -6 22 -6 -3
-13 -22 -5 -23 -7 -7 -14 27 -11 47 13 47 56 0 34 -3 39 -23 39 -13 0 -27 -3
-30 -7z m33 -34 c0 -20 -15 -26 -25 -9 -9 15 3 43 15 35 5 -3 10 -15 10 -26z"/>
<path d="M3644 4439 c-4 -7 3 -20 17 -29 l23 -18 -25 -5 c-23 -4 -23 -4 4 -6
30 -1 39 25 12 35 -8 4 -15 11 -15 16 0 6 7 8 15 4 8 -3 15 -1 15 4 0 14 -37
12 -46 -1z"/>
<path d="M3710 4435 c-19 -23 -3 -55 28 -54 25 2 25 2 4 6 -17 3 -22 10 -20
26 2 14 10 21 20 21 10 -1 15 2 12 7 -8 14 -30 11 -44 -6z"/>
<path d="M3852 4434 c-15 -27 -3 -54 24 -54 28 0 42 25 27 49 -14 23 -40 25
-51 5z m38 -25 c0 -20 -15 -26 -25 -9 -9 15 3 43 15 35 5 -3 10 -15 10 -26z"/>
<path d="M3924 4436 c-11 -29 0 -51 26 -51 21 0 25 5 25 30 0 24 -5 31 -23 33
-13 2 -24 -3 -28 -12z m38 -38 c-16 -16 -37 4 -28 28 6 16 8 16 23 1 13 -13
15 -19 5 -29z"/>
<path d="M4421 4396 c1 -28 3 -43 6 -34 2 9 14 18 26 20 17 2 22 10 22 33 0
26 -4 30 -27 31 -27 1 -28 -1 -27 -50z m45 23 c10 -17 -13 -36 -27 -22 -12 12
-4 33 11 33 5 0 12 -5 16 -11z"/>
<path d="M4500 4435 c-20 -24 -8 -50 25 -52 21 -1 23 0 7 4 -17 3 -22 10 -20
26 2 12 9 21 16 20 6 -2 12 2 12 7 0 15 -26 12 -40 -5z"/>
<path d="M1465 4390 c-3 -5 -1 -10 4 -10 6 0 11 5 11 10 0 6 -2 10 -4 10 -3 0
-8 -4 -11 -10z"/>
<path d="M4270 4390 c0 -5 5 -10 11 -10 5 0 7 5 4 10 -3 6 -8 10 -11 10 -2 0
-4 -4 -4 -10z"/>
<path d="M245 4380 c-5 -9 -1 -10 13 -6 32 10 35 -9 6 -43 l-26 -31 34 1 c18
1 25 3 15 6 -17 4 -17 6 -2 23 9 10 15 27 13 37 -4 21 -43 30 -53 13z"/>
<path d="M330 4365 c0 -14 3 -24 8 -24 39 6 40 -21 1 -33 -22 -6 -21 -7 6 -5
23 2 31 7 33 25 3 17 -2 25 -17 29 -26 7 -27 20 -3 26 13 4 11 5 -5 6 -18 1
-23 -4 -23 -24z"/>
<path d="M2925 4380 c-5 -9 -1 -10 13 -6 32 10 35 -9 6 -43 l-26 -31 34 1 c18
1 25 3 15 6 -17 4 -17 6 -2 23 9 10 15 27 13 37 -4 21 -43 30 -53 13z"/>
<path d="M3003 4375 c-6 -17 2 -30 20 -30 23 0 19 -33 -5 -38 -16 -4 -14 -5 7
-4 23 2 31 7 33 25 3 17 -2 25 -17 29 -26 7 -27 20 -3 26 12 4 11 5 -6 6 -12
0 -25 -6 -29 -14z"/>
<path d="M87 4366 c-7 -18 7 -23 45 -18 18 3 28 10 27 21 0 10 -2 11 -6 4 -6
-15 -43 -17 -43 -3 0 15 -17 12 -23 -4z"/>
<path d="M2767 4366 c-7 -18 7 -23 45 -18 18 3 28 10 27 21 0 10 -2 11 -6 4
-6 -15 -43 -17 -43 -3 0 15 -17 12 -23 -4z"/>
<path d="M420 3640 l0 -700 900 0 900 0 0 700 0 700 -900 0 -900 0 0 -700z
m361 663 c1 -17 2 -17 6 0 4 15 21 17 179 17 159 0 174 -2 175 -17 1 -17 2
-17 6 0 4 15 21 17 179 17 159 0 174 -2 175 -17 1 -17 2 -17 6 0 4 15 21 17
174 17 154 0 169 -2 170 -17 1 -17 2 -17 6 0 4 15 21 17 179 17 l174 0 0 -130
c0 -117 -2 -130 -17 -131 -17 -1 -17 -2 0 -6 15 -4 17 -19 17 -139 0 -120 -2
-134 -17 -135 -17 -1 -17 -2 0 -6 15 -4 17 -19 17 -134 0 -116 -2 -129 -17
-130 -17 -1 -17 -2 0 -6 15 -4 17 -19 17 -139 0 -120 -2 -134 -17 -135 -17 -1
-17 -2 0 -6 15 -4 17 -19 17 -134 l0 -129 -175 0 c-160 0 -175 2 -176 18 -1
16 -2 16 -6 0 -4 -16 -20 -18 -149 -18 -104 0 -143 3 -138 11 4 8 -3 9 -25 4
-20 -4 -31 -3 -31 4 0 6 -4 11 -10 11 -5 0 -7 -7 -4 -15 5 -13 -18 -15 -170
-15 -161 0 -176 2 -177 18 -1 16 -2 16 -6 0 -4 -16 -21 -18 -179 -18 -159 0
-174 2 -175 18 -1 16 -2 16 -6 0 -4 -16 -21 -18 -174 -18 l-169 0 0 130 c0
117 2 130 18 131 16 1 16 2 0 6 -16 4 -18 19 -18 139 0 120 2 134 18 135 16 1
16 2 0 6 -16 4 -18 19 -18 134 0 116 2 129 18 130 16 1 16 2 0 6 -16 4 -18 19
-18 139 0 120 2 134 18 135 16 1 16 2 0 6 -16 4 -18 19 -18 134 l0 129 170 0
c155 0 170 -2 171 -17z"/>
<path d="M1751 3049 c-13 -5 -21 -12 -18 -15 9 -9 57 5 57 16 0 12 -7 12 -39
-1z"/>
<path d="M1641 3009 c-13 -5 -22 -12 -19 -15 8 -8 58 7 58 17 0 11 -8 11 -39
-2z"/>
<path d="M3100 3640 l0 -700 900 0 900 0 0 700 0 700 -900 0 -900 0 0 -700z
m361 663 c1 -17 2 -17 6 0 4 15 21 17 179 17 159 0 174 -2 175 -17 1 -17 2
-17 6 0 4 15 21 17 179 17 159 0 174 -2 175 -17 1 -17 2 -17 6 0 4 15 21 17
174 17 154 0 169 -2 170 -17 1 -17 2 -17 6 0 4 15 21 17 179 17 l174 0 0 -130
c0 -117 -2 -130 -17 -131 -17 -1 -17 -2 0 -6 15 -4 17 -19 17 -139 0 -120 -2
-134 -17 -135 -17 -1 -17 -2 0 -6 15 -4 17 -19 17 -134 0 -116 -2 -129 -17
-130 -17 -1 -17 -2 0 -6 15 -4 17 -19 17 -139 0 -120 -2 -134 -17 -135 -17 -1
-17 -2 0 -6 15 -4 17 -19 17 -134 l0 -129 -175 0 c-160 0 -175 2 -176 18 -1
16 -2 16 -6 0 -4 -16 -21 -18 -174 -18 -154 0 -169 2 -170 18 -1 16 -2 16 -6
0 -4 -16 -21 -18 -179 -18 -159 0 -174 2 -175 18 -1 16 -2 16 -6 0 -4 -16 -17
-18 -94 -18 -65 0 -88 3 -86 12 2 14 -54 12 -63 -2 -3 -5 -29 -7 -58 -7 -38 2
-52 6 -53 17 -1 11 -3 10 -6 -2 -4 -16 -21 -18 -174 -18 l-169 0 0 130 c0 117
2 130 18 131 16 1 16 2 0 6 -16 4 -18 19 -18 139 0 120 2 134 18 135 16 1 16
2 0 6 -16 4 -18 19 -18 134 0 116 2 129 18 130 16 1 16 2 0 6 -16 4 -18 19
-18 139 0 120 2 134 18 135 16 1 16 2 0 6 -16 4 -18 19 -18 134 l0 129 170 0
c155 0 170 -2 171 -17z"/>
<path d="M4486 3528 c-21 -30 -7 -47 16 -19 10 13 18 27 18 32 0 16 -19 9 -34
-13z"/>
<path d="M4407 3435 c-10 -14 -14 -25 -9 -25 10 0 42 33 42 43 0 14 -16 5 -33
-18z"/>
<path d="M4330 3345 c-13 -14 -19 -25 -13 -25 12 0 48 38 41 45 -2 3 -15 -6
-28 -20z"/>
<path d="M4251 3256 c-14 -15 -18 -26 -12 -30 10 -7 48 41 39 49 -2 3 -15 -6
-27 -19z"/>
<path d="M4173 3171 c-30 -25 -29 -33 2 -19 14 6 25 17 25 25 0 16 0 16 -27
-6z"/>
<path d="M4061 3119 c-13 -5 -22 -12 -19 -15 8 -8 58 7 58 17 0 11 -8 11 -39
-2z"/>
<path d="M3944 3065 c-15 -11 -16 -14 -3 -15 8 0 24 7 35 15 15 11 16 14 3 15
-8 0 -24 -7 -35 -15z"/>
<path d="M3838 3023 c-10 -2 -18 -9 -18 -14 0 -11 39 -2 55 12 9 9 -6 10 -37
2z"/>
<path d="M3705 2990 c-3 -6 5 -10 19 -10 14 0 28 5 31 10 3 6 -5 10 -19 10
-14 0 -28 -4 -31 -10z"/>
<path d="M93 4323 c15 -2 37 -2 50 0 12 2 0 4 -28 4 -27 0 -38 -2 -22 -4z"/>
<path d="M2773 4323 c15 -2 37 -2 50 0 12 2 0 4 -28 4 -27 0 -38 -2 -22 -4z"/>
<path d="M106 4294 c-18 -18 -20 -30 -7 -39 5 -3 12 5 14 17 l4 23 2 -22 c1
-16 7 -23 20 -23 25 0 32 11 24 38 -6 26 -35 29 -57 6z m44 -19 c0 -8 -4 -15
-10 -15 -5 0 -10 7 -10 15 0 8 5 15 10 15 6 0 10 -7 10 -15z"/>
<path d="M2786 4294 c-18 -18 -20 -30 -7 -39 5 -3 12 5 14 17 l4 23 2 -22 c1
-16 7 -23 20 -23 25 0 32 11 24 38 -6 26 -35 29 -57 6z m44 -19 c0 -8 -4 -15
-10 -15 -5 0 -10 7 -10 15 0 8 5 15 10 15 6 0 10 -7 10 -15z"/>
<path d="M101 4216 c-22 -26 10 -63 43 -50 20 8 28 33 16 52 -8 14 -9 12 -10
-10 0 -16 -4 -28 -10 -28 -5 0 -10 11 -10 25 0 28 -12 32 -29 11z m16 -28 c-3
-8 -6 -5 -6 6 -1 11 2 17 5 13 3 -3 4 -12 1 -19z"/>
<path d="M2781 4216 c-22 -26 10 -63 43 -50 20 8 28 33 16 52 -8 14 -9 12 -10
-10 0 -16 -4 -28 -10 -28 -5 0 -10 11 -10 25 0 28 -12 32 -29 11z m16 -28 c-3
-8 -6 -5 -6 6 -1 11 2 17 5 13 3 -3 4 -12 1 -19z"/>
<path d="M110 4139 c21 -10 22 -13 8 -16 -21 -5 -24 -19 -5 -26 9 -4 8 -8 -3
-16 -13 -9 -13 -11 2 -11 23 0 48 11 48 21 0 5 -8 9 -17 9 -16 1 -16 2 1 15
24 18 19 23 -25 30 -32 5 -33 5 -9 -6z"/>
<path d="M2790 4139 c21 -10 22 -13 8 -16 -21 -5 -24 -19 -5 -26 9 -4 8 -8 -3
-16 -13 -9 -13 -11 2 -11 23 0 48 11 48 21 0 5 -8 9 -17 9 -16 1 -16 2 1 15
24 18 19 23 -25 30 -32 5 -33 5 -9 -6z"/>
<path d="M245 4100 c-5 -9 -1 -10 13 -6 32 10 35 -9 6 -43 l-26 -31 34 1 c18
1 25 3 15 6 -17 4 -17 6 -2 23 9 10 15 27 13 37 -4 21 -43 30 -53 13z"/>
<path d="M332 4098 c-24 -24 -11 -78 19 -78 26 0 41 33 29 64 -10 28 -29 33
-48 14z m36 -39 c-5 -35 -28 -36 -28 -1 0 16 3 32 7 36 11 11 25 -10 21 -35z"/>
<path d="M2925 4100 c-5 -9 -1 -10 13 -6 32 10 35 -9 6 -43 l-26 -31 34 1 c18
1 25 3 15 6 -17 4 -17 6 -2 23 9 10 15 27 13 37 -4 21 -43 30 -53 13z"/>
<path d="M3004 4097 c-3 -9 -4 -28 -2 -44 2 -22 8 -28 28 -28 23 0 25 4 25 40
0 34 -3 40 -23 43 -13 2 -24 -3 -28 -11z m42 -23 c4 -14 2 -30 -5 -37 -12 -12
-18 -9 -21 13 -7 50 14 70 26 24z"/>
<path d="M70 4018 c0 -23 25 -35 61 -30 35 5 39 21 4 24 -14 0 -31 1 -37 2 -7
1 -16 6 -20 11 -5 6 -8 3 -8 -7z"/>
<path d="M2750 4018 c0 -23 25 -35 61 -30 35 5 39 21 4 24 -14 0 -31 1 -37 2
-7 1 -16 6 -20 11 -5 6 -8 3 -8 -7z"/>
<path d="M102 3968 c-16 -16 -15 -23 4 -42 19 -20 29 -20 48 0 12 12 13 20 6
35 -12 21 -40 25 -58 7z m48 -23 c0 -8 -9 -15 -20 -15 -11 0 -20 7 -20 15 0 8
9 15 20 15 11 0 20 -7 20 -15z"/>
<path d="M2782 3968 c-16 -16 -15 -23 4 -42 19 -20 29 -20 48 0 12 12 13 20 6
35 -12 21 -40 25 -58 7z m48 -23 c0 -8 -9 -15 -20 -15 -11 0 -20 7 -20 15 0 8
9 15 20 15 11 0 20 -7 20 -15z"/>
<path d="M101 3856 c-22 -26 10 -63 43 -50 20 8 28 33 16 52 -8 14 -9 12 -10
-10 0 -16 -4 -28 -10 -28 -5 0 -10 11 -10 25 0 28 -12 32 -29 11z m16 -28 c-3
-8 -6 -5 -6 6 -1 11 2 17 5 13 3 -3 4 -12 1 -19z"/>
<path d="M2781 3856 c-22 -26 10 -63 43 -50 20 8 28 33 16 52 -8 14 -9 12 -10
-10 0 -16 -4 -28 -10 -28 -5 0 -10 11 -10 25 0 28 -12 32 -29 11z m16 -28 c-3
-8 -6 -5 -6 6 -1 11 2 17 5 13 3 -3 4 -12 1 -19z"/>
<path d="M250 3831 c0 -6 5 -11 10 -11 15 0 12 -57 -2 -63 -7 -3 3 -6 22 -6
19 0 30 3 23 7 -6 4 -13 23 -15 42 -2 24 -9 36 -20 38 -10 2 -18 -1 -18 -7z"/>
<path d="M330 3815 c0 -14 3 -24 8 -24 39 6 40 -21 1 -33 -22 -6 -21 -7 6 -5
23 2 31 7 33 25 3 17 -2 25 -17 29 -26 7 -27 20 -3 26 13 4 11 5 -5 6 -18 1
-23 -4 -23 -24z"/>
<path d="M2930 3831 c0 -6 5 -11 10 -11 15 0 12 -57 -2 -63 -7 -3 3 -6 22 -6
19 0 30 3 23 7 -6 4 -13 23 -15 42 -2 24 -9 36 -20 38 -10 2 -18 -1 -18 -7z"/>
<path d="M3003 3825 c-6 -17 2 -30 20 -30 23 0 19 -33 -5 -38 -16 -4 -14 -5 7
-4 23 2 31 7 33 25 3 17 -2 25 -17 29 -26 7 -27 20 -3 26 12 4 11 5 -6 6 -12
0 -25 -6 -29 -14z"/>
<path d="M93 3780 c1 -16 8 -20 37 -19 24 1 28 3 12 6 -13 3 -26 11 -29 19 -8
21 -22 17 -20 -6z"/>
<path d="M2773 3780 c1 -16 8 -20 37 -19 24 1 28 3 12 6 -13 3 -26 11 -29 19
-8 21 -22 17 -20 -6z"/>
<path d="M106 3734 c-18 -18 -20 -30 -7 -39 5 -3 12 5 14 17 l4 23 2 -22 c1
-16 7 -23 20 -23 25 0 32 11 24 38 -6 26 -35 29 -57 6z m44 -19 c0 -8 -4 -15
-10 -15 -5 0 -10 7 -10 15 0 8 5 15 10 15 6 0 10 -7 10 -15z"/>
<path d="M2786 3734 c-18 -18 -20 -30 -7 -39 5 -3 12 5 14 17 l4 23 2 -22 c1
-16 7 -23 20 -23 25 0 32 11 24 38 -6 26 -35 29 -57 6z m44 -19 c0 -8 -4 -15
-10 -15 -5 0 -10 7 -10 15 0 8 5 15 10 15 6 0 10 -7 10 -15z"/>
<path d="M103 3659 c-6 -6 -9 -17 -6 -24 2 -7 -4 -15 -14 -18 -10 -3 5 -5 32
-5 34 0 42 2 26 7 -34 9 -39 31 -7 31 14 0 26 5 26 10 0 14 -43 13 -57 -1z"/>
<path d="M2783 3659 c-6 -6 -9 -17 -6 -24 2 -7 -4 -15 -14 -18 -10 -3 5 -5 32
-5 34 0 42 2 26 7 -34 9 -39 31 -7 31 14 0 26 5 26 10 0 14 -43 13 -57 -1z"/>
<path d="M95 3587 c-4 -10 -2 -24 6 -33 11 -14 15 -13 31 8 l18 23 0 -25 c1
-21 2 -22 10 -8 12 20 3 48 -15 48 -8 0 -17 -10 -21 -22 l-8 -23 -6 25 c-6 22
-8 23 -15 7z"/>
<path d="M2775 3587 c-4 -10 -2 -24 6 -33 11 -14 15 -13 31 8 l18 23 0 -25 c1
-21 2 -22 10 -8 12 20 3 48 -15 48 -8 0 -17 -10 -21 -22 l-8 -23 -6 25 c-6 22
-8 23 -15 7z"/>
<path d="M250 3551 c0 -6 5 -11 10 -11 15 0 12 -57 -2 -63 -7 -3 3 -6 22 -6
19 0 30 3 23 7 -6 4 -13 23 -15 42 -2 24 -9 36 -20 38 -10 2 -18 -1 -18 -7z"/>
<path d="M332 3548 c-24 -24 -11 -78 19 -78 26 0 41 33 29 64 -10 28 -29 33
-48 14z m36 -39 c-5 -35 -28 -36 -28 -1 0 16 3 32 7 36 11 11 25 -10 21 -35z"/>
<path d="M2930 3551 c0 -6 5 -11 10 -11 15 0 12 -57 -2 -63 -7 -3 3 -6 22 -6
19 0 30 3 23 7 -6 4 -13 23 -15 42 -2 24 -9 36 -20 38 -10 2 -18 -1 -18 -7z"/>
<path d="M3004 3547 c-3 -9 -4 -28 -2 -44 2 -22 8 -28 28 -28 23 0 25 4 25 40
0 34 -3 40 -23 43 -13 2 -24 -3 -28 -11z m42 -23 c4 -14 2 -30 -5 -37 -12 -12
-18 -9 -21 13 -7 50 14 70 26 24z"/>
<path d="M101 3486 c-22 -26 10 -63 43 -50 20 8 28 33 16 52 -8 14 -9 12 -10
-10 0 -16 -4 -28 -10 -28 -5 0 -10 11 -10 25 0 28 -12 32 -29 11z m16 -28 c-3
-8 -6 -5 -6 6 -1 11 2 17 5 13 3 -3 4 -12 1 -19z"/>
<path d="M2781 3486 c-22 -26 10 -63 43 -50 20 8 28 33 16 52 -8 14 -9 12 -10
-10 0 -16 -4 -28 -10 -28 -5 0 -10 11 -10 25 0 28 -12 32 -29 11z m16 -28 c-3
-8 -6 -5 -6 6 -1 11 2 17 5 13 3 -3 4 -12 1 -19z"/>
<path d="M100 3421 c0 -4 10 -12 23 -18 l22 -10 -22 -7 c-13 -4 -23 -11 -23
-16 0 -4 14 -3 30 3 38 15 38 32 0 46 -16 5 -30 6 -30 2z"/>
<path d="M2780 3421 c0 -4 10 -12 23 -18 l22 -10 -22 -7 c-13 -4 -23 -11 -23
-16 0 -4 14 -3 30 3 17 6 30 17 30 23 0 7 -13 17 -30 23 -16 5 -30 6 -30 2z"/>
<path d="M93 3333 c15 -2 37 -2 50 0 12 2 0 4 -28 4 -27 0 -38 -2 -22 -4z"/>
<path d="M2773 3333 c15 -2 37 -2 50 0 12 2 0 4 -28 4 -27 0 -38 -2 -22 -4z"/>
<path d="M87 3306 c-7 -18 7 -23 45 -18 18 3 28 10 27 21 0 10 -2 11 -6 4 -6
-15 -43 -17 -43 -3 0 15 -17 12 -23 -4z"/>
<path d="M2767 3306 c-7 -18 7 -23 45 -18 18 3 28 10 27 21 0 10 -2 11 -6 4
-6 -15 -43 -17 -43 -3 0 15 -17 12 -23 -4z"/>
<path d="M330 3255 c0 -14 3 -24 8 -24 39 6 40 -21 1 -33 -22 -6 -21 -7 6 -5
23 2 31 7 33 25 3 17 -2 25 -17 29 -26 7 -27 20 -3 26 13 4 11 5 -5 6 -18 1
-23 -4 -23 -24z"/>
<path d="M3003 3265 c-6 -17 2 -30 20 -30 23 0 19 -33 -5 -38 -16 -4 -14 -5 7
-4 23 2 31 7 33 25 3 17 -2 25 -17 29 -26 7 -27 20 -3 26 12 4 11 5 -6 6 -12
0 -25 -6 -29 -14z"/>
<path d="M106 3254 c-18 -18 -20 -30 -7 -39 5 -3 12 5 14 17 l4 23 2 -22 c1
-16 7 -23 20 -23 25 0 32 11 24 38 -6 26 -35 29 -57 6z m44 -19 c0 -8 -4 -15
-10 -15 -5 0 -10 7 -10 15 0 8 5 15 10 15 6 0 10 -7 10 -15z"/>
<path d="M2786 3254 c-18 -18 -20 -30 -7 -39 5 -3 12 5 14 17 l4 23 2 -22 c1
-16 7 -23 20 -23 25 0 32 11 24 38 -6 26 -35 29 -57 6z m44 -19 c0 -8 -4 -15
-10 -15 -5 0 -10 7 -10 15 0 8 5 15 10 15 6 0 10 -7 10 -15z"/>
<path d="M93 3183 c15 -2 37 -2 50 0 12 2 0 4 -28 4 -27 0 -38 -2 -22 -4z"/>
<path d="M2773 3183 c15 -2 37 -2 50 0 12 2 0 4 -28 4 -27 0 -38 -2 -22 -4z"/>
<path d="M100 3150 c0 -5 11 -10 25 -10 38 0 32 -28 -7 -33 l-33 -4 37 -1 c38
-2 48 9 40 41 -5 18 -62 25 -62 7z"/>
<path d="M2780 3150 c0 -5 11 -10 25 -10 38 0 32 -28 -7 -33 l-33 -4 37 -1
c38 -2 48 9 40 41 -5 18 -62 25 -62 7z"/>
<path d="M104 3078 c-4 -6 -8 -29 -9 -50 -2 -37 -1 -38 34 -37 31 1 32 2 12 8
-34 9 -39 31 -7 31 14 0 26 5 26 10 0 6 -11 10 -25 10 -14 0 -25 5 -25 10 0 6
11 10 25 10 14 0 25 5 25 10 0 14 -47 12 -56 -2z"/>
<path d="M2784 3078 c-4 -6 -8 -29 -9 -50 -2 -37 -1 -38 34 -37 31 1 32 2 12
8 -34 9 -39 31 -7 31 14 0 26 5 26 10 0 6 -11 10 -25 10 -14 0 -25 5 -25 10 0
6 11 10 25 10 14 0 25 5 25 10 0 14 -47 12 -56 -2z"/>
<path d="M332 2998 c-24 -24 -11 -78 19 -78 26 0 41 33 29 64 -10 28 -29 33
-48 14z m36 -39 c-5 -35 -28 -36 -28 -1 0 16 3 32 7 36 11 11 25 -10 21 -35z"/>
<path d="M3004 2997 c-3 -9 -4 -28 -2 -44 2 -22 8 -28 28 -28 23 0 25 4 25 40
0 34 -3 40 -23 43 -13 2 -24 -3 -28 -11z m42 -23 c4 -14 2 -30 -5 -37 -12 -12
-18 -9 -21 13 -7 50 14 70 26 24z"/>
<path d="M100 2960 c0 -5 11 -10 25 -10 38 0 32 -28 -7 -33 l-33 -4 37 -1 c38
-2 48 9 40 41 -5 18 -62 25 -62 7z"/>
<path d="M2780 2960 c0 -5 11 -10 25 -10 38 0 32 -28 -7 -33 l-33 -4 37 -1
c38 -2 48 9 40 41 -5 18 -62 25 -62 7z"/>
<path d="M404 2897 c-3 -9 -4 -28 -2 -44 2 -22 8 -28 28 -28 23 0 25 4 25 40
0 34 -3 40 -23 43 -13 2 -24 -3 -28 -11z m42 -23 c4 -14 2 -30 -5 -37 -12 -12
-18 -9 -21 13 -7 50 14 70 26 24z"/>
<path d="M720 2900 c0 -5 6 -7 14 -4 24 9 29 -17 7 -40 -29 -30 -27 -36 12
-35 25 1 27 3 9 6 l-24 5 22 23 c13 14 20 31 17 39 -7 17 -57 22 -57 6z"/>
<path d="M799 2889 c-15 -28 3 -69 31 -69 24 0 36 40 20 69 -14 27 -36 27 -51
0z m41 -30 c0 -20 -4 -29 -12 -27 -15 5 -22 33 -14 54 9 24 26 6 26 -27z"/>
<path d="M1107 2904 c-4 -4 -4 -18 -1 -30 4 -14 2 -24 -5 -24 -6 0 -8 8 -5 18
5 14 3 14 -11 -3 -15 -19 -15 -20 2 -24 10 -2 21 -8 26 -15 12 -19 23 10 19
49 -4 34 -11 42 -25 29z"/>
<path d="M1162 2898 c-24 -24 -11 -78 19 -78 26 0 41 33 29 64 -10 28 -29 33
-48 14z m36 -39 c-5 -35 -28 -36 -28 -1 0 16 3 32 7 36 11 11 25 -10 21 -35z"/>
<path d="M1440 2889 c-18 -32 -4 -69 24 -69 14 0 26 6 29 13 6 18 -11 47 -29
47 -8 0 -12 5 -9 11 4 6 13 8 21 5 8 -3 14 -1 14 4 0 19 -39 10 -50 -11z m40
-45 c0 -8 -7 -14 -15 -14 -15 0 -21 21 -9 33 10 9 24 -2 24 -19z"/>
<path d="M1514 2897 c-3 -9 -4 -28 -2 -44 2 -22 8 -28 28 -28 23 0 25 4 25 40
0 34 -3 40 -23 43 -13 2 -24 -3 -28 -11z m42 -23 c4 -14 2 -30 -5 -37 -12 -12
-18 -9 -21 13 -7 50 14 70 26 24z"/>
<path d="M1796 2898 c-3 -7 -4 -26 -3 -43 2 -25 6 -30 27 -30 23 0 25 4 25 40
0 34 -3 40 -23 43 -12 2 -24 -3 -26 -10z m34 -13 c0 -8 -4 -15 -10 -15 -5 0
-10 7 -10 15 0 8 5 15 10 15 6 0 10 -7 10 -15z m2 -40 c0 -5 -5 -11 -11 -13
-6 -2 -11 4 -11 13 0 9 5 15 11 13 6 -2 11 -8 11 -13z"/>
<path d="M1874 2896 c-12 -31 0 -71 23 -74 25 -4 38 26 29 64 -7 27 -43 34
-52 10z m36 -32 c0 -24 -4 -34 -12 -32 -24 8 -22 68 2 68 5 0 10 -16 10 -36z"/>
<path d="M2127 2874 c4 -25 2 -39 -8 -45 -10 -6 -3 -8 21 -8 19 0 29 3 23 6
-8 2 -13 22 -13 44 0 27 -4 39 -14 39 -11 0 -13 -9 -9 -36z"/>
<path d="M2189 2889 c-15 -28 3 -69 31 -69 24 0 36 40 20 69 -14 27 -36 27
-51 0z m41 -30 c0 -20 -4 -29 -12 -27 -15 5 -22 33 -14 54 9 24 26 6 26 -27z"/>
<path d="M2272 2898 c-24 -24 -11 -78 19 -78 26 0 41 33 29 64 -10 28 -29 33
-48 14z m36 -39 c-5 -35 -28 -36 -28 -1 0 16 3 32 7 36 11 11 25 -10 21 -35z"/>
<path d="M3084 2897 c-3 -9 -4 -28 -2 -44 2 -22 8 -28 28 -28 23 0 25 4 25 40
0 34 -3 40 -23 43 -13 2 -24 -3 -28 -11z m42 -23 c4 -14 2 -30 -5 -37 -12 -12
-18 -9 -21 13 -7 50 14 70 26 24z"/>
<path d="M3400 2900 c0 -5 6 -7 14 -4 24 9 29 -17 7 -40 -29 -30 -27 -36 12
-35 23 1 26 3 9 6 l-22 4 19 25 c11 14 17 32 14 40 -6 16 -53 20 -53 4z"/>
<path d="M3479 2889 c-15 -28 3 -69 31 -69 24 0 36 40 20 69 -14 27 -36 27
-51 0z m41 -30 c0 -20 -4 -29 -12 -27 -15 5 -22 33 -14 54 9 24 26 6 26 -27z"/>
<path d="M3771 2881 c-26 -36 -26 -41 -2 -41 11 0 22 -6 24 -12 10 -23 24 10
19 42 -6 42 -17 45 -41 11z m15 -28 c-10 -10 -19 5 -10 18 6 11 8 11 12 0 2
-7 1 -15 -2 -18z"/>
<path d="M3834 2897 c-3 -9 -4 -28 -2 -44 2 -22 8 -28 28 -28 23 0 25 4 25 40
0 34 -3 40 -23 43 -13 2 -24 -3 -28 -11z m42 -23 c4 -14 2 -30 -5 -37 -12 -12
-18 -9 -21 13 -7 50 14 70 26 24z"/>
<path d="M4120 2889 c-18 -32 -4 -69 24 -69 14 0 26 6 29 13 6 18 -11 47 -29
47 -8 0 -12 5 -9 11 4 6 13 8 21 5 8 -3 14 -1 14 4 0 19 -39 10 -50 -11z m40
-45 c0 -8 -7 -14 -15 -14 -15 0 -21 21 -9 33 10 9 24 -2 24 -19z"/>
<path d="M4194 2896 c-12 -31 0 -71 23 -74 25 -4 38 26 29 64 -7 27 -43 34
-52 10z m36 -32 c0 -24 -4 -34 -12 -32 -24 8 -22 68 2 68 5 0 10 -16 10 -36z"/>
<path d="M4476 2898 c-3 -7 -4 -26 -3 -43 2 -25 6 -30 27 -30 23 0 25 4 25 40
0 34 -3 40 -23 43 -12 2 -24 -3 -26 -10z m34 -13 c0 -8 -4 -15 -10 -15 -5 0
-10 7 -10 15 0 8 5 15 10 15 6 0 10 -7 10 -15z m2 -40 c0 -5 -5 -11 -11 -13
-6 -2 -11 4 -11 13 0 9 5 15 11 13 6 -2 11 -8 11 -13z"/>
<path d="M4549 2889 c-15 -28 3 -69 31 -69 24 0 36 40 20 69 -14 27 -36 27
-51 0z m41 -30 c0 -20 -4 -29 -12 -27 -15 5 -22 33 -14 54 9 24 26 6 26 -27z"/>
<path d="M4795 2900 c-3 -5 -1 -10 4 -10 15 0 14 -57 -1 -63 -7 -3 3 -5 22 -5
19 0 29 2 23 5 -8 2 -13 22 -13 44 0 27 -4 39 -14 39 -8 0 -18 -4 -21 -10z"/>
<path d="M4869 2889 c-15 -28 3 -69 31 -69 24 0 36 40 20 69 -14 27 -36 27
-51 0z m41 -30 c0 -20 -4 -29 -12 -27 -15 5 -22 33 -14 54 9 24 26 6 26 -27z"/>
<path d="M4944 2897 c-3 -9 -4 -28 -2 -44 2 -22 8 -28 28 -28 23 0 25 4 25 40
0 34 -3 40 -23 43 -13 2 -24 -3 -28 -11z m42 -23 c4 -14 2 -30 -5 -37 -12 -12
-18 -9 -21 13 -7 50 14 70 26 24z"/>
<path d="M78 2894 c-29 -28 24 -85 60 -65 24 13 34 35 24 59 -5 13 -8 11 -12
-13 -4 -24 -10 -30 -30 -30 -19 0 -26 6 -30 28 -3 16 -8 25 -12 21z"/>
<path d="M2758 2894 c-29 -28 24 -85 60 -65 24 13 34 35 24 59 -5 13 -8 11
-12 -13 -4 -24 -10 -30 -30 -30 -19 0 -26 6 -30 28 -3 16 -8 25 -12 21z"/>
<path d="M1041 2693 c1 -27 3 -40 6 -30 2 9 10 17 18 17 19 0 36 25 29 44 -3
9 -17 16 -30 16 -22 0 -24 -4 -23 -47z m37 19 c2 -7 -3 -12 -12 -12 -9 0 -16
7 -16 16 0 17 22 14 28 -4z"/>
<path d="M1520 2695 c0 -25 5 -45 10 -45 6 0 10 20 10 45 0 25 -4 45 -10 45
-5 0 -10 -20 -10 -45z"/>
<path d="M3717 2733 c-11 -10 -8 -83 3 -83 6 0 10 7 10 15 0 8 7 15 15 15 21
0 37 34 23 48 -13 13 -41 16 -51 5z m41 -21 c2 -7 -3 -12 -12 -12 -9 0 -16 7
-16 16 0 17 22 14 28 -4z"/>
<path d="M4118 2729 c-2 -6 -2 -26 0 -45 3 -27 8 -34 26 -33 16 1 17 2 4 6
-20 5 -24 39 -6 45 9 3 8 9 -4 21 -10 11 -18 13 -20 6z"/>
<path d="M4203 2695 c0 -27 2 -38 4 -22 2 15 2 37 0 50 -2 12 -4 0 -4 -28z"/>
<path d="M1442 2693 c2 -29 8 -38 23 -40 11 -2 14 0 8 3 -16 7 -17 40 -2 50 8
4 7 9 -2 15 -25 16 -30 10 -27 -28z"/>
<path d="M1111 2706 c-21 -25 -9 -51 24 -53 20 -1 23 0 8 4 -29 6 -30 23 -2
23 14 0 19 5 17 17 -4 23 -31 28 -47 9z m34 -6 c3 -5 -1 -10 -10 -10 -9 0 -13
5 -10 10 3 6 8 10 10 10 2 0 7 -4 10 -10z"/>
<path d="M1181 2680 c1 -21 3 -27 6 -15 3 11 12 28 20 37 14 15 13 17 -6 15
-17 -1 -21 -7 -20 -37z"/>
<path d="M1230 2705 c-20 -24 -8 -50 25 -52 21 -1 23 0 7 4 -17 3 -22 10 -20
26 2 12 9 21 16 20 6 -2 12 2 12 7 0 15 -26 12 -40 -5z"/>
<path d="M1294 2706 c-12 -30 0 -51 31 -53 18 -1 22 1 10 4 -34 9 -41 23 -11
23 21 0 27 4 24 18 -4 22 -46 29 -54 8z m41 -6 c3 -6 -4 -10 -17 -10 -18 0
-20 2 -8 10 19 12 18 12 25 0z"/>
<path d="M1367 2714 c-10 -11 -9 -64 2 -64 5 0 11 11 13 25 4 36 22 36 30 0 6
-29 6 -29 5 5 -2 27 -7 36 -22 38 -12 2 -24 0 -28 -4z"/>
<path d="M1493 2685 c0 -22 2 -30 4 -17 2 12 2 30 0 40 -3 9 -5 -1 -4 -23z"/>
<path d="M1561 2706 c-21 -25 -9 -51 24 -53 20 -1 23 0 8 4 -29 6 -30 23 -2
23 14 0 19 5 17 17 -4 23 -31 28 -47 9z m34 -6 c3 -5 -1 -10 -10 -10 -9 0 -13
5 -10 10 3 6 8 10 10 10 2 0 7 -4 10 -10z"/>
<path d="M3791 2706 c-21 -25 -9 -51 24 -53 20 -1 23 0 8 4 -29 6 -30 23 -2
23 14 0 19 5 17 17 -4 23 -31 28 -47 9z m34 -6 c3 -5 -1 -10 -10 -10 -9 0 -13
5 -10 10 3 6 8 10 10 10 2 0 7 -4 10 -10z"/>
<path d="M3861 2680 c1 -27 3 -29 6 -10 2 14 11 30 20 37 13 10 13 12 -6 10
-17 -1 -21 -7 -20 -37z"/>
<path d="M3910 2705 c-20 -24 -8 -50 25 -52 21 -1 23 0 7 4 -17 3 -22 10 -20
26 2 12 9 21 16 20 6 -2 12 2 12 7 0 15 -26 12 -40 -5z"/>
<path d="M3971 2702 c-14 -26 5 -52 37 -51 21 1 22 2 7 6 -34 8 -41 23 -12 23
29 0 34 9 15 28 -17 17 -36 15 -47 -6z m34 -2 c3 -5 -1 -10 -10 -10 -9 0 -13
5 -10 10 3 6 8 10 10 10 2 0 7 -4 10 -10z"/>
<path d="M4047 2714 c-10 -11 -9 -64 2 -64 5 0 11 11 13 25 4 36 22 36 30 0 6
-29 6 -29 5 5 -2 27 -7 36 -22 38 -12 2 -24 0 -28 -4z"/>
<path d="M4173 2685 c0 -22 2 -30 4 -17 2 12 2 30 0 40 -3 9 -5 -1 -4 -23z"/>
<path d="M4241 2706 c-21 -25 -9 -51 24 -53 20 -1 23 0 8 4 -29 6 -30 23 -2
23 14 0 19 5 17 17 -4 23 -31 28 -47 9z m34 -6 c3 -5 -1 -10 -10 -10 -9 0 -13
5 -10 10 3 6 8 10 10 10 2 0 7 -4 10 -10z"/>
<path d="M862 2388 c-15 -15 -15 -51 0 -66 14 -14 58 -16 58 -4 0 5 -10 8 -22
8 -19 -1 -23 4 -23 29 0 25 4 30 23 29 12 0 22 3 22 8 0 12 -44 10 -58 -4z"/>
<path d="M1013 2355 c0 -27 2 -38 4 -22 2 15 2 37 0 50 -2 12 -4 0 -4 -28z"/>
<path d="M1040 2355 c0 -25 5 -45 10 -45 6 0 10 20 10 45 0 25 -4 45 -10 45
-5 0 -10 -20 -10 -45z"/>
<path d="M1346 2384 c-10 -27 -7 -59 9 -80 14 -17 14 -17 4 12 -6 21 -7 39 0
57 6 15 7 27 2 27 -5 0 -12 -7 -15 -16z"/>
<path d="M1390 2390 c0 -6 5 -8 10 -5 6 3 15 3 22 -1 7 -5 5 -11 -7 -21 -17
-12 -17 -13 -2 -13 28 0 19 -28 -10 -33 -26 -4 -25 -4 5 -6 33 -1 33 -1 30 42
-2 35 -7 43 -25 45 -13 2 -23 -2 -23 -8z"/>
<path d="M1466 2388 c-3 -7 -4 -26 -3 -43 2 -25 6 -30 27 -30 23 0 25 4 25 40
0 34 -3 40 -23 43 -12 2 -24 -3 -26 -10z m34 -13 c0 -8 -4 -15 -10 -15 -5 0
-10 7 -10 15 0 8 5 15 10 15 6 0 10 -7 10 -15z m2 -40 c0 -5 -5 -11 -11 -13
-6 -2 -11 4 -11 13 0 9 5 15 11 13 6 -2 11 -8 11 -13z"/>
<path d="M1718 2389 c-2 -6 -2 -26 0 -45 3 -27 8 -34 26 -33 16 1 17 2 4 6
-20 5 -24 39 -6 45 9 3 8 9 -4 21 -10 11 -18 13 -20 6z"/>
<path d="M1774 2344 c0 -30 3 -48 8 -41 10 15 10 84 1 90 -5 3 -8 -19 -9 -49z"/>
<path d="M3701 2353 c1 -27 3 -41 5 -33 3 8 15 20 29 26 21 10 24 9 27 -10 2
-15 10 -21 28 -21 21 0 25 5 25 30 0 26 -3 30 -29 30 -16 0 -31 6 -33 13 -3 6
-16 12 -29 12 -22 0 -24 -4 -23 -47z m37 19 c2 -7 -3 -12 -12 -12 -9 0 -16 7
-16 16 0 17 22 14 28 -4z m69 -36 c-4 -9 -11 -16 -17 -16 -11 0 -14 33 -3 44
11 10 26 -11 20 -28z"/>
<path d="M3993 2355 c0 -27 2 -38 4 -22 2 15 2 37 0 50 -2 12 -4 0 -4 -28z"/>
<path d="M4097 2387 c-9 -25 5 -77 22 -76 10 0 11 2 4 6 -17 6 -17 40 -1 45 9
3 8 9 -4 21 -12 12 -17 13 -21 4z"/>
<path d="M103 2379 c-6 -6 -9 -17 -6 -24 2 -7 -4 -15 -14 -18 -10 -3 5 -5 32
-5 34 0 42 2 26 7 -34 9 -39 31 -7 31 14 0 26 5 26 10 0 14 -43 13 -57 -1z"/>
<path d="M2783 2379 c-6 -6 -9 -17 -6 -24 2 -7 -4 -15 -14 -18 -10 -3 5 -5 32
-5 34 0 42 2 26 7 -34 9 -39 31 -7 31 14 0 26 5 26 10 0 14 -43 13 -57 -1z"/>
<path d="M940 2365 c-18 -21 -3 -55 25 -55 27 0 39 24 25 51 -13 23 -33 25
-50 4z m40 -26 c0 -10 -7 -19 -15 -19 -15 0 -21 31 -9 43 11 10 24 -3 24 -24z"/>
<path d="M1080 2365 c-19 -23 -3 -55 28 -54 24 2 24 2 5 6 -31 6 -29 23 2 23
27 0 32 9 13 28 -16 16 -33 15 -48 -3z m35 -5 c3 -5 -1 -10 -10 -10 -9 0 -13
5 -10 10 3 6 8 10 10 10 2 0 7 -4 10 -10z"/>
<path d="M1157 2373 c-4 -3 -7 -17 -7 -31 0 -16 7 -26 23 -30 22 -6 22 -6 -3
-13 -22 -5 -23 -7 -7 -14 27 -11 47 13 47 56 0 34 -3 39 -23 39 -13 0 -27 -3
-30 -7z m33 -34 c0 -20 -15 -26 -25 -9 -9 15 3 43 15 35 5 -3 10 -15 10 -26z"/>
<path d="M1230 2365 c-19 -23 -3 -55 28 -54 24 2 24 2 5 6 -31 6 -29 23 2 23
27 0 32 9 13 28 -16 16 -33 15 -48 -3z m35 -5 c3 -5 -1 -10 -10 -10 -9 0 -13
5 -10 10 3 6 8 10 10 10 2 0 7 -4 10 -10z"/>
<path d="M1581 2326 c1 -28 3 -43 6 -33 2 9 13 17 24 17 43 0 33 64 -10 66
-19 1 -21 -4 -20 -50z m39 13 c0 -20 -15 -26 -25 -9 -9 15 3 43 15 35 5 -3 10
-15 10 -26z"/>
<path d="M1654 2366 c-11 -28 1 -51 26 -53 25 -3 25 -3 3 7 -13 5 -23 13 -23
18 0 14 26 33 33 25 4 -3 7 -1 7 5 0 17 -40 15 -46 -2z"/>
<path d="M3841 2326 c1 -28 3 -43 6 -33 2 9 13 17 24 17 43 0 33 64 -10 66
-19 1 -21 -4 -20 -50z m39 13 c0 -20 -15 -26 -25 -9 -9 15 3 43 15 35 5 -3 10
-15 10 -26z"/>
<path d="M3916 2368 c-14 -29 -3 -53 27 -56 25 -3 27 -1 26 35 -1 35 -2 36 -8
9 -9 -42 -29 -44 -33 -4 -3 25 -6 29 -12 16z"/>
<path d="M4030 2371 c0 -6 7 -8 15 -5 8 4 15 2 15 -4 0 -5 -9 -12 -21 -15 -29
-8 -19 -31 15 -35 26 -3 27 -1 24 30 -2 25 -8 34 -25 36 -13 2 -23 -1 -23 -7z
m30 -41 c0 -5 -4 -10 -10 -10 -5 0 -10 5 -10 10 0 6 5 10 10 10 6 0 10 -4 10
-10z"/>
<path d="M4147 2373 c-11 -10 -8 -63 3 -63 6 0 10 16 10 35 0 36 -2 40 -13 28z"/>
<path d="M4180 2365 c-18 -21 -3 -55 25 -55 27 0 39 24 25 51 -13 23 -33 25
-50 4z m40 -26 c0 -10 -7 -19 -15 -19 -15 0 -21 31 -9 43 11 10 24 -3 24 -24z"/>
<path d="M4250 2344 c0 -19 5 -34 10 -34 6 0 10 11 10 24 0 38 18 40 29 4 l10
-33 -2 35 c-2 31 -5 35 -29 36 -25 1 -28 -2 -28 -32z"/>
<path d="M245 2310 c-5 -9 -1 -10 13 -6 32 10 35 -9 6 -43 l-26 -31 34 1 c18
1 25 3 15 6 -17 4 -17 6 -2 23 9 10 15 27 13 37 -4 21 -43 30 -53 13z"/>
<path d="M330 2295 c0 -14 3 -24 8 -24 39 6 40 -21 1 -33 -22 -6 -21 -7 6 -5
23 2 31 7 33 25 3 17 -2 25 -17 29 -26 7 -27 20 -3 26 13 4 11 5 -5 6 -18 1
-23 -4 -23 -24z"/>
<path d="M2925 2310 c-5 -9 -1 -10 13 -6 32 10 35 -9 6 -43 l-26 -31 34 1 c18
1 25 3 15 6 -17 4 -17 6 -2 23 9 10 15 27 13 37 -4 21 -43 30 -53 13z"/>
<path d="M3003 2305 c-6 -17 2 -30 20 -30 23 0 19 -33 -5 -38 -16 -4 -14 -5 7
-4 23 2 31 7 33 25 3 17 -2 25 -17 29 -26 7 -27 20 -3 26 12 4 11 5 -6 6 -12
0 -25 -6 -29 -14z"/>
<path d="M87 2296 c-7 -18 7 -23 45 -18 18 3 28 10 27 21 0 10 -2 11 -6 4 -6
-15 -43 -17 -43 -3 0 15 -17 12 -23 -4z"/>
<path d="M2767 2296 c-7 -18 7 -23 45 -18 18 3 28 10 27 21 0 10 -2 11 -6 4
-6 -15 -43 -17 -43 -3 0 15 -17 12 -23 -4z"/>
<path d="M427 2263 c-4 -3 -7 -318 -7 -700 l0 -693 900 0 900 0 0 700 0 700
-893 0 c-492 0 -897 -3 -900 -7z m354 -30 c1 -17 2 -17 6 0 4 15 21 17 179 17
159 0 174 -2 175 -17 1 -17 2 -17 6 0 4 15 21 17 179 17 159 0 174 -2 175 -17
1 -17 2 -17 6 0 4 15 21 17 174 17 154 0 169 -2 170 -17 1 -17 2 -17 6 0 4 15
21 17 179 17 l174 0 0 -130 c0 -117 -2 -130 -17 -131 -17 -1 -17 -2 0 -6 15
-4 17 -19 17 -139 0 -120 -2 -134 -17 -135 -17 -1 -17 -2 0 -6 15 -4 17 -19
17 -139 0 -120 -2 -134 -17 -135 -17 -1 -17 -2 0 -6 15 -4 17 -19 17 -134 0
-116 -2 -129 -17 -130 -17 -1 -17 -2 0 -6 15 -4 17 -19 17 -139 l0 -134 -175
0 c-160 0 -175 2 -176 18 -1 16 -2 16 -6 -1 -4 -15 -21 -17 -174 -17 -154 0
-169 2 -170 18 -1 16 -2 16 -6 0 -4 -16 -21 -18 -179 -18 -173 0 -174 0 -175
23 -2 22 -2 22 -6 -2 l-5 -23 -141 4 c-99 2 -142 7 -145 16 -4 14 -69 17 -74
3 -1 -5 -78 -12 -170 -16 l-168 -7 0 136 c0 122 2 136 18 137 16 1 16 2 0 6
-16 4 -18 19 -18 134 0 116 2 129 18 130 16 1 16 2 0 6 -16 4 -18 19 -18 139
0 120 2 134 18 135 16 1 16 2 0 6 -16 4 -18 19 -18 139 0 120 2 134 18 135 16
1 16 2 0 6 -16 4 -18 19 -18 134 l0 129 170 0 c155 0 170 -2 171 -17z"/>
<path d="M1836 1415 c-3 -9 0 -15 9 -15 8 0 15 7 15 15 0 8 -4 15 -9 15 -5 0
-11 -7 -15 -15z"/>
<path d="M1760 1345 c-21 -25 -1 -31 23 -7 17 18 18 22 5 22 -8 0 -21 -7 -28
-15z"/>
<path d="M1670 1265 c-21 -25 -1 -31 23 -7 17 18 18 22 5 22 -8 0 -21 -7 -28
-15z"/>
<path d="M1590 1190 c-14 -10 -21 -22 -17 -26 4 -4 17 2 29 14 12 12 20 24 17
26 -2 3 -15 -4 -29 -14z"/>
<path d="M1500 1110 c-14 -10 -22 -21 -19 -25 3 -3 17 3 30 14 31 25 21 35
-11 11z"/>
<path d="M1383 1063 c-14 -5 -18 -23 -5 -23 5 0 17 7 28 15 14 11 15 14 4 14
-8 0 -21 -3 -27 -6z"/>
<path d="M1271 1019 c-13 -5 -21 -12 -18 -15 9 -9 57 5 57 16 0 12 -7 12 -39
-1z"/>
<path d="M1168 978 c-23 -8 -40 -28 -23 -28 12 0 55 24 55 32 0 4 -1 8 -2 7
-2 0 -15 -5 -30 -11z"/>
<path d="M1055 952 c-29 -6 -43 -22 -19 -22 20 0 52 16 44 23 -3 2 -14 1 -25
-1z"/>
<path d="M910 920 c0 -13 30 -13 50 0 11 7 7 10 -17 10 -18 0 -33 -4 -33 -10z"/>
<path d="M3100 1570 l0 -700 900 0 900 0 0 700 0 700 -900 0 -900 0 0 -700z
m361 663 c1 -17 2 -17 6 0 4 15 21 17 179 17 159 0 174 -2 175 -17 1 -17 2
-17 6 0 4 15 21 17 179 17 159 0 174 -2 175 -17 1 -17 2 -17 6 0 4 15 21 17
174 17 154 0 169 -2 170 -17 1 -17 2 -17 6 0 4 15 21 17 179 17 l174 0 0 -130
c0 -117 -2 -130 -17 -131 -17 -1 -17 -2 0 -6 15 -4 17 -19 17 -139 0 -120 -2
-134 -17 -135 -17 -1 -17 -2 0 -6 15 -4 17 -19 17 -139 0 -120 -2 -134 -17
-135 -17 -1 -17 -2 0 -6 15 -4 17 -19 17 -134 0 -116 -2 -129 -17 -130 -17 -1
-17 -2 0 -6 15 -4 17 -19 17 -139 l0 -134 -175 0 c-160 0 -175 2 -176 18 -1
16 -2 16 -6 -1 -4 -15 -21 -17 -174 -17 -154 0 -169 2 -170 18 -1 16 -2 16 -6
0 -4 -16 -21 -18 -179 -18 -109 0 -174 4 -174 10 0 6 9 10 19 10 20 0 37 17
28 26 -12 12 -57 -9 -57 -27 0 -23 -23 -25 -44 -4 -15 16 -57 20 -70 8 -4 -4
-59 -9 -122 -10 -103 -3 -114 -1 -115 15 0 13 -2 12 -9 -5 -9 -23 -13 -23
-175 -23 l-165 0 0 135 c0 121 2 135 18 136 16 1 16 2 0 6 -16 4 -18 19 -18
134 0 116 2 129 18 130 16 1 16 2 0 6 -16 4 -18 19 -18 139 0 120 2 134 18
135 16 1 16 2 0 6 -16 4 -18 19 -18 139 0 120 2 134 18 135 16 1 16 2 0 6 -16
4 -18 19 -18 134 l0 129 170 0 c155 0 170 -2 171 -17z"/>
<path d="M4461 1269 c-13 -10 -19 -19 -15 -19 13 1 48 29 43 34 -2 2 -15 -4
-28 -15z"/>
<path d="M4479 1241 c-32 -26 -21 -33 14 -11 16 10 24 20 19 24 -6 3 -21 -3
-33 -13z"/>
<path d="M4371 1190 c-13 -11 -19 -20 -14 -20 6 0 18 9 28 20 23 25 17 25 -14
0z"/>
<path d="M4375 1160 c-10 -11 -14 -20 -8 -20 5 0 18 9 28 20 10 11 14 20 8 20
-5 0 -18 -9 -28 -20z"/>
<path d="M4280 1110 c-14 -11 -20 -20 -14 -20 5 0 16 6 24 13 8 6 6 2 -4 -10
-24 -28 -6 -31 19 -3 11 12 13 20 6 20 -7 0 -9 5 -6 10 9 14 3 12 -25 -10z"/>
<path d="M4190 1032 c-18 -15 -22 -24 -14 -32 7 -7 15 -5 28 9 27 30 16 47
-14 23z"/>
<path d="M4078 993 c-29 -7 -22 -31 7 -25 14 2 25 11 25 18 0 14 -3 15 -32 7z"/>
<path d="M3950 950 c-8 -5 -12 -11 -10 -14 8 -7 60 6 60 15 0 12 -31 11 -50
-1z"/>
<path d="M93 2253 c15 -2 37 -2 50 0 12 2 0 4 -28 4 -27 0 -38 -2 -22 -4z"/>
<path d="M2773 2253 c15 -2 37 -2 50 0 12 2 0 4 -28 4 -27 0 -38 -2 -22 -4z"/>
<path d="M106 2214 c-18 -18 -20 -30 -7 -39 5 -3 12 5 14 17 l4 23 2 -22 c1
-16 7 -23 20 -23 25 0 32 11 24 38 -6 26 -35 29 -57 6z m44 -19 c0 -8 -4 -15
-10 -15 -5 0 -10 7 -10 15 0 8 5 15 10 15 6 0 10 -7 10 -15z"/>
<path d="M2786 2214 c-18 -18 -20 -30 -7 -39 5 -3 12 5 14 17 l4 23 2 -22 c1
-16 7 -23 20 -23 25 0 32 11 24 38 -6 26 -35 29 -57 6z m44 -19 c0 -8 -4 -15
-10 -15 -5 0 -10 7 -10 15 0 8 5 15 10 15 6 0 10 -7 10 -15z"/>
<path d="M101 2146 c-22 -26 10 -63 43 -50 20 8 28 33 16 52 -8 14 -9 12 -10
-10 0 -16 -4 -28 -10 -28 -5 0 -10 11 -10 25 0 28 -12 32 -29 11z m16 -28 c-3
-8 -6 -5 -6 6 -1 11 2 17 5 13 3 -3 4 -12 1 -19z"/>
<path d="M2781 2146 c-22 -26 10 -63 43 -50 20 8 28 33 16 52 -8 14 -9 12 -10
-10 0 -16 -4 -28 -10 -28 -5 0 -10 11 -10 25 0 28 -12 32 -29 11z m16 -28 c-3
-8 -6 -5 -6 6 -1 11 2 17 5 13 3 -3 4 -12 1 -19z"/>
<path d="M110 2069 c21 -10 22 -13 8 -16 -21 -5 -24 -19 -5 -26 9 -4 8 -8 -3
-16 -13 -9 -13 -11 2 -11 23 0 48 11 48 21 0 5 -8 9 -17 9 -16 1 -16 2 1 15
24 18 19 23 -25 30 -32 5 -33 5 -9 -6z"/>
<path d="M2790 2069 c21 -10 22 -13 8 -16 -21 -5 -24 -19 -5 -26 9 -4 8 -8 -3
-16 -13 -9 -13 -11 2 -11 23 0 48 11 48 21 0 5 -8 9 -17 9 -16 1 -16 2 1 15
24 18 19 23 -25 30 -32 5 -33 5 -9 -6z"/>
<path d="M245 2030 c-5 -9 -1 -10 13 -6 32 10 35 -9 6 -43 l-26 -31 34 1 c18
1 25 3 15 6 -17 4 -17 6 -2 23 9 10 15 27 13 37 -4 21 -43 30 -53 13z"/>
<path d="M332 2028 c-24 -24 -11 -78 19 -78 26 0 41 33 29 64 -10 28 -29 33
-48 14z m36 -39 c-5 -35 -28 -36 -28 -1 0 16 3 32 7 36 11 11 25 -10 21 -35z"/>
<path d="M2925 2030 c-5 -9 -1 -10 13 -6 32 10 35 -9 6 -43 l-26 -31 34 1 c18
1 25 3 15 6 -17 4 -17 6 -2 23 9 10 15 27 13 37 -4 21 -43 30 -53 13z"/>
<path d="M3004 2027 c-3 -9 -4 -28 -2 -44 2 -22 8 -28 28 -28 23 0 25 4 25 40
0 34 -3 40 -23 43 -13 2 -24 -3 -28 -11z m42 -23 c4 -14 2 -30 -5 -37 -12 -12
-18 -9 -21 13 -7 50 14 70 26 24z"/>
<path d="M70 1948 c0 -23 25 -35 61 -30 35 5 39 21 4 24 -14 0 -31 1 -37 2 -7
1 -16 6 -20 11 -5 6 -8 3 -8 -7z"/>
<path d="M2750 1948 c0 -23 25 -35 61 -30 35 5 39 21 4 24 -14 0 -31 1 -37 2
-7 1 -16 6 -20 11 -5 6 -8 3 -8 -7z"/>
<path d="M102 1898 c-16 -16 -15 -23 4 -42 19 -20 29 -20 48 0 12 12 13 20 6
35 -12 21 -40 25 -58 7z m48 -23 c0 -8 -9 -15 -20 -15 -11 0 -20 7 -20 15 0 8
9 15 20 15 11 0 20 -7 20 -15z"/>
<path d="M2782 1898 c-16 -16 -15 -23 4 -42 19 -20 29 -20 48 0 12 12 13 20 6
35 -12 21 -40 25 -58 7z m48 -23 c0 -8 -9 -15 -20 -15 -11 0 -20 7 -20 15 0 8
9 15 20 15 11 0 20 -7 20 -15z"/>
<path d="M103 1778 c-4 -7 -8 -30 -9 -50 0 -37 0 -38 35 -37 31 1 32 2 12 8
-14 4 -26 12 -29 19 -2 7 2 10 11 6 8 -3 22 2 31 11 19 19 19 24 6 45 -8 12
-10 9 -10 -12 0 -16 -4 -28 -10 -28 -5 0 -10 11 -10 25 0 27 -14 33 -27 13z
m14 -30 c-3 -8 -6 -5 -6 6 -1 11 2 17 5 13 3 -3 4 -12 1 -19z"/>
<path d="M2783 1778 c-4 -7 -8 -30 -9 -50 0 -37 0 -38 35 -37 31 1 32 2 12 8
-14 4 -26 12 -29 19 -2 7 2 10 11 6 8 -3 22 2 31 11 19 19 19 24 6 45 -8 12
-10 9 -10 -12 0 -16 -4 -28 -10 -28 -5 0 -10 11 -10 25 0 27 -14 33 -27 13z
m14 -30 c-3 -8 -6 -5 -6 6 -1 11 2 17 5 13 3 -3 4 -12 1 -19z"/>
<path d="M250 1751 c0 -6 5 -11 10 -11 15 0 12 -57 -2 -63 -7 -3 3 -6 22 -6
19 0 30 3 23 7 -6 4 -13 23 -15 42 -2 24 -9 36 -20 38 -10 2 -18 -1 -18 -7z"/>
<path d="M330 1735 c0 -14 3 -24 8 -24 39 6 40 -21 1 -33 -22 -6 -21 -7 6 -5
23 2 31 7 33 25 3 17 -2 25 -17 29 -26 7 -27 20 -3 26 13 4 11 5 -5 6 -18 1
-23 -4 -23 -24z"/>
<path d="M2930 1751 c0 -6 5 -11 10 -11 15 0 12 -57 -2 -63 -7 -3 3 -6 22 -6
19 0 30 3 23 7 -6 4 -13 23 -15 42 -2 24 -9 36 -20 38 -10 2 -18 -1 -18 -7z"/>
<path d="M3003 1745 c-6 -17 2 -30 20 -30 23 0 19 -33 -5 -38 -16 -4 -14 -5 7
-4 23 2 31 7 33 25 3 17 -2 25 -17 29 -26 7 -27 20 -3 26 12 4 11 5 -6 6 -12
0 -25 -6 -29 -14z"/>
<path d="M106 1654 c-18 -18 -20 -30 -7 -39 5 -3 12 5 14 17 l4 23 2 -22 c1
-16 7 -23 20 -23 25 0 32 11 24 38 -6 26 -35 29 -57 6z m44 -19 c0 -8 -4 -15
-10 -15 -5 0 -10 7 -10 15 0 8 5 15 10 15 6 0 10 -7 10 -15z"/>
<path d="M2786 1654 c-18 -18 -20 -30 -7 -39 5 -3 12 5 14 17 l4 23 2 -22 c1
-16 7 -23 20 -23 25 0 32 11 24 38 -6 26 -35 29 -57 6z m44 -19 c0 -8 -4 -15
-10 -15 -5 0 -10 7 -10 15 0 8 5 15 10 15 6 0 10 -7 10 -15z"/>
<path d="M103 1589 c-6 -6 -9 -17 -6 -24 2 -7 -4 -15 -14 -18 -10 -3 5 -5 32
-5 34 0 42 2 26 7 -34 9 -39 31 -7 31 14 0 26 5 26 10 0 14 -43 13 -57 -1z"/>
<path d="M2783 1589 c-6 -6 -9 -17 -6 -24 2 -7 -4 -15 -14 -18 -10 -3 5 -5 32
-5 34 0 42 2 26 7 -34 9 -39 31 -7 31 14 0 26 5 26 10 0 14 -43 13 -57 -1z"/>
<path d="M95 1517 c-4 -10 -2 -24 6 -33 11 -14 15 -13 31 8 l18 23 0 -25 c1
-21 2 -22 10 -8 12 20 3 48 -15 48 -8 0 -17 -10 -21 -22 l-8 -23 -6 25 c-6 22
-8 23 -15 7z"/>
<path d="M2775 1517 c-4 -10 -2 -24 6 -33 11 -14 15 -13 31 8 l18 23 0 -25 c1
-21 2 -22 10 -8 12 20 3 48 -15 48 -8 0 -17 -10 -21 -22 l-8 -23 -6 25 c-6 22
-8 23 -15 7z"/>
<path d="M250 1481 c0 -6 5 -11 10 -11 15 0 12 -57 -2 -63 -7 -3 3 -6 22 -6
19 0 30 3 23 7 -6 4 -13 23 -15 42 -2 24 -9 36 -20 38 -10 2 -18 -1 -18 -7z"/>
<path d="M332 1478 c-24 -24 -11 -78 19 -78 26 0 41 33 29 64 -10 28 -29 33
-48 14z m36 -39 c-5 -35 -28 -36 -28 -1 0 16 3 32 7 36 11 11 25 -10 21 -35z"/>
<path d="M2930 1481 c0 -6 5 -11 10 -11 15 0 12 -57 -2 -63 -7 -3 3 -6 22 -6
19 0 30 3 23 7 -6 4 -13 23 -15 42 -2 24 -9 36 -20 38 -10 2 -18 -1 -18 -7z"/>
<path d="M3004 1477 c-3 -9 -4 -28 -2 -44 2 -22 8 -28 28 -28 23 0 25 4 25 40
0 34 -3 40 -23 43 -13 2 -24 -3 -28 -11z m42 -23 c4 -14 2 -30 -5 -37 -12 -12
-18 -9 -21 13 -7 50 14 70 26 24z"/>
<path d="M101 1406 c-22 -26 10 -63 43 -50 20 8 28 33 16 52 -8 14 -9 12 -10
-10 0 -16 -4 -28 -10 -28 -5 0 -10 11 -10 25 0 28 -12 32 -29 11z m16 -28 c-3
-8 -6 -5 -6 6 -1 11 2 17 5 13 3 -3 4 -12 1 -19z"/>
<path d="M2781 1406 c-22 -26 10 -63 43 -50 20 8 28 33 16 52 -8 14 -9 12 -10
-10 0 -16 -4 -28 -10 -28 -5 0 -10 11 -10 25 0 28 -12 32 -29 11z m16 -28 c-3
-8 -6 -5 -6 6 -1 11 2 17 5 13 3 -3 4 -12 1 -19z"/>
<path d="M100 1341 c0 -4 10 -12 23 -18 l22 -10 -22 -7 c-13 -4 -23 -11 -23
-16 0 -4 14 -3 30 3 38 15 38 32 0 46 -16 5 -30 6 -30 2z"/>
<path d="M2780 1341 c0 -4 10 -12 23 -18 l22 -10 -22 -7 c-13 -4 -23 -11 -23
-16 0 -4 14 -3 30 3 17 6 30 17 30 23 0 7 -13 17 -30 23 -16 5 -30 6 -30 2z"/>
<path d="M93 1263 c15 -2 37 -2 50 0 12 2 0 4 -28 4 -27 0 -38 -2 -22 -4z"/>
<path d="M2773 1263 c15 -2 37 -2 50 0 12 2 0 4 -28 4 -27 0 -38 -2 -22 -4z"/>
<path d="M87 1226 c-7 -18 7 -23 45 -18 18 3 28 10 27 21 0 10 -2 11 -6 4 -6
-15 -43 -17 -43 -3 0 15 -17 12 -23 -4z"/>
<path d="M2767 1226 c-7 -18 7 -23 45 -18 18 3 28 10 27 21 0 10 -2 11 -6 4
-6 -15 -43 -17 -43 -3 0 15 -17 12 -23 -4z"/>
<path d="M330 1185 c0 -14 3 -24 8 -24 39 6 40 -21 1 -33 -22 -6 -21 -7 6 -5
23 2 31 7 33 25 3 17 -2 25 -17 29 -26 7 -27 20 -3 26 13 4 11 5 -5 6 -18 1
-23 -4 -23 -24z"/>
<path d="M3003 1195 c-6 -17 2 -30 20 -30 23 0 19 -33 -5 -38 -16 -4 -14 -5 7
-4 23 2 31 7 33 25 3 17 -2 25 -17 29 -26 7 -27 20 -3 26 12 4 11 5 -6 6 -12
0 -25 -6 -29 -14z"/>
<path d="M106 1184 c-18 -18 -20 -30 -7 -39 5 -3 12 5 14 17 l4 23 2 -22 c1
-16 7 -23 20 -23 25 0 32 11 24 38 -6 26 -35 29 -57 6z m44 -19 c0 -8 -4 -15
-10 -15 -5 0 -10 7 -10 15 0 8 5 15 10 15 6 0 10 -7 10 -15z"/>
<path d="M2786 1184 c-18 -18 -20 -30 -7 -39 5 -3 12 5 14 17 l4 23 2 -22 c1
-16 7 -23 20 -23 25 0 32 11 24 38 -6 26 -35 29 -57 6z m44 -19 c0 -8 -4 -15
-10 -15 -5 0 -10 7 -10 15 0 8 5 15 10 15 6 0 10 -7 10 -15z"/>
<path d="M93 1103 c15 -2 37 -2 50 0 12 2 0 4 -28 4 -27 0 -38 -2 -22 -4z"/>
<path d="M2773 1103 c15 -2 37 -2 50 0 12 2 0 4 -28 4 -27 0 -38 -2 -22 -4z"/>
<path d="M100 1080 c0 -5 11 -10 25 -10 38 0 32 -28 -7 -33 l-33 -4 37 -1 c38
-2 48 9 40 41 -5 18 -62 25 -62 7z"/>
<path d="M2780 1080 c0 -5 11 -10 25 -10 38 0 32 -28 -7 -33 l-33 -4 37 -1
c38 -2 48 9 40 41 -5 18 -62 25 -62 7z"/>
<path d="M104 998 c-4 -6 -8 -29 -9 -50 -2 -37 -1 -38 34 -37 31 1 32 2 12 8
-34 9 -39 31 -7 31 14 0 26 5 26 10 0 6 -11 10 -25 10 -14 0 -25 5 -25 10 0 6
11 10 25 10 14 0 25 5 25 10 0 14 -47 12 -56 -2z"/>
<path d="M2784 998 c-4 -6 -8 -29 -9 -50 -2 -37 -1 -38 34 -37 31 1 32 2 12 8
-34 9 -39 31 -7 31 14 0 26 5 26 10 0 6 -11 10 -25 10 -14 0 -25 5 -25 10 0 6
11 10 25 10 14 0 25 5 25 10 0 14 -47 12 -56 -2z"/>
<path d="M332 918 c-24 -24 -11 -78 19 -78 26 0 41 33 29 64 -10 28 -29 33
-48 14z m36 -39 c-5 -35 -28 -36 -28 -1 0 16 3 32 7 36 11 11 25 -10 21 -35z"/>
<path d="M3004 917 c-3 -9 -4 -28 -2 -44 2 -22 8 -28 28 -28 23 0 25 4 25 40
0 34 -3 40 -23 43 -13 2 -24 -3 -28 -11z m42 -23 c4 -14 2 -30 -5 -37 -12 -12
-18 -9 -21 13 -7 50 14 70 26 24z"/>
<path d="M100 890 c0 -5 11 -10 25 -10 38 0 32 -28 -7 -33 l-33 -4 37 -1 c38
-2 48 9 40 41 -5 18 -62 25 -62 7z"/>
<path d="M2780 890 c0 -5 11 -10 25 -10 38 0 32 -28 -7 -33 l-33 -4 37 -1 c38
-2 48 9 40 41 -5 18 -62 25 -62 7z"/>
<path d="M404 817 c-3 -9 -4 -28 -2 -44 2 -22 8 -28 28 -28 23 0 25 4 25 40 0
34 -3 40 -23 43 -13 2 -24 -3 -28 -11z m42 -23 c4 -14 2 -30 -5 -37 -12 -12
-18 -9 -21 13 -7 50 14 70 26 24z"/>
<path d="M720 820 c0 -5 6 -7 14 -4 24 9 29 -17 7 -40 -29 -30 -27 -36 12 -35
25 1 27 3 9 6 l-24 5 22 23 c13 14 20 31 17 39 -7 17 -57 22 -57 6z"/>
<path d="M799 809 c-15 -28 3 -69 31 -69 24 0 36 40 20 69 -14 27 -36 27 -51
0z m41 -30 c0 -20 -4 -29 -12 -27 -15 5 -22 33 -14 54 9 24 26 6 26 -27z"/>
<path d="M1107 824 c-4 -4 -4 -18 -1 -30 4 -14 2 -24 -5 -24 -6 0 -8 8 -5 18
5 14 3 14 -11 -3 -15 -19 -15 -20 2 -24 10 -2 21 -8 26 -15 12 -19 23 10 19
49 -4 34 -11 42 -25 29z"/>
<path d="M1162 818 c-24 -24 -11 -78 19 -78 26 0 41 33 29 64 -10 28 -29 33
-48 14z m36 -39 c-5 -35 -28 -36 -28 -1 0 16 3 32 7 36 11 11 25 -10 21 -35z"/>
<path d="M1440 809 c-18 -32 -4 -69 24 -69 14 0 26 6 29 13 6 18 -11 47 -29
47 -8 0 -12 5 -9 11 4 6 13 8 21 5 8 -3 14 -1 14 4 0 19 -39 10 -50 -11z m40
-45 c0 -8 -7 -14 -15 -14 -15 0 -21 21 -9 33 10 9 24 -2 24 -19z"/>
<path d="M1514 817 c-3 -9 -4 -28 -2 -44 2 -22 8 -28 28 -28 23 0 25 4 25 40
0 34 -3 40 -23 43 -13 2 -24 -3 -28 -11z m42 -23 c4 -14 2 -30 -5 -37 -12 -12
-18 -9 -21 13 -7 50 14 70 26 24z"/>
<path d="M1796 818 c-3 -7 -4 -26 -3 -43 2 -25 6 -30 27 -30 23 0 25 4 25 40
0 34 -3 40 -23 43 -12 2 -24 -3 -26 -10z m34 -13 c0 -8 -4 -15 -10 -15 -5 0
-10 7 -10 15 0 8 5 15 10 15 6 0 10 -7 10 -15z m2 -40 c0 -5 -5 -11 -11 -13
-6 -2 -11 4 -11 13 0 9 5 15 11 13 6 -2 11 -8 11 -13z"/>
<path d="M1874 816 c-12 -31 0 -71 23 -74 25 -4 38 26 29 64 -7 27 -43 34 -52
10z m36 -32 c0 -24 -4 -34 -12 -32 -24 8 -22 68 2 68 5 0 10 -16 10 -36z"/>
<path d="M2127 794 c4 -25 2 -39 -8 -45 -10 -6 -3 -8 21 -8 19 0 29 3 23 6 -8
2 -13 22 -13 44 0 27 -4 39 -14 39 -11 0 -13 -9 -9 -36z"/>
<path d="M2189 809 c-15 -28 3 -69 31 -69 24 0 36 40 20 69 -14 27 -36 27 -51
0z m41 -30 c0 -20 -4 -29 -12 -27 -15 5 -22 33 -14 54 9 24 26 6 26 -27z"/>
<path d="M2272 818 c-24 -24 -11 -78 19 -78 26 0 41 33 29 64 -10 28 -29 33
-48 14z m36 -39 c-5 -35 -28 -36 -28 -1 0 16 3 32 7 36 11 11 25 -10 21 -35z"/>
<path d="M3084 817 c-3 -9 -4 -28 -2 -44 2 -22 8 -28 28 -28 23 0 25 4 25 40
0 34 -3 40 -23 43 -13 2 -24 -3 -28 -11z m42 -23 c4 -14 2 -30 -5 -37 -12 -12
-18 -9 -21 13 -7 50 14 70 26 24z"/>
<path d="M3400 820 c0 -5 6 -7 14 -4 24 9 29 -17 7 -40 -29 -30 -27 -36 12
-35 23 1 26 3 9 6 l-22 4 19 25 c11 14 17 32 14 40 -6 16 -53 20 -53 4z"/>
<path d="M3479 809 c-15 -28 3 -69 31 -69 24 0 36 40 20 69 -14 27 -36 27 -51
0z m41 -30 c0 -20 -4 -29 -12 -27 -15 5 -22 33 -14 54 9 24 26 6 26 -27z"/>
<path d="M3771 801 c-26 -36 -26 -41 -2 -41 11 0 22 -6 24 -12 10 -23 24 10
19 42 -6 42 -17 45 -41 11z m15 -28 c-10 -10 -19 5 -10 18 6 11 8 11 12 0 2
-7 1 -15 -2 -18z"/>
<path d="M3834 817 c-3 -9 -4 -28 -2 -44 2 -22 8 -28 28 -28 23 0 25 4 25 40
0 34 -3 40 -23 43 -13 2 -24 -3 -28 -11z m42 -23 c4 -14 2 -30 -5 -37 -12 -12
-18 -9 -21 13 -7 50 14 70 26 24z"/>
<path d="M4120 809 c-18 -32 -4 -69 24 -69 14 0 26 6 29 13 6 18 -11 47 -29
47 -8 0 -12 5 -9 11 4 6 13 8 21 5 8 -3 14 -1 14 4 0 19 -39 10 -50 -11z m40
-45 c0 -8 -7 -14 -15 -14 -15 0 -21 21 -9 33 10 9 24 -2 24 -19z"/>
<path d="M4194 816 c-12 -31 0 -71 23 -74 25 -4 38 26 29 64 -7 27 -43 34 -52
10z m36 -32 c0 -24 -4 -34 -12 -32 -24 8 -22 68 2 68 5 0 10 -16 10 -36z"/>
<path d="M4476 818 c-3 -7 -4 -26 -3 -43 2 -25 6 -30 27 -30 23 0 25 4 25 40
0 34 -3 40 -23 43 -12 2 -24 -3 -26 -10z m34 -13 c0 -8 -4 -15 -10 -15 -5 0
-10 7 -10 15 0 8 5 15 10 15 6 0 10 -7 10 -15z m2 -40 c0 -5 -5 -11 -11 -13
-6 -2 -11 4 -11 13 0 9 5 15 11 13 6 -2 11 -8 11 -13z"/>
<path d="M4549 809 c-15 -28 3 -69 31 -69 24 0 36 40 20 69 -14 27 -36 27 -51
0z m41 -30 c0 -20 -4 -29 -12 -27 -15 5 -22 33 -14 54 9 24 26 6 26 -27z"/>
<path d="M4795 820 c-3 -5 -1 -10 4 -10 15 0 14 -57 -1 -63 -7 -3 3 -5 22 -5
19 0 29 2 23 5 -8 2 -13 22 -13 44 0 27 -4 39 -14 39 -8 0 -18 -4 -21 -10z"/>
<path d="M4869 809 c-15 -28 3 -69 31 -69 24 0 36 40 20 69 -14 27 -36 27 -51
0z m41 -30 c0 -20 -4 -29 -12 -27 -15 5 -22 33 -14 54 9 24 26 6 26 -27z"/>
<path d="M4944 817 c-3 -9 -4 -28 -2 -44 2 -22 8 -28 28 -28 23 0 25 4 25 40
0 34 -3 40 -23 43 -13 2 -24 -3 -28 -11z m42 -23 c4 -14 2 -30 -5 -37 -12 -12
-18 -9 -21 13 -7 50 14 70 26 24z"/>
<path d="M78 814 c-29 -28 24 -85 60 -65 24 13 34 35 24 59 -5 13 -8 11 -12
-13 -4 -24 -10 -30 -30 -30 -19 0 -26 6 -30 28 -3 16 -8 25 -12 21z"/>
<path d="M2758 814 c-29 -28 24 -85 60 -65 24 13 34 35 24 59 -5 13 -8 11 -12
-13 -4 -24 -10 -30 -30 -30 -19 0 -26 6 -30 28 -3 16 -8 25 -12 21z"/>
<path d="M1041 623 c1 -27 3 -40 6 -30 2 9 10 17 18 17 19 0 36 25 29 44 -3 9
-17 16 -30 16 -22 0 -24 -4 -23 -47z m37 19 c2 -7 -3 -12 -12 -12 -9 0 -16 7
-16 16 0 17 22 14 28 -4z"/>
<path d="M1520 625 c0 -25 5 -45 10 -45 6 0 10 20 10 45 0 25 -4 45 -10 45 -5
0 -10 -20 -10 -45z"/>
<path d="M3717 663 c-11 -10 -8 -83 3 -83 6 0 10 7 10 15 0 8 7 15 15 15 21 0
37 34 23 48 -13 13 -41 16 -51 5z m41 -21 c2 -7 -3 -12 -12 -12 -9 0 -16 7
-16 16 0 17 22 14 28 -4z"/>
<path d="M4118 659 c-2 -6 -2 -26 0 -45 3 -27 8 -34 26 -33 16 1 17 2 4 6 -20
5 -24 39 -6 45 9 3 8 9 -4 21 -10 11 -18 13 -20 6z"/>
<path d="M4203 625 c0 -27 2 -38 4 -22 2 15 2 37 0 50 -2 12 -4 0 -4 -28z"/>
<path d="M1442 623 c2 -29 8 -38 23 -40 11 -2 14 0 8 3 -16 7 -17 40 -2 50 8
4 7 9 -2 15 -25 16 -30 10 -27 -28z"/>
<path d="M1111 636 c-21 -25 -9 -51 24 -53 20 -1 23 0 8 4 -29 6 -30 23 -2 23
14 0 19 5 17 17 -4 23 -31 28 -47 9z m34 -6 c3 -5 -1 -10 -10 -10 -9 0 -13 5
-10 10 3 6 8 10 10 10 2 0 7 -4 10 -10z"/>
<path d="M1181 610 c1 -21 3 -27 6 -15 3 11 12 28 20 37 14 15 13 17 -6 15
-17 -1 -21 -7 -20 -37z"/>
<path d="M1230 635 c-20 -24 -8 -50 25 -52 21 -1 23 0 7 4 -17 3 -22 10 -20
26 2 12 9 21 16 20 6 -2 12 2 12 7 0 15 -26 12 -40 -5z"/>
<path d="M1294 636 c-12 -30 0 -51 31 -53 18 -1 22 1 10 4 -34 9 -41 23 -11
23 21 0 27 4 24 18 -4 22 -46 29 -54 8z m41 -6 c3 -6 -4 -10 -17 -10 -18 0
-20 2 -8 10 19 12 18 12 25 0z"/>
<path d="M1367 644 c-10 -11 -9 -64 2 -64 5 0 11 11 13 25 4 36 22 36 30 0 6
-29 6 -29 5 5 -2 27 -7 36 -22 38 -12 2 -24 0 -28 -4z"/>
<path d="M1493 615 c0 -22 2 -30 4 -17 2 12 2 30 0 40 -3 9 -5 -1 -4 -23z"/>
<path d="M1561 636 c-21 -25 -9 -51 24 -53 20 -1 23 0 8 4 -29 6 -30 23 -2 23
14 0 19 5 17 17 -4 23 -31 28 -47 9z m34 -6 c3 -5 -1 -10 -10 -10 -9 0 -13 5
-10 10 3 6 8 10 10 10 2 0 7 -4 10 -10z"/>
<path d="M3791 636 c-21 -25 -9 -51 24 -53 20 -1 23 0 8 4 -29 6 -30 23 -2 23
14 0 19 5 17 17 -4 23 -31 28 -47 9z m34 -6 c3 -5 -1 -10 -10 -10 -9 0 -13 5
-10 10 3 6 8 10 10 10 2 0 7 -4 10 -10z"/>
<path d="M3861 610 c1 -27 3 -29 6 -10 2 14 11 30 20 37 13 10 13 12 -6 10
-17 -1 -21 -7 -20 -37z"/>
<path d="M3910 635 c-20 -24 -8 -50 25 -52 21 -1 23 0 7 4 -17 3 -22 10 -20
26 2 12 9 21 16 20 6 -2 12 2 12 7 0 15 -26 12 -40 -5z"/>
<path d="M3971 632 c-14 -26 5 -52 37 -51 21 1 22 2 7 6 -34 8 -41 23 -12 23
29 0 34 9 15 28 -17 17 -36 15 -47 -6z m34 -2 c3 -5 -1 -10 -10 -10 -9 0 -13
5 -10 10 3 6 8 10 10 10 2 0 7 -4 10 -10z"/>
<path d="M4047 644 c-10 -11 -9 -64 2 -64 5 0 11 11 13 25 4 36 22 36 30 0 6
-29 6 -29 5 5 -2 27 -7 36 -22 38 -12 2 -24 0 -28 -4z"/>
<path d="M4173 615 c0 -22 2 -30 4 -17 2 12 2 30 0 40 -3 9 -5 -1 -4 -23z"/>
<path d="M4241 636 c-21 -25 -9 -51 24 -53 20 -1 23 0 8 4 -29 6 -30 23 -2 23
14 0 19 5 17 17 -4 23 -31 28 -47 9z m34 -6 c3 -5 -1 -10 -10 -10 -9 0 -13 5
-10 10 3 6 8 10 10 10 2 0 7 -4 10 -10z"/>
<path d="M1493 463 c-10 -3 -13 -53 -13 -198 0 -167 2 -194 16 -199 9 -3 503
-6 1099 -6 972 0 1085 2 1099 16 13 13 16 45 16 193 0 124 -4 181 -12 189 -9
9 -267 12 -1102 11 -600 0 -1097 -3 -1103 -6z m2197 -198 l0 -185 -1100 0
-1100 0 0 185 0 185 1100 0 1100 0 0 -185z"/>
<path d="M1880 365 c0 -43 1 -45 30 -45 23 0 33 6 39 23 15 39 -5 67 -46 67
-21 0 -23 -5 -23 -45z m46 21 c15 -12 17 -18 8 -33 -6 -10 -19 -19 -28 -21
-12 -3 -16 4 -16 32 0 39 6 43 36 22z"/>
<path d="M3061 363 c1 -27 3 -40 6 -30 5 21 29 23 37 2 3 -8 10 -15 16 -15 8
0 7 6 0 20 -6 11 -8 24 -5 29 10 18 -7 41 -31 41 -22 0 -24 -4 -23 -47z m37
19 c2 -7 -3 -12 -12 -12 -9 0 -16 7 -16 16 0 17 22 14 28 -4z"/>
<path d="M3320 401 c0 -6 5 -11 10 -11 15 0 12 -57 -2 -63 -7 -3 3 -6 22 -6
19 0 30 3 23 7 -6 4 -13 23 -15 42 -2 24 -9 36 -20 38 -10 2 -18 -1 -18 -7z"/>
<path d="M3433 395 c-6 -17 2 -30 20 -30 23 0 19 -33 -5 -38 -16 -4 -14 -5 7
-4 23 2 31 7 33 25 3 17 -2 25 -17 29 -26 7 -27 20 -3 26 12 4 11 5 -6 6 -12
0 -25 -6 -29 -14z"/>
<path d="M3544 395 c-7 -18 3 -35 22 -35 12 0 12 -4 4 -20 -6 -11 -7 -20 -1
-20 14 0 19 21 14 58 -5 33 -29 44 -39 17z m26 -11 c0 -8 -5 -12 -10 -9 -6 4
-8 11 -5 16 9 14 15 11 15 -7z"/>
<path d="M3600 391 c-13 -25 3 -71 25 -71 20 0 20 39 0 46 -10 4 -13 13 -10
25 8 25 -1 24 -15 0z m26 -58 c-10 -10 -19 5 -10 18 6 11 8 11 12 0 2 -7 1
-15 -2 -18z"/>
<path d="M2042 363 c2 -29 8 -38 23 -40 11 -2 14 0 8 3 -16 7 -17 40 -2 50 8
4 7 9 -2 15 -25 16 -30 10 -27 -28z"/>
<path d="M1970 380 c0 -5 6 -7 14 -4 8 3 17 1 21 -5 3 -7 -2 -11 -14 -11 -14
0 -21 -6 -21 -20 0 -16 7 -20 30 -20 32 0 38 16 20 51 -11 19 -50 27 -50 9z
m35 -40 c-3 -5 -10 -10 -16 -10 -5 0 -9 5 -9 10 0 6 7 10 16 10 8 0 12 -4 9
-10z"/>
<path d="M2090 380 c0 -5 6 -7 14 -4 8 3 17 1 21 -5 3 -7 -2 -11 -14 -11 -14
0 -21 -6 -21 -20 0 -16 7 -20 30 -20 32 0 38 16 20 51 -11 19 -50 27 -50 9z
m35 -40 c-3 -5 -10 -10 -16 -10 -5 0 -9 5 -9 10 0 6 7 10 16 10 8 0 12 -4 9
-10z"/>
<path d="M3180 370 c0 -5 18 -10 41 -10 24 0 38 4 34 10 -3 6 -22 10 -41 10
-19 0 -34 -4 -34 -10z"/>
<path d="M2763 363 c9 -2 23 -2 30 0 6 3 -1 5 -18 5 -16 0 -22 -2 -12 -5z"/>
<path d="M2878 363 c6 -2 18 -2 25 0 6 3 1 5 -13 5 -14 0 -19 -2 -12 -5z"/>
<path d="M3198 343 c12 -2 32 -2 45 0 12 2 2 4 -23 4 -25 0 -35 -2 -22 -4z"/>
<path d="M3395 330 c-3 -5 -1 -10 4 -10 6 0 11 5 11 10 0 6 -2 10 -4 10 -3 0
-8 -4 -11 -10z"/>
<path d="M1881 183 c1 -27 3 -40 6 -30 5 21 29 23 37 2 3 -8 10 -15 16 -15 8
0 7 6 0 20 -6 11 -8 24 -5 29 10 18 -7 41 -31 41 -22 0 -24 -4 -23 -47z m37
19 c2 -7 -3 -12 -12 -12 -9 0 -16 7 -16 16 0 17 22 14 28 -4z"/>
<path d="M2139 209 c-15 -28 3 -69 31 -69 24 0 36 40 20 69 -14 27 -36 27 -51
0z m41 -30 c0 -20 -4 -29 -12 -27 -15 5 -22 33 -14 54 9 24 26 6 26 -27z"/>
<path d="M2253 215 c-6 -17 2 -30 20 -30 23 0 19 -33 -5 -38 -16 -4 -14 -5 7
-4 23 2 31 7 33 25 3 17 -2 25 -17 29 -26 7 -27 20 -3 26 12 4 11 5 -6 6 -12
0 -25 -6 -29 -14z"/>
<path d="M2364 215 c-7 -18 3 -35 22 -35 17 0 18 -12 2 -28 -7 -7 -8 -12 -2
-12 5 0 17 12 27 28 15 23 17 24 12 4 -7 -24 19 -42 36 -25 13 13 1 43 -17 43
-17 0 -18 12 -2 28 7 7 8 12 2 12 -5 0 -17 -12 -27 -27 -10 -16 -17 -21 -16
-13 3 30 -1 40 -16 40 -9 0 -18 -7 -21 -15z m23 -17 c-3 -8 -6 -5 -6 6 -1 11
2 17 5 13 3 -3 4 -12 1 -19z m60 -40 c-3 -8 -6 -5 -6 6 -1 11 2 17 5 13 3 -3
4 -12 1 -19z"/>
<path d="M2005 190 c-4 -6 10 -10 34 -10 23 0 41 5 41 10 0 6 -15 10 -34 10
-19 0 -38 -4 -41 -10z"/>
<path d="M1583 183 c9 -2 25 -2 35 0 9 3 1 5 -18 5 -19 0 -27 -2 -17 -5z"/>
<path d="M1698 183 c6 -2 18 -2 25 0 6 3 1 5 -13 5 -14 0 -19 -2 -12 -5z"/>
<path d="M2018 163 c12 -2 32 -2 45 0 12 2 2 4 -23 4 -25 0 -35 -2 -22 -4z"/>
</g>
</svg>
