<?xml version="1.0" encoding="utf-8" standalone="no"?>
<!DOCTYPE svg PUBLIC "-//W3C//DTD SVG 1.1//EN"
  "http://www.w3.org/Graphics/SVG/1.1/DTD/svg11.dtd">
<svg xmlns:xlink="http://www.w3.org/1999/xlink" width="1080pt" height="360pt" viewBox="0 0 1080 360" xmlns="http://www.w3.org/2000/svg" version="1.1">
 <metadata>
  <rdf:RDF xmlns:dc="http://purl.org/dc/elements/1.1/" xmlns:cc="http://creativecommons.org/ns#" xmlns:rdf="http://www.w3.org/1999/02/22-rdf-syntax-ns#">
   <cc:Work>
    <dc:type rdf:resource="http://purl.org/dc/dcmitype/StillImage"/>
    <dc:date>2025-10-04T13:59:09.763378</dc:date>
    <dc:format>image/svg+xml</dc:format>
    <dc:creator>
     <cc:Agent>
      <dc:title>Matplotlib v3.10.6, https://matplotlib.org/</dc:title>
     </cc:Agent>
    </dc:creator>
   </cc:Work>
  </rdf:RDF>
 </metadata>
 <defs>
  <style type="text/css">*{stroke-linejoin: round; stroke-linecap: butt}</style>
 </defs>
 <g id="figure_1">
  <g id="patch_1">
   <path d="M 0 360
L 1080 360
L 1080 0
L 0 0
z
" style="fill: #ffffff"/>
  </g>
  <g id="axes_1">
   <g id="patch_2">
    <path d="M 57.44 318.04
L 1069.2 318.04
L 1069.2 26.88
L 57.44 26.88
z
" style="fill: #ffffff"/>
   </g>
   <g id="PathCollection_1">
    <defs>
     <path id="mb2d8faeb1d" d="M 0 3
C 0.795609 3 1.55874 2.683901 2.12132 2.12132
C 2.683901 1.55874 3 0.795609 3 0
C 3 -0.795609 2.683901 -1.55874 2.12132 -2.12132
C 1.55874 -2.683901 0.795609 -3 0 -3
C -0.795609 -3 -1.55874 -2.683901 -2.12132 -2.12132
C -2.683901 -1.55874 -3 -0.795609 -3 0
C -3 0.795609 -2.683901 1.55874 -2.12132 2.12132
C -1.55874 2.683901 -0.795609 3 0 3
z
" style="stroke: #1f77b4"/>
    </defs>
    <g clip-path="url(#p7c2dfd3e36)">
     <use xlink:href="#mb2d8faeb1d" x="307.614373" y="217.546042" style="fill: #1f77b4; stroke: #1f77b4"/>
     <use xlink:href="#mb2d8faeb1d" x="904.312835" y="58.943527" style="fill: #1f77b4; stroke: #1f77b4"/>
     <use xlink:href="#mb2d8faeb1d" x="293.565611" y="215.689876" style="fill: #1f77b4; stroke: #1f77b4"/>
     <use xlink:href="#mb2d8faeb1d" x="948.350702" y="130.554796" style="fill: #1f77b4; stroke: #1f77b4"/>
     <use xlink:href="#mb2d8faeb1d" x="552.660822" y="142.782851" style="fill: #1f77b4; stroke: #1f77b4"/>
     <use xlink:href="#mb2d8faeb1d" x="666.099973" y="277.940022" style="fill: #1f77b4; stroke: #1f77b4"/>
     <use xlink:href="#mb2d8faeb1d" x="807.897212" y="124.009806" style="fill: #1f77b4; stroke: #1f77b4"/>
     <use xlink:href="#mb2d8faeb1d" x="580.26053" y="175.929273" style="fill: #1f77b4; stroke: #1f77b4"/>
     <use xlink:href="#mb2d8faeb1d" x="376.420796" y="194.723669" style="fill: #1f77b4; stroke: #1f77b4"/>
     <use xlink:href="#mb2d8faeb1d" x="276.091664" y="211.065917" style="fill: #1f77b4; stroke: #1f77b4"/>
    </g>
   </g>
   <g id="FillBetweenPolyCollection_1">
    <path d="M 103.429091 151.551852
L 103.429091 214.265097
L 112.719816 214.259848
L 122.010542 214.181935
L 131.301267 213.985635
L 140.591993 213.617679
L 149.882718 213.024667
L 159.173444 212.164303
L 168.464169 211.019128
L 177.754894 209.610281
L 187.04562 208.007971
L 196.336345 206.335187
L 205.627071 204.761795
L 214.917796 203.487633
L 224.208522 202.715365
L 233.499247 202.616329
L 242.789972 203.294884
L 252.080698 204.758216
L 261.371423 206.898927
L 270.662149 209.499664
L 279.952874 212.320888
L 289.2436 214.822061
L 298.534325 216.64312
L 307.825051 217.628177
L 317.115776 217.779325
L 326.406501 217.015059
L 335.697227 215.233779
L 344.987952 212.368955
L 354.278678 208.393625
L 363.569403 203.334647
L 372.860129 197.283166
L 382.150854 192.234115
L 391.441579 188.622473
L 400.732305 185.57618
L 410.02303 183.009963
L 419.313756 180.730916
L 428.604481 178.475335
L 437.895207 175.956598
L 447.185932 172.916272
L 456.476657 169.171757
L 465.767383 164.655003
L 475.058108 159.438233
L 484.348834 153.744052
L 493.639559 147.938604
L 502.930285 142.50772
L 512.22101 138.017341
L 521.511736 135.061104
L 530.802461 134.199623
L 540.093186 135.897594
L 549.383912 140.468525
L 558.674637 149.090162
L 567.965363 159.921344
L 577.256088 171.877665
L 586.546814 186.147442
L 595.837539 202.15772
L 605.128264 218.48533
L 614.41899 234.220115
L 623.709715 248.484862
L 633.000441 260.505915
L 642.291166 269.672948
L 651.581892 275.581203
L 660.872617 278.053013
L 670.163343 279.660084
L 679.454068 281.893729
L 688.744793 281.732706
L 698.035519 279.199658
L 707.326244 274.390524
L 716.61697 267.455665
L 725.907695 258.577684
L 735.198421 247.949324
L 744.489146 235.755804
L 753.779871 222.165373
L 763.070597 207.330434
L 772.361322 191.39963
L 781.652048 174.539111
L 790.942773 156.95923
L 800.233499 138.941618
L 809.524224 122.017984
L 818.814949 110.407945
L 828.105675 98.579793
L 837.3964 86.85333
L 846.687126 75.719107
L 855.977851 65.802665
L 865.268577 57.807002
L 874.559302 52.436305
L 883.850028 50.31023
L 893.140753 51.880553
L 902.431478 57.366961
L 911.722204 69.005333
L 921.012929 83.592894
L 930.303655 99.50535
L 939.59438 115.762775
L 948.885106 131.66616
L 958.175831 150.486819
L 967.466556 168.460517
L 976.757282 184.775229
L 986.048007 198.839205
L 995.338733 210.294542
L 1004.629458 219.01953
L 1013.920184 225.105292
L 1023.210909 228.813062
L 1023.210909 180.487457
L 1023.210909 180.487457
L 1013.920184 181.812541
L 1004.629458 181.57897
L 995.338733 179.35646
L 986.048007 174.787965
L 976.757282 167.646053
L 967.466556 157.884125
L 958.175831 145.673764
L 948.885106 131.402867
L 939.59438 112.873723
L 930.303655 95.170501
L 921.012929 79.49549
L 911.722204 66.682544
L 902.431478 56.662907
L 893.140753 47.388882
L 883.850028 41.756333
L 874.559302 40.114545
L 865.268577 42.54104
L 855.977851 48.858819
L 846.687126 58.674766
L 837.3964 71.436418
L 828.105675 86.497992
L 818.814949 103.186083
L 809.524224 120.853858
L 800.233499 133.249121
L 790.942773 144.123614
L 781.652048 154.762617
L 772.361322 165.363186
L 763.070597 176.136768
L 753.779871 187.25611
L 744.489146 198.809549
L 735.198421 210.76726
L 725.907695 222.962342
L 716.61697 235.088231
L 707.326244 246.712599
L 698.035519 257.306699
L 688.744793 266.287914
L 679.454068 273.072027
L 670.163343 277.129918
L 660.872617 275.085142
L 651.581892 268.323691
L 642.291166 259.594648
L 633.000441 249.189385
L 623.709715 237.447954
L 614.41899 224.741254
L 605.128264 211.453769
L 595.837539 197.968751
L 586.546814 184.655341
L 577.256088 171.303124
L 567.965363 158.405347
L 558.674637 148.002391
L 549.383912 139.598748
L 540.093186 131.653153
L 530.802461 125.354092
L 521.511736 120.762054
L 512.22101 117.87299
L 502.930285 116.628211
L 493.639559 116.926236
L 484.348834 118.637698
L 475.058108 121.620713
L 465.767383 125.733566
L 456.476657 130.842018
L 447.185932 136.819732
L 437.895207 143.54213
L 428.604481 150.875875
L 419.313756 158.667493
L 410.02303 166.735189
L 400.732305 174.867201
L 391.441579 182.828413
L 382.150854 190.374045
L 372.860129 196.35405
L 363.569403 200.828063
L 354.278678 205.358386
L 344.987952 209.598734
L 335.697227 213.190008
L 326.406501 215.821557
L 317.115776 217.282568
L 307.825051 217.48438
L 298.534325 216.511977
L 289.2436 214.663942
L 279.952874 212.172313
L 270.662149 209.109794
L 261.371423 205.366527
L 252.080698 201.091142
L 242.789972 196.382923
L 233.499247 191.364244
L 224.208522 186.183224
L 214.917796 181.005257
L 205.627071 175.998967
L 196.336345 171.319852
L 187.04562 167.095019
L 177.754894 163.411931
L 168.464169 160.313051
L 159.173444 157.796907
L 149.882718 155.824812
L 140.591993 154.331429
L 131.301267 153.236903
L 122.010542 152.458283
L 112.719816 151.918476
L 103.429091 151.551852
z
" clip-path="url(#p7c2dfd3e36)" style="fill: #ff7f0e; fill-opacity: 0.5"/>
   </g>
   <g id="matplotlib.axis_1">
    <g id="xtick_1">
     <g id="line2d_1">
      <defs>
       <path id="m74da78051d" d="M 0 0
L 0 3.5
" style="stroke: #000000; stroke-width: 0.8"/>
      </defs>
      <g>
       <use xlink:href="#m74da78051d" x="103.429091" y="318.04" style="stroke: #000000; stroke-width: 0.8"/>
      </g>
     </g>
     <g id="text_1">
      <!-- 0 -->
      <g transform="translate(100.247841 332.638438) scale(0.1 -0.1)">
       <defs>
        <path id="DejaVuSans-30" d="M 2034 4250
Q 1547 4250 1301 3770
Q 1056 3291 1056 2328
Q 1056 1369 1301 889
Q 1547 409 2034 409
Q 2525 409 2770 889
Q 3016 1369 3016 2328
Q 3016 3291 2770 3770
Q 2525 4250 2034 4250
z
M 2034 4750
Q 2819 4750 3233 4129
Q 3647 3509 3647 2328
Q 3647 1150 3233 529
Q 2819 -91 2034 -91
Q 1250 -91 836 529
Q 422 1150 422 2328
Q 422 3509 836 4129
Q 1250 4750 2034 4750
z
" transform="scale(0.015625)"/>
       </defs>
       <use xlink:href="#DejaVuSans-30"/>
      </g>
     </g>
    </g>
    <g id="xtick_2">
     <g id="line2d_2">
      <g>
       <use xlink:href="#m74da78051d" x="287.385455" y="318.04" style="stroke: #000000; stroke-width: 0.8"/>
      </g>
     </g>
     <g id="text_2">
      <!-- 2 -->
      <g transform="translate(284.204205 332.638438) scale(0.1 -0.1)">
       <defs>
        <path id="DejaVuSans-32" d="M 1228 531
L 3431 531
L 3431 0
L 469 0
L 469 531
Q 828 903 1448 1529
Q 2069 2156 2228 2338
Q 2531 2678 2651 2914
Q 2772 3150 2772 3378
Q 2772 3750 2511 3984
Q 2250 4219 1831 4219
Q 1534 4219 1204 4116
Q 875 4013 500 3803
L 500 4441
Q 881 4594 1212 4672
Q 1544 4750 1819 4750
Q 2544 4750 2975 4387
Q 3406 4025 3406 3419
Q 3406 3131 3298 2873
Q 3191 2616 2906 2266
Q 2828 2175 2409 1742
Q 1991 1309 1228 531
z
" transform="scale(0.015625)"/>
       </defs>
       <use xlink:href="#DejaVuSans-32"/>
      </g>
     </g>
    </g>
    <g id="xtick_3">
     <g id="line2d_3">
      <g>
       <use xlink:href="#m74da78051d" x="471.341818" y="318.04" style="stroke: #000000; stroke-width: 0.8"/>
      </g>
     </g>
     <g id="text_3">
      <!-- 4 -->
      <g transform="translate(468.160568 332.638438) scale(0.1 -0.1)">
       <defs>
        <path id="DejaVuSans-34" d="M 2419 4116
L 825 1625
L 2419 1625
L 2419 4116
z
M 2253 4666
L 3047 4666
L 3047 1625
L 3713 1625
L 3713 1100
L 3047 1100
L 3047 0
L 2419 0
L 2419 1100
L 313 1100
L 313 1709
L 2253 4666
z
" transform="scale(0.015625)"/>
       </defs>
       <use xlink:href="#DejaVuSans-34"/>
      </g>
     </g>
    </g>
    <g id="xtick_4">
     <g id="line2d_4">
      <g>
       <use xlink:href="#m74da78051d" x="655.298182" y="318.04" style="stroke: #000000; stroke-width: 0.8"/>
      </g>
     </g>
     <g id="text_4">
      <!-- 6 -->
      <g transform="translate(652.116932 332.638438) scale(0.1 -0.1)">
       <defs>
        <path id="DejaVuSans-36" d="M 2113 2584
Q 1688 2584 1439 2293
Q 1191 2003 1191 1497
Q 1191 994 1439 701
Q 1688 409 2113 409
Q 2538 409 2786 701
Q 3034 994 3034 1497
Q 3034 2003 2786 2293
Q 2538 2584 2113 2584
z
M 3366 4563
L 3366 3988
Q 3128 4100 2886 4159
Q 2644 4219 2406 4219
Q 1781 4219 1451 3797
Q 1122 3375 1075 2522
Q 1259 2794 1537 2939
Q 1816 3084 2150 3084
Q 2853 3084 3261 2657
Q 3669 2231 3669 1497
Q 3669 778 3244 343
Q 2819 -91 2113 -91
Q 1303 -91 875 529
Q 447 1150 447 2328
Q 447 3434 972 4092
Q 1497 4750 2381 4750
Q 2619 4750 2861 4703
Q 3103 4656 3366 4563
z
" transform="scale(0.015625)"/>
       </defs>
       <use xlink:href="#DejaVuSans-36"/>
      </g>
     </g>
    </g>
    <g id="xtick_5">
     <g id="line2d_5">
      <g>
       <use xlink:href="#m74da78051d" x="839.254545" y="318.04" style="stroke: #000000; stroke-width: 0.8"/>
      </g>
     </g>
     <g id="text_5">
      <!-- 8 -->
      <g transform="translate(836.073295 332.638438) scale(0.1 -0.1)">
       <defs>
        <path id="DejaVuSans-38" d="M 2034 2216
Q 1584 2216 1326 1975
Q 1069 1734 1069 1313
Q 1069 891 1326 650
Q 1584 409 2034 409
Q 2484 409 2743 651
Q 3003 894 3003 1313
Q 3003 1734 2745 1975
Q 2488 2216 2034 2216
z
M 1403 2484
Q 997 2584 770 2862
Q 544 3141 544 3541
Q 544 4100 942 4425
Q 1341 4750 2034 4750
Q 2731 4750 3128 4425
Q 3525 4100 3525 3541
Q 3525 3141 3298 2862
Q 3072 2584 2669 2484
Q 3125 2378 3379 2068
Q 3634 1759 3634 1313
Q 3634 634 3220 271
Q 2806 -91 2034 -91
Q 1263 -91 848 271
Q 434 634 434 1313
Q 434 1759 690 2068
Q 947 2378 1403 2484
z
M 1172 3481
Q 1172 3119 1398 2916
Q 1625 2713 2034 2713
Q 2441 2713 2670 2916
Q 2900 3119 2900 3481
Q 2900 3844 2670 4047
Q 2441 4250 2034 4250
Q 1625 4250 1398 4047
Q 1172 3844 1172 3481
z
" transform="scale(0.015625)"/>
       </defs>
       <use xlink:href="#DejaVuSans-38"/>
      </g>
     </g>
    </g>
    <g id="xtick_6">
     <g id="line2d_6">
      <g>
       <use xlink:href="#m74da78051d" x="1023.210909" y="318.04" style="stroke: #000000; stroke-width: 0.8"/>
      </g>
     </g>
     <g id="text_6">
      <!-- 10 -->
      <g transform="translate(1016.848409 332.638438) scale(0.1 -0.1)">
       <defs>
        <path id="DejaVuSans-31" d="M 794 531
L 1825 531
L 1825 4091
L 703 3866
L 703 4441
L 1819 4666
L 2450 4666
L 2450 531
L 3481 531
L 3481 0
L 794 0
L 794 531
z
" transform="scale(0.015625)"/>
       </defs>
       <use xlink:href="#DejaVuSans-31"/>
       <use xlink:href="#DejaVuSans-30" transform="translate(63.623047 0)"/>
      </g>
     </g>
    </g>
    <g id="text_7">
     <!-- $x$ -->
     <g transform="translate(560.32 346.316563) scale(0.1 -0.1)">
      <defs>
       <path id="DejaVuSans-Oblique-78" d="M 3841 3500
L 2234 1784
L 3219 0
L 2559 0
L 1819 1388
L 531 0
L -166 0
L 1556 1844
L 641 3500
L 1300 3500
L 1972 2234
L 3144 3500
L 3841 3500
z
" transform="scale(0.015625)"/>
      </defs>
      <use xlink:href="#DejaVuSans-Oblique-78" transform="translate(0 0.3125)"/>
     </g>
    </g>
   </g>
   <g id="matplotlib.axis_2">
    <g id="ytick_1">
     <g id="line2d_7">
      <defs>
       <path id="m0c08790a55" d="M 0 0
L -3.5 0
" style="stroke: #000000; stroke-width: 0.8"/>
      </defs>
      <g>
       <use xlink:href="#m0c08790a55" x="57.44" y="303.24465" style="stroke: #000000; stroke-width: 0.8"/>
      </g>
     </g>
     <g id="text_8">
      <!-- −7.5 -->
      <g transform="translate(26.157188 307.043868) scale(0.1 -0.1)">
       <defs>
        <path id="DejaVuSans-2212" d="M 678 2272
L 4684 2272
L 4684 1741
L 678 1741
L 678 2272
z
" transform="scale(0.015625)"/>
        <path id="DejaVuSans-37" d="M 525 4666
L 3525 4666
L 3525 4397
L 1831 0
L 1172 0
L 2766 4134
L 525 4134
L 525 4666
z
" transform="scale(0.015625)"/>
        <path id="DejaVuSans-2e" d="M 684 794
L 1344 794
L 1344 0
L 684 0
L 684 794
z
" transform="scale(0.015625)"/>
        <path id="DejaVuSans-35" d="M 691 4666
L 3169 4666
L 3169 4134
L 1269 4134
L 1269 2991
Q 1406 3038 1543 3061
Q 1681 3084 1819 3084
Q 2600 3084 3056 2656
Q 3513 2228 3513 1497
Q 3513 744 3044 326
Q 2575 -91 1722 -91
Q 1428 -91 1123 -41
Q 819 9 494 109
L 494 744
Q 775 591 1075 516
Q 1375 441 1709 441
Q 2250 441 2565 725
Q 2881 1009 2881 1497
Q 2881 1984 2565 2268
Q 2250 2553 1709 2553
Q 1456 2553 1204 2497
Q 953 2441 691 2322
L 691 4666
z
" transform="scale(0.015625)"/>
       </defs>
       <use xlink:href="#DejaVuSans-2212"/>
       <use xlink:href="#DejaVuSans-37" transform="translate(83.789062 0)"/>
       <use xlink:href="#DejaVuSans-2e" transform="translate(147.412109 0)"/>
       <use xlink:href="#DejaVuSans-35" transform="translate(179.199219 0)"/>
      </g>
     </g>
    </g>
    <g id="ytick_2">
     <g id="line2d_8">
      <g>
       <use xlink:href="#m0c08790a55" x="57.44" y="262.967532" style="stroke: #000000; stroke-width: 0.8"/>
      </g>
     </g>
     <g id="text_9">
      <!-- −5.0 -->
      <g transform="translate(26.157188 266.76675) scale(0.1 -0.1)">
       <use xlink:href="#DejaVuSans-2212"/>
       <use xlink:href="#DejaVuSans-35" transform="translate(83.789062 0)"/>
       <use xlink:href="#DejaVuSans-2e" transform="translate(147.412109 0)"/>
       <use xlink:href="#DejaVuSans-30" transform="translate(179.199219 0)"/>
      </g>
     </g>
    </g>
    <g id="ytick_3">
     <g id="line2d_9">
      <g>
       <use xlink:href="#m0c08790a55" x="57.44" y="222.690413" style="stroke: #000000; stroke-width: 0.8"/>
      </g>
     </g>
     <g id="text_10">
      <!-- −2.5 -->
      <g transform="translate(26.157188 226.489632) scale(0.1 -0.1)">
       <use xlink:href="#DejaVuSans-2212"/>
       <use xlink:href="#DejaVuSans-32" transform="translate(83.789062 0)"/>
       <use xlink:href="#DejaVuSans-2e" transform="translate(147.412109 0)"/>
       <use xlink:href="#DejaVuSans-35" transform="translate(179.199219 0)"/>
      </g>
     </g>
    </g>
    <g id="ytick_4">
     <g id="line2d_10">
      <g>
       <use xlink:href="#m0c08790a55" x="57.44" y="182.413295" style="stroke: #000000; stroke-width: 0.8"/>
      </g>
     </g>
     <g id="text_11">
      <!-- 0.0 -->
      <g transform="translate(34.536875 186.212514) scale(0.1 -0.1)">
       <use xlink:href="#DejaVuSans-30"/>
       <use xlink:href="#DejaVuSans-2e" transform="translate(63.623047 0)"/>
       <use xlink:href="#DejaVuSans-30" transform="translate(95.410156 0)"/>
      </g>
     </g>
    </g>
    <g id="ytick_5">
     <g id="line2d_11">
      <g>
       <use xlink:href="#m0c08790a55" x="57.44" y="142.136177" style="stroke: #000000; stroke-width: 0.8"/>
      </g>
     </g>
     <g id="text_12">
      <!-- 2.5 -->
      <g transform="translate(34.536875 145.935396) scale(0.1 -0.1)">
       <use xlink:href="#DejaVuSans-32"/>
       <use xlink:href="#DejaVuSans-2e" transform="translate(63.623047 0)"/>
       <use xlink:href="#DejaVuSans-35" transform="translate(95.410156 0)"/>
      </g>
     </g>
    </g>
    <g id="ytick_6">
     <g id="line2d_12">
      <g>
       <use xlink:href="#m0c08790a55" x="57.44" y="101.859059" style="stroke: #000000; stroke-width: 0.8"/>
      </g>
     </g>
     <g id="text_13">
      <!-- 5.0 -->
      <g transform="translate(34.536875 105.658278) scale(0.1 -0.1)">
       <use xlink:href="#DejaVuSans-35"/>
       <use xlink:href="#DejaVuSans-2e" transform="translate(63.623047 0)"/>
       <use xlink:href="#DejaVuSans-30" transform="translate(95.410156 0)"/>
      </g>
     </g>
    </g>
    <g id="ytick_7">
     <g id="line2d_13">
      <g>
       <use xlink:href="#m0c08790a55" x="57.44" y="61.581941" style="stroke: #000000; stroke-width: 0.8"/>
      </g>
     </g>
     <g id="text_14">
      <!-- 7.5 -->
      <g transform="translate(34.536875 65.38116) scale(0.1 -0.1)">
       <use xlink:href="#DejaVuSans-37"/>
       <use xlink:href="#DejaVuSans-2e" transform="translate(63.623047 0)"/>
       <use xlink:href="#DejaVuSans-35" transform="translate(95.410156 0)"/>
      </g>
     </g>
    </g>
    <g id="text_15">
     <!-- $f(x)$ -->
     <g transform="translate(20.0775 181.11) rotate(-90) scale(0.1 -0.1)">
      <defs>
       <path id="DejaVuSans-Oblique-66" d="M 3059 4863
L 2969 4384
L 2419 4384
Q 2106 4384 1964 4261
Q 1822 4138 1753 3809
L 1691 3500
L 2638 3500
L 2553 3053
L 1606 3053
L 1013 0
L 434 0
L 1031 3053
L 481 3053
L 563 3500
L 1113 3500
L 1159 3744
Q 1278 4363 1576 4613
Q 1875 4863 2516 4863
L 3059 4863
z
" transform="scale(0.015625)"/>
       <path id="DejaVuSans-28" d="M 1984 4856
Q 1566 4138 1362 3434
Q 1159 2731 1159 2009
Q 1159 1288 1364 580
Q 1569 -128 1984 -844
L 1484 -844
Q 1016 -109 783 600
Q 550 1309 550 2009
Q 550 2706 781 3412
Q 1013 4119 1484 4856
L 1984 4856
z
" transform="scale(0.015625)"/>
       <path id="DejaVuSans-29" d="M 513 4856
L 1013 4856
Q 1481 4119 1714 3412
Q 1947 2706 1947 2009
Q 1947 1309 1714 600
Q 1481 -109 1013 -844
L 513 -844
Q 928 -128 1133 580
Q 1338 1288 1338 2009
Q 1338 2731 1133 3434
Q 928 4138 513 4856
z
" transform="scale(0.015625)"/>
      </defs>
      <use xlink:href="#DejaVuSans-Oblique-66" transform="translate(0 0.015625)"/>
      <use xlink:href="#DejaVuSans-28" transform="translate(35.205078 0.015625)"/>
      <use xlink:href="#DejaVuSans-Oblique-78" transform="translate(74.21875 0.015625)"/>
      <use xlink:href="#DejaVuSans-29" transform="translate(133.398438 0.015625)"/>
     </g>
    </g>
   </g>
   <g id="line2d_14">
    <path d="M 103.429091 182.413295
L 120.001736 179.615817
L 129.208761 178.290969
L 136.574382 177.435301
L 143.940002 176.81049
L 150.384919 176.484464
L 156.829837 176.388045
L 163.274755 176.539303
L 168.79897 176.87633
L 174.323185 177.410665
L 179.8474 178.144931
L 185.371615 179.078837
L 190.89583 180.209134
L 197.340748 181.767575
L 203.785666 183.569827
L 210.230583 185.595668
L 217.596203 188.152025
L 225.882526 191.280568
L 236.010254 195.359924
L 263.63133 206.638925
L 270.99695 209.345115
L 277.441867 211.497907
L 283.886785 213.400543
L 289.411 214.798012
L 294.935215 215.951681
L 299.538728 216.708732
L 304.14224 217.265734
L 308.745753 217.610507
L 313.349266 217.732162
L 317.952778 217.621203
L 322.556291 217.269635
L 327.159803 216.671058
L 331.763316 215.820747
L 336.366829 214.715727
L 340.970341 213.354832
L 345.573854 211.738754
L 350.177366 209.870079
L 354.780879 207.753308
L 359.384392 205.394864
L 363.987904 202.803093
L 368.591417 199.988235
L 374.115632 196.333113
L 379.639847 192.398653
L 385.164062 188.212843
L 391.60898 183.0538
L 398.9746 176.862552
L 408.181625 168.81509
L 433.040593 146.879208
L 440.406213 140.772267
L 446.851131 135.737407
L 452.375346 131.710166
L 456.978859 128.59213
L 461.582371 125.71747
L 466.185884 123.110436
L 470.789397 120.794058
L 474.472207 119.164822
L 478.155017 117.745852
L 481.837827 116.546821
L 485.520637 115.576657
L 489.203447 114.843493
L 492.886257 114.354622
L 496.569067 114.116454
L 500.251877 114.134475
L 503.934687 114.413214
L 507.617497 114.956204
L 511.300308 115.76596
L 514.983118 116.843947
L 518.665928 118.190564
L 522.348738 119.805126
L 526.031548 121.685848
L 529.714358 123.829842
L 533.397168 126.233109
L 537.079978 128.890545
L 540.762788 131.79594
L 544.445598 134.941992
L 549.049111 139.200119
L 553.652624 143.802423
L 558.256136 148.727716
L 562.859649 153.952396
L 568.383864 160.580571
L 573.908079 167.553562
L 580.352997 176.053558
L 587.718617 186.137422
L 598.767047 201.694273
L 613.498287 222.42395
L 620.863908 232.420058
L 627.308825 240.792518
L 632.83304 247.605522
L 637.436553 252.976426
L 642.040066 258.029204
L 646.643578 262.728324
L 650.326388 266.210113
L 654.009198 269.427245
L 657.692008 272.363985
L 661.374818 275.005487
L 665.057629 277.337867
L 668.740439 279.348266
L 671.502546 280.637641
L 674.264654 281.73471
L 677.026761 282.635305
L 679.788869 283.335645
L 682.550976 283.832347
L 685.313084 284.122443
L 688.075192 284.203382
L 690.837299 284.073045
L 693.599407 283.729752
L 696.361514 283.172268
L 699.123622 282.399808
L 701.885729 281.412047
L 704.647837 280.209122
L 707.409944 278.791635
L 710.172052 277.160656
L 712.93416 275.317723
L 715.696267 273.264848
L 719.379077 270.205455
L 723.061887 266.784459
L 726.744697 263.010497
L 730.427508 258.893652
L 734.110318 254.445433
L 737.793128 249.678743
L 742.39664 243.294389
L 747.000153 236.465556
L 751.603665 229.226066
L 756.207178 221.612651
L 761.731393 212.038714
L 768.176311 200.358148
L 775.541931 186.487402
L 785.669659 166.856515
L 802.242304 134.654367
L 809.607924 120.851142
L 816.052842 109.273849
L 821.577057 99.834936
L 826.18057 92.376908
L 830.784082 85.341079
L 835.387595 78.773777
L 839.070405 73.887012
L 842.753215 69.349859
L 846.436025 65.182668
L 850.118835 61.404594
L 852.880943 58.837197
L 855.64305 56.505801
L 858.405158 54.416995
L 861.167265 52.576906
L 863.929373 50.991178
L 866.691481 49.664954
L 869.453588 48.602869
L 872.215696 47.809031
L 874.977803 47.287011
L 877.739911 47.039829
L 880.502018 47.069949
L 883.264126 47.379264
L 886.026234 47.969094
L 888.788341 48.840175
L 891.550449 49.992655
L 894.312556 51.426092
L 897.074664 53.139445
L 899.836771 55.131082
L 902.598879 57.398768
L 905.360986 59.939676
L 908.123094 62.750384
L 910.885202 65.826878
L 913.647309 69.164559
L 917.330119 74.012059
L 921.012929 79.300763
L 924.695739 85.015045
L 928.378549 91.137546
L 932.06136 97.649233
L 936.664872 106.304522
L 941.268385 115.491789
L 945.871897 125.163718
L 951.396112 137.338245
L 956.920328 150.044263
L 963.365245 165.407374
L 971.651568 185.757544
L 996.510536 247.254828
L 1002.955454 262.405383
L 1008.479669 274.857951
L 1013.083181 284.774919
L 1017.686694 294.207918
L 1022.290207 303.097715
L 1023.210909 304.805455
L 1023.210909 304.805455
" clip-path="url(#p7c2dfd3e36)" style="fill: none; stroke-dasharray: 1.5,2.475; stroke-dashoffset: 0; stroke: #1f77b4; stroke-width: 1.5"/>
   </g>
   <g id="line2d_15">
    <path d="M 103.429091 182.908474
L 112.719816 183.089162
L 122.010542 183.320109
L 131.301267 183.611269
L 140.591993 183.974554
L 149.882718 184.42474
L 159.173444 184.980605
L 168.464169 185.666089
L 177.754894 186.511106
L 187.04562 187.551495
L 196.336345 188.827519
L 205.627071 190.380381
L 214.917796 192.246445
L 224.208522 194.449295
L 233.499247 196.990287
L 242.789972 199.838904
L 252.080698 202.924679
L 261.371423 206.132727
L 270.662149 209.304729
L 279.952874 212.246601
L 289.2436 214.743002
L 298.534325 216.577548
L 307.825051 217.556278
L 317.115776 217.530947
L 326.406501 216.418308
L 335.697227 214.211893
L 344.987952 210.983845
L 354.278678 206.876005
L 363.569403 202.081355
L 372.860129 196.818608
L 382.150854 191.30408
L 391.441579 185.725443
L 400.732305 180.22169
L 410.02303 174.872576
L 419.313756 169.699205
L 428.604481 164.675605
L 437.895207 159.749364
L 447.185932 154.868002
L 456.476657 150.006888
L 465.767383 145.194285
L 475.058108 140.529473
L 484.348834 136.190875
L 493.639559 132.43242
L 502.930285 129.567966
L 512.22101 127.945165
L 521.511736 127.911579
L 530.802461 129.776858
L 540.093186 133.775373
L 549.383912 140.033637
L 558.674637 148.546277
L 567.965363 159.163345
L 577.256088 171.590394
L 586.546814 185.401392
L 595.837539 200.063235
L 605.128264 214.96955
L 614.41899 229.480684
L 623.709715 242.966408
L 633.000441 254.84765
L 642.291166 264.633798
L 651.581892 271.952447
L 660.872617 276.569078
L 670.163343 278.395001
L 679.454068 277.482878
L 688.744793 274.01031
L 698.035519 268.253178
L 707.326244 260.551561
L 716.61697 251.271948
L 725.907695 240.770013
L 735.198421 229.358292
L 744.489146 217.282676
L 753.779871 204.710741
L 763.070597 191.733601
L 772.361322 178.381408
L 781.652048 164.650864
L 790.942773 150.541422
L 800.233499 136.095369
L 809.524224 121.435921
L 818.814949 106.797014
L 828.105675 92.538892
L 837.3964 79.144874
L 846.687126 67.196937
L 855.977851 57.330742
L 865.268577 50.174021
L 874.559302 46.275425
L 883.850028 46.033282
L 893.140753 49.634718
L 902.431478 57.014934
L 911.722204 67.843938
L 921.012929 81.544192
L 930.303655 97.337926
L 939.59438 114.318249
L 948.885106 131.534513
L 958.175831 148.080291
L 967.466556 163.172321
L 976.757282 176.210641
L 986.048007 186.813585
L 995.338733 194.825501
L 1004.629458 200.29925
L 1013.920184 203.458917
L 1023.210909 204.65026
" clip-path="url(#p7c2dfd3e36)" style="fill: none; stroke: #ff7f0e; stroke-width: 1.5; stroke-linecap: square"/>
   </g>
   <g id="patch_3">
    <path d="M 57.44 318.04
L 57.44 26.88
" style="fill: none; stroke: #000000; stroke-width: 0.8; stroke-linejoin: miter; stroke-linecap: square"/>
   </g>
   <g id="patch_4">
    <path d="M 1069.2 318.04
L 1069.2 26.88
" style="fill: none; stroke: #000000; stroke-width: 0.8; stroke-linejoin: miter; stroke-linecap: square"/>
   </g>
   <g id="patch_5">
    <path d="M 57.44 318.04
L 1069.2 318.04
" style="fill: none; stroke: #000000; stroke-width: 0.8; stroke-linejoin: miter; stroke-linecap: square"/>
   </g>
   <g id="patch_6">
    <path d="M 57.44 26.88
L 1069.2 26.88
" style="fill: none; stroke: #000000; stroke-width: 0.8; stroke-linejoin: miter; stroke-linecap: square"/>
   </g>
   <g id="text_16">
    <!-- Gaussian process regression on a noisy dataset -->
    <g transform="translate(420.398125 20.88) scale(0.12 -0.12)">
     <defs>
      <path id="DejaVuSans-47" d="M 3809 666
L 3809 1919
L 2778 1919
L 2778 2438
L 4434 2438
L 4434 434
Q 4069 175 3628 42
Q 3188 -91 2688 -91
Q 1594 -91 976 548
Q 359 1188 359 2328
Q 359 3472 976 4111
Q 1594 4750 2688 4750
Q 3144 4750 3555 4637
Q 3966 4525 4313 4306
L 4313 3634
Q 3963 3931 3569 4081
Q 3175 4231 2741 4231
Q 1884 4231 1454 3753
Q 1025 3275 1025 2328
Q 1025 1384 1454 906
Q 1884 428 2741 428
Q 3075 428 3337 486
Q 3600 544 3809 666
z
" transform="scale(0.015625)"/>
      <path id="DejaVuSans-61" d="M 2194 1759
Q 1497 1759 1228 1600
Q 959 1441 959 1056
Q 959 750 1161 570
Q 1363 391 1709 391
Q 2188 391 2477 730
Q 2766 1069 2766 1631
L 2766 1759
L 2194 1759
z
M 3341 1997
L 3341 0
L 2766 0
L 2766 531
Q 2569 213 2275 61
Q 1981 -91 1556 -91
Q 1019 -91 701 211
Q 384 513 384 1019
Q 384 1609 779 1909
Q 1175 2209 1959 2209
L 2766 2209
L 2766 2266
Q 2766 2663 2505 2880
Q 2244 3097 1772 3097
Q 1472 3097 1187 3025
Q 903 2953 641 2809
L 641 3341
Q 956 3463 1253 3523
Q 1550 3584 1831 3584
Q 2591 3584 2966 3190
Q 3341 2797 3341 1997
z
" transform="scale(0.015625)"/>
      <path id="DejaVuSans-75" d="M 544 1381
L 544 3500
L 1119 3500
L 1119 1403
Q 1119 906 1312 657
Q 1506 409 1894 409
Q 2359 409 2629 706
Q 2900 1003 2900 1516
L 2900 3500
L 3475 3500
L 3475 0
L 2900 0
L 2900 538
Q 2691 219 2414 64
Q 2138 -91 1772 -91
Q 1169 -91 856 284
Q 544 659 544 1381
z
M 1991 3584
L 1991 3584
z
" transform="scale(0.015625)"/>
      <path id="DejaVuSans-73" d="M 2834 3397
L 2834 2853
Q 2591 2978 2328 3040
Q 2066 3103 1784 3103
Q 1356 3103 1142 2972
Q 928 2841 928 2578
Q 928 2378 1081 2264
Q 1234 2150 1697 2047
L 1894 2003
Q 2506 1872 2764 1633
Q 3022 1394 3022 966
Q 3022 478 2636 193
Q 2250 -91 1575 -91
Q 1294 -91 989 -36
Q 684 19 347 128
L 347 722
Q 666 556 975 473
Q 1284 391 1588 391
Q 1994 391 2212 530
Q 2431 669 2431 922
Q 2431 1156 2273 1281
Q 2116 1406 1581 1522
L 1381 1569
Q 847 1681 609 1914
Q 372 2147 372 2553
Q 372 3047 722 3315
Q 1072 3584 1716 3584
Q 2034 3584 2315 3537
Q 2597 3491 2834 3397
z
" transform="scale(0.015625)"/>
      <path id="DejaVuSans-69" d="M 603 3500
L 1178 3500
L 1178 0
L 603 0
L 603 3500
z
M 603 4863
L 1178 4863
L 1178 4134
L 603 4134
L 603 4863
z
" transform="scale(0.015625)"/>
      <path id="DejaVuSans-6e" d="M 3513 2113
L 3513 0
L 2938 0
L 2938 2094
Q 2938 2591 2744 2837
Q 2550 3084 2163 3084
Q 1697 3084 1428 2787
Q 1159 2491 1159 1978
L 1159 0
L 581 0
L 581 3500
L 1159 3500
L 1159 2956
Q 1366 3272 1645 3428
Q 1925 3584 2291 3584
Q 2894 3584 3203 3211
Q 3513 2838 3513 2113
z
" transform="scale(0.015625)"/>
      <path id="DejaVuSans-20" transform="scale(0.015625)"/>
      <path id="DejaVuSans-70" d="M 1159 525
L 1159 -1331
L 581 -1331
L 581 3500
L 1159 3500
L 1159 2969
Q 1341 3281 1617 3432
Q 1894 3584 2278 3584
Q 2916 3584 3314 3078
Q 3713 2572 3713 1747
Q 3713 922 3314 415
Q 2916 -91 2278 -91
Q 1894 -91 1617 61
Q 1341 213 1159 525
z
M 3116 1747
Q 3116 2381 2855 2742
Q 2594 3103 2138 3103
Q 1681 3103 1420 2742
Q 1159 2381 1159 1747
Q 1159 1113 1420 752
Q 1681 391 2138 391
Q 2594 391 2855 752
Q 3116 1113 3116 1747
z
" transform="scale(0.015625)"/>
      <path id="DejaVuSans-72" d="M 2631 2963
Q 2534 3019 2420 3045
Q 2306 3072 2169 3072
Q 1681 3072 1420 2755
Q 1159 2438 1159 1844
L 1159 0
L 581 0
L 581 3500
L 1159 3500
L 1159 2956
Q 1341 3275 1631 3429
Q 1922 3584 2338 3584
Q 2397 3584 2469 3576
Q 2541 3569 2628 3553
L 2631 2963
z
" transform="scale(0.015625)"/>
      <path id="DejaVuSans-6f" d="M 1959 3097
Q 1497 3097 1228 2736
Q 959 2375 959 1747
Q 959 1119 1226 758
Q 1494 397 1959 397
Q 2419 397 2687 759
Q 2956 1122 2956 1747
Q 2956 2369 2687 2733
Q 2419 3097 1959 3097
z
M 1959 3584
Q 2709 3584 3137 3096
Q 3566 2609 3566 1747
Q 3566 888 3137 398
Q 2709 -91 1959 -91
Q 1206 -91 779 398
Q 353 888 353 1747
Q 353 2609 779 3096
Q 1206 3584 1959 3584
z
" transform="scale(0.015625)"/>
      <path id="DejaVuSans-63" d="M 3122 3366
L 3122 2828
Q 2878 2963 2633 3030
Q 2388 3097 2138 3097
Q 1578 3097 1268 2742
Q 959 2388 959 1747
Q 959 1106 1268 751
Q 1578 397 2138 397
Q 2388 397 2633 464
Q 2878 531 3122 666
L 3122 134
Q 2881 22 2623 -34
Q 2366 -91 2075 -91
Q 1284 -91 818 406
Q 353 903 353 1747
Q 353 2603 823 3093
Q 1294 3584 2113 3584
Q 2378 3584 2631 3529
Q 2884 3475 3122 3366
z
" transform="scale(0.015625)"/>
      <path id="DejaVuSans-65" d="M 3597 1894
L 3597 1613
L 953 1613
Q 991 1019 1311 708
Q 1631 397 2203 397
Q 2534 397 2845 478
Q 3156 559 3463 722
L 3463 178
Q 3153 47 2828 -22
Q 2503 -91 2169 -91
Q 1331 -91 842 396
Q 353 884 353 1716
Q 353 2575 817 3079
Q 1281 3584 2069 3584
Q 2775 3584 3186 3129
Q 3597 2675 3597 1894
z
M 3022 2063
Q 3016 2534 2758 2815
Q 2500 3097 2075 3097
Q 1594 3097 1305 2825
Q 1016 2553 972 2059
L 3022 2063
z
" transform="scale(0.015625)"/>
      <path id="DejaVuSans-67" d="M 2906 1791
Q 2906 2416 2648 2759
Q 2391 3103 1925 3103
Q 1463 3103 1205 2759
Q 947 2416 947 1791
Q 947 1169 1205 825
Q 1463 481 1925 481
Q 2391 481 2648 825
Q 2906 1169 2906 1791
z
M 3481 434
Q 3481 -459 3084 -895
Q 2688 -1331 1869 -1331
Q 1566 -1331 1297 -1286
Q 1028 -1241 775 -1147
L 775 -588
Q 1028 -725 1275 -790
Q 1522 -856 1778 -856
Q 2344 -856 2625 -561
Q 2906 -266 2906 331
L 2906 616
Q 2728 306 2450 153
Q 2172 0 1784 0
Q 1141 0 747 490
Q 353 981 353 1791
Q 353 2603 747 3093
Q 1141 3584 1784 3584
Q 2172 3584 2450 3431
Q 2728 3278 2906 2969
L 2906 3500
L 3481 3500
L 3481 434
z
" transform="scale(0.015625)"/>
      <path id="DejaVuSans-79" d="M 2059 -325
Q 1816 -950 1584 -1140
Q 1353 -1331 966 -1331
L 506 -1331
L 506 -850
L 844 -850
Q 1081 -850 1212 -737
Q 1344 -625 1503 -206
L 1606 56
L 191 3500
L 800 3500
L 1894 763
L 2988 3500
L 3597 3500
L 2059 -325
z
" transform="scale(0.015625)"/>
      <path id="DejaVuSans-64" d="M 2906 2969
L 2906 4863
L 3481 4863
L 3481 0
L 2906 0
L 2906 525
Q 2725 213 2448 61
Q 2172 -91 1784 -91
Q 1150 -91 751 415
Q 353 922 353 1747
Q 353 2572 751 3078
Q 1150 3584 1784 3584
Q 2172 3584 2448 3432
Q 2725 3281 2906 2969
z
M 947 1747
Q 947 1113 1208 752
Q 1469 391 1925 391
Q 2381 391 2643 752
Q 2906 1113 2906 1747
Q 2906 2381 2643 2742
Q 2381 3103 1925 3103
Q 1469 3103 1208 2742
Q 947 2381 947 1747
z
" transform="scale(0.015625)"/>
      <path id="DejaVuSans-74" d="M 1172 4494
L 1172 3500
L 2356 3500
L 2356 3053
L 1172 3053
L 1172 1153
Q 1172 725 1289 603
Q 1406 481 1766 481
L 2356 481
L 2356 0
L 1766 0
Q 1100 0 847 248
Q 594 497 594 1153
L 594 3053
L 172 3053
L 172 3500
L 594 3500
L 594 4494
L 1172 4494
z
" transform="scale(0.015625)"/>
     </defs>
     <use xlink:href="#DejaVuSans-47"/>
     <use xlink:href="#DejaVuSans-61" transform="translate(77.490234 0)"/>
     <use xlink:href="#DejaVuSans-75" transform="translate(138.769531 0)"/>
     <use xlink:href="#DejaVuSans-73" transform="translate(202.148438 0)"/>
     <use xlink:href="#DejaVuSans-73" transform="translate(254.248047 0)"/>
     <use xlink:href="#DejaVuSans-69" transform="translate(306.347656 0)"/>
     <use xlink:href="#DejaVuSans-61" transform="translate(334.130859 0)"/>
     <use xlink:href="#DejaVuSans-6e" transform="translate(395.410156 0)"/>
     <use xlink:href="#DejaVuSans-20" transform="translate(458.789062 0)"/>
     <use xlink:href="#DejaVuSans-70" transform="translate(490.576172 0)"/>
     <use xlink:href="#DejaVuSans-72" transform="translate(554.052734 0)"/>
     <use xlink:href="#DejaVuSans-6f" transform="translate(592.916016 0)"/>
     <use xlink:href="#DejaVuSans-63" transform="translate(654.097656 0)"/>
     <use xlink:href="#DejaVuSans-65" transform="translate(709.078125 0)"/>
     <use xlink:href="#DejaVuSans-73" transform="translate(770.601562 0)"/>
     <use xlink:href="#DejaVuSans-73" transform="translate(822.701172 0)"/>
     <use xlink:href="#DejaVuSans-20" transform="translate(874.800781 0)"/>
     <use xlink:href="#DejaVuSans-72" transform="translate(906.587891 0)"/>
     <use xlink:href="#DejaVuSans-65" transform="translate(945.451172 0)"/>
     <use xlink:href="#DejaVuSans-67" transform="translate(1006.974609 0)"/>
     <use xlink:href="#DejaVuSans-72" transform="translate(1070.451172 0)"/>
     <use xlink:href="#DejaVuSans-65" transform="translate(1109.314453 0)"/>
     <use xlink:href="#DejaVuSans-73" transform="translate(1170.837891 0)"/>
     <use xlink:href="#DejaVuSans-73" transform="translate(1222.9375 0)"/>
     <use xlink:href="#DejaVuSans-69" transform="translate(1275.037109 0)"/>
     <use xlink:href="#DejaVuSans-6f" transform="translate(1302.820312 0)"/>
     <use xlink:href="#DejaVuSans-6e" transform="translate(1364.001953 0)"/>
     <use xlink:href="#DejaVuSans-20" transform="translate(1427.380859 0)"/>
     <use xlink:href="#DejaVuSans-6f" transform="translate(1459.167969 0)"/>
     <use xlink:href="#DejaVuSans-6e" transform="translate(1520.349609 0)"/>
     <use xlink:href="#DejaVuSans-20" transform="translate(1583.728516 0)"/>
     <use xlink:href="#DejaVuSans-61" transform="translate(1615.515625 0)"/>
     <use xlink:href="#DejaVuSans-20" transform="translate(1676.794922 0)"/>
     <use xlink:href="#DejaVuSans-6e" transform="translate(1708.582031 0)"/>
     <use xlink:href="#DejaVuSans-6f" transform="translate(1771.960938 0)"/>
     <use xlink:href="#DejaVuSans-69" transform="translate(1833.142578 0)"/>
     <use xlink:href="#DejaVuSans-73" transform="translate(1860.925781 0)"/>
     <use xlink:href="#DejaVuSans-79" transform="translate(1913.025391 0)"/>
     <use xlink:href="#DejaVuSans-20" transform="translate(1972.205078 0)"/>
     <use xlink:href="#DejaVuSans-64" transform="translate(2003.992188 0)"/>
     <use xlink:href="#DejaVuSans-61" transform="translate(2067.46875 0)"/>
     <use xlink:href="#DejaVuSans-74" transform="translate(2128.748047 0)"/>
     <use xlink:href="#DejaVuSans-61" transform="translate(2167.957031 0)"/>
     <use xlink:href="#DejaVuSans-73" transform="translate(2229.236328 0)"/>
     <use xlink:href="#DejaVuSans-65" transform="translate(2281.335938 0)"/>
     <use xlink:href="#DejaVuSans-74" transform="translate(2342.859375 0)"/>
    </g>
   </g>
   <g id="legend_1">
    <g id="patch_7">
     <path d="M 64.44 93.5925
L 217.891563 93.5925
Q 219.891563 93.5925 219.891563 91.5925
L 219.891563 33.88
Q 219.891563 31.88 217.891563 31.88
L 64.44 31.88
Q 62.44 31.88 62.44 33.88
L 62.44 91.5925
Q 62.44 93.5925 64.44 93.5925
z
" style="fill: #ffffff; opacity: 0.8; stroke: #cccccc; stroke-linejoin: miter"/>
    </g>
    <g id="line2d_16">
     <path d="M 66.44 39.978437
L 76.44 39.978437
L 86.44 39.978437
" style="fill: none; stroke-dasharray: 1.5,2.475; stroke-dashoffset: 0; stroke: #1f77b4; stroke-width: 1.5"/>
    </g>
    <g id="text_17">
     <!-- $f(x) = x \cos(1.5x)$ -->
     <g transform="translate(94.44 43.478437) scale(0.1 -0.1)">
      <defs>
       <path id="DejaVuSans-3d" d="M 678 2906
L 4684 2906
L 4684 2381
L 678 2381
L 678 2906
z
M 678 1631
L 4684 1631
L 4684 1100
L 678 1100
L 678 1631
z
" transform="scale(0.015625)"/>
      </defs>
      <use xlink:href="#DejaVuSans-Oblique-66" transform="translate(0 0.015625)"/>
      <use xlink:href="#DejaVuSans-28" transform="translate(35.205078 0.015625)"/>
      <use xlink:href="#DejaVuSans-Oblique-78" transform="translate(74.21875 0.015625)"/>
      <use xlink:href="#DejaVuSans-29" transform="translate(133.398438 0.015625)"/>
      <use xlink:href="#DejaVuSans-3d" transform="translate(191.894531 0.015625)"/>
      <use xlink:href="#DejaVuSans-Oblique-78" transform="translate(295.166016 0.015625)"/>
      <use xlink:href="#DejaVuSans-63" transform="translate(354.345703 0.015625)"/>
      <use xlink:href="#DejaVuSans-6f" transform="translate(409.326172 0.015625)"/>
      <use xlink:href="#DejaVuSans-73" transform="translate(470.507812 0.015625)"/>
      <use xlink:href="#DejaVuSans-28" transform="translate(522.607422 0.015625)"/>
      <use xlink:href="#DejaVuSans-31" transform="translate(561.621094 0.015625)"/>
      <use xlink:href="#DejaVuSans-2e" transform="translate(625.244141 0.015625)"/>
      <use xlink:href="#DejaVuSans-35" transform="translate(657.03125 0.015625)"/>
      <use xlink:href="#DejaVuSans-Oblique-78" transform="translate(720.654297 0.015625)"/>
      <use xlink:href="#DejaVuSans-29" transform="translate(779.833984 0.015625)"/>
     </g>
    </g>
    <g id="PathCollection_2">
     <g>
      <use xlink:href="#mb2d8faeb1d" x="76.44" y="55.531563" style="fill: #1f77b4; stroke: #1f77b4"/>
     </g>
    </g>
    <g id="text_18">
     <!-- Observations -->
     <g transform="translate(94.44 58.156563) scale(0.1 -0.1)">
      <defs>
       <path id="DejaVuSans-4f" d="M 2522 4238
Q 1834 4238 1429 3725
Q 1025 3213 1025 2328
Q 1025 1447 1429 934
Q 1834 422 2522 422
Q 3209 422 3611 934
Q 4013 1447 4013 2328
Q 4013 3213 3611 3725
Q 3209 4238 2522 4238
z
M 2522 4750
Q 3503 4750 4090 4092
Q 4678 3434 4678 2328
Q 4678 1225 4090 567
Q 3503 -91 2522 -91
Q 1538 -91 948 565
Q 359 1222 359 2328
Q 359 3434 948 4092
Q 1538 4750 2522 4750
z
" transform="scale(0.015625)"/>
       <path id="DejaVuSans-62" d="M 3116 1747
Q 3116 2381 2855 2742
Q 2594 3103 2138 3103
Q 1681 3103 1420 2742
Q 1159 2381 1159 1747
Q 1159 1113 1420 752
Q 1681 391 2138 391
Q 2594 391 2855 752
Q 3116 1113 3116 1747
z
M 1159 2969
Q 1341 3281 1617 3432
Q 1894 3584 2278 3584
Q 2916 3584 3314 3078
Q 3713 2572 3713 1747
Q 3713 922 3314 415
Q 2916 -91 2278 -91
Q 1894 -91 1617 61
Q 1341 213 1159 525
L 1159 0
L 581 0
L 581 4863
L 1159 4863
L 1159 2969
z
" transform="scale(0.015625)"/>
       <path id="DejaVuSans-76" d="M 191 3500
L 800 3500
L 1894 563
L 2988 3500
L 3597 3500
L 2284 0
L 1503 0
L 191 3500
z
" transform="scale(0.015625)"/>
      </defs>
      <use xlink:href="#DejaVuSans-4f"/>
      <use xlink:href="#DejaVuSans-62" transform="translate(78.710938 0)"/>
      <use xlink:href="#DejaVuSans-73" transform="translate(142.1875 0)"/>
      <use xlink:href="#DejaVuSans-65" transform="translate(194.287109 0)"/>
      <use xlink:href="#DejaVuSans-72" transform="translate(255.810547 0)"/>
      <use xlink:href="#DejaVuSans-76" transform="translate(296.923828 0)"/>
      <use xlink:href="#DejaVuSans-61" transform="translate(356.103516 0)"/>
      <use xlink:href="#DejaVuSans-74" transform="translate(417.382812 0)"/>
      <use xlink:href="#DejaVuSans-69" transform="translate(456.591797 0)"/>
      <use xlink:href="#DejaVuSans-6f" transform="translate(484.375 0)"/>
      <use xlink:href="#DejaVuSans-6e" transform="translate(545.556641 0)"/>
      <use xlink:href="#DejaVuSans-73" transform="translate(608.935547 0)"/>
     </g>
    </g>
    <g id="line2d_17">
     <path d="M 66.44 69.334687
L 76.44 69.334687
L 86.44 69.334687
" style="fill: none; stroke: #ff7f0e; stroke-width: 1.5; stroke-linecap: square"/>
    </g>
    <g id="text_19">
     <!-- Mean prediction -->
     <g transform="translate(94.44 72.834687) scale(0.1 -0.1)">
      <defs>
       <path id="DejaVuSans-4d" d="M 628 4666
L 1569 4666
L 2759 1491
L 3956 4666
L 4897 4666
L 4897 0
L 4281 0
L 4281 4097
L 3078 897
L 2444 897
L 1241 4097
L 1241 0
L 628 0
L 628 4666
z
" transform="scale(0.015625)"/>
      </defs>
      <use xlink:href="#DejaVuSans-4d"/>
      <use xlink:href="#DejaVuSans-65" transform="translate(86.279297 0)"/>
      <use xlink:href="#DejaVuSans-61" transform="translate(147.802734 0)"/>
      <use xlink:href="#DejaVuSans-6e" transform="translate(209.082031 0)"/>
      <use xlink:href="#DejaVuSans-20" transform="translate(272.460938 0)"/>
      <use xlink:href="#DejaVuSans-70" transform="translate(304.248047 0)"/>
      <use xlink:href="#DejaVuSans-72" transform="translate(367.724609 0)"/>
      <use xlink:href="#DejaVuSans-65" transform="translate(406.587891 0)"/>
      <use xlink:href="#DejaVuSans-64" transform="translate(468.111328 0)"/>
      <use xlink:href="#DejaVuSans-69" transform="translate(531.587891 0)"/>
      <use xlink:href="#DejaVuSans-63" transform="translate(559.371094 0)"/>
      <use xlink:href="#DejaVuSans-74" transform="translate(614.351562 0)"/>
      <use xlink:href="#DejaVuSans-69" transform="translate(653.560547 0)"/>
      <use xlink:href="#DejaVuSans-6f" transform="translate(681.34375 0)"/>
      <use xlink:href="#DejaVuSans-6e" transform="translate(742.525391 0)"/>
     </g>
    </g>
    <g id="patch_8">
     <path d="M 66.44 87.512812
L 86.44 87.512812
L 86.44 80.512812
L 66.44 80.512812
z
" style="fill: #ff7f0e; fill-opacity: 0.5"/>
    </g>
    <g id="text_20">
     <!-- 95% confidence interval -->
     <g transform="translate(94.44 87.512812) scale(0.1 -0.1)">
      <defs>
       <path id="DejaVuSans-39" d="M 703 97
L 703 672
Q 941 559 1184 500
Q 1428 441 1663 441
Q 2288 441 2617 861
Q 2947 1281 2994 2138
Q 2813 1869 2534 1725
Q 2256 1581 1919 1581
Q 1219 1581 811 2004
Q 403 2428 403 3163
Q 403 3881 828 4315
Q 1253 4750 1959 4750
Q 2769 4750 3195 4129
Q 3622 3509 3622 2328
Q 3622 1225 3098 567
Q 2575 -91 1691 -91
Q 1453 -91 1209 -44
Q 966 3 703 97
z
M 1959 2075
Q 2384 2075 2632 2365
Q 2881 2656 2881 3163
Q 2881 3666 2632 3958
Q 2384 4250 1959 4250
Q 1534 4250 1286 3958
Q 1038 3666 1038 3163
Q 1038 2656 1286 2365
Q 1534 2075 1959 2075
z
" transform="scale(0.015625)"/>
       <path id="DejaVuSans-25" d="M 4653 2053
Q 4381 2053 4226 1822
Q 4072 1591 4072 1178
Q 4072 772 4226 539
Q 4381 306 4653 306
Q 4919 306 5073 539
Q 5228 772 5228 1178
Q 5228 1588 5073 1820
Q 4919 2053 4653 2053
z
M 4653 2450
Q 5147 2450 5437 2106
Q 5728 1763 5728 1178
Q 5728 594 5436 251
Q 5144 -91 4653 -91
Q 4153 -91 3862 251
Q 3572 594 3572 1178
Q 3572 1766 3864 2108
Q 4156 2450 4653 2450
z
M 1428 4353
Q 1159 4353 1004 4120
Q 850 3888 850 3481
Q 850 3069 1003 2837
Q 1156 2606 1428 2606
Q 1700 2606 1854 2837
Q 2009 3069 2009 3481
Q 2009 3884 1853 4118
Q 1697 4353 1428 4353
z
M 4250 4750
L 4750 4750
L 1831 -91
L 1331 -91
L 4250 4750
z
M 1428 4750
Q 1922 4750 2215 4408
Q 2509 4066 2509 3481
Q 2509 2891 2217 2550
Q 1925 2209 1428 2209
Q 931 2209 642 2551
Q 353 2894 353 3481
Q 353 4063 643 4406
Q 934 4750 1428 4750
z
" transform="scale(0.015625)"/>
       <path id="DejaVuSans-66" d="M 2375 4863
L 2375 4384
L 1825 4384
Q 1516 4384 1395 4259
Q 1275 4134 1275 3809
L 1275 3500
L 2222 3500
L 2222 3053
L 1275 3053
L 1275 0
L 697 0
L 697 3053
L 147 3053
L 147 3500
L 697 3500
L 697 3744
Q 697 4328 969 4595
Q 1241 4863 1831 4863
L 2375 4863
z
" transform="scale(0.015625)"/>
       <path id="DejaVuSans-6c" d="M 603 4863
L 1178 4863
L 1178 0
L 603 0
L 603 4863
z
" transform="scale(0.015625)"/>
      </defs>
      <use xlink:href="#DejaVuSans-39"/>
      <use xlink:href="#DejaVuSans-35" transform="translate(63.623047 0)"/>
      <use xlink:href="#DejaVuSans-25" transform="translate(127.246094 0)"/>
      <use xlink:href="#DejaVuSans-20" transform="translate(222.265625 0)"/>
      <use xlink:href="#DejaVuSans-63" transform="translate(254.052734 0)"/>
      <use xlink:href="#DejaVuSans-6f" transform="translate(309.033203 0)"/>
      <use xlink:href="#DejaVuSans-6e" transform="translate(370.214844 0)"/>
      <use xlink:href="#DejaVuSans-66" transform="translate(433.59375 0)"/>
      <use xlink:href="#DejaVuSans-69" transform="translate(468.798828 0)"/>
      <use xlink:href="#DejaVuSans-64" transform="translate(496.582031 0)"/>
      <use xlink:href="#DejaVuSans-65" transform="translate(560.058594 0)"/>
      <use xlink:href="#DejaVuSans-6e" transform="translate(621.582031 0)"/>
      <use xlink:href="#DejaVuSans-63" transform="translate(684.960938 0)"/>
      <use xlink:href="#DejaVuSans-65" transform="translate(739.941406 0)"/>
      <use xlink:href="#DejaVuSans-20" transform="translate(801.464844 0)"/>
      <use xlink:href="#DejaVuSans-69" transform="translate(833.251953 0)"/>
      <use xlink:href="#DejaVuSans-6e" transform="translate(861.035156 0)"/>
      <use xlink:href="#DejaVuSans-74" transform="translate(924.414062 0)"/>
      <use xlink:href="#DejaVuSans-65" transform="translate(963.623047 0)"/>
      <use xlink:href="#DejaVuSans-72" transform="translate(1025.146484 0)"/>
      <use xlink:href="#DejaVuSans-76" transform="translate(1066.259766 0)"/>
      <use xlink:href="#DejaVuSans-61" transform="translate(1125.439453 0)"/>
      <use xlink:href="#DejaVuSans-6c" transform="translate(1186.71875 0)"/>
     </g>
    </g>
   </g>
  </g>
 </g>
 <defs>
  <clipPath id="p7c2dfd3e36">
   <rect x="57.44" y="26.88" width="1011.76" height="291.16"/>
  </clipPath>
 </defs>
</svg>
