<?xml version="1.0" encoding="utf-8" standalone="no"?>
<!DOCTYPE svg PUBLIC "-//W3C//DTD SVG 1.1//EN"
  "http://www.w3.org/Graphics/SVG/1.1/DTD/svg11.dtd">
<svg xmlns:xlink="http://www.w3.org/1999/xlink" width="1080pt" height="360pt" viewBox="0 0 1080 360" xmlns="http://www.w3.org/2000/svg" version="1.1">
 <metadata>
  <rdf:RDF xmlns:dc="http://purl.org/dc/elements/1.1/" xmlns:cc="http://creativecommons.org/ns#" xmlns:rdf="http://www.w3.org/1999/02/22-rdf-syntax-ns#">
   <cc:Work>
    <dc:type rdf:resource="http://purl.org/dc/dcmitype/StillImage"/>
    <dc:date>2024-02-29T17:52:24.497884</dc:date>
    <dc:format>image/svg+xml</dc:format>
    <dc:creator>
     <cc:Agent>
      <dc:title>Matplotlib v3.8.3, https://matplotlib.org/</dc:title>
     </cc:Agent>
    </dc:creator>
   </cc:Work>
  </rdf:RDF>
 </metadata>
 <defs>
  <style type="text/css">*{stroke-linejoin: round; stroke-linecap: butt}</style>
 </defs>
 <g id="figure_1">
  <g id="patch_1">
   <path d="M 0 360
L 1080 360
L 1080 0
L 0 0
z
" style="fill: #ffffff"/>
  </g>
  <g id="axes_1">
   <g id="patch_2">
    <path d="M 57.62 318.04
L 1069.2 318.04
L 1069.2 25.44
L 57.62 25.44
z
" style="fill: #ffffff"/>
   </g>
   <g id="PathCollection_1">
    <defs>
     <path id="m31bc73aa09" d="M 0 3
C 0.795609 3 1.55874 2.683901 2.12132 2.12132
C 2.683901 1.55874 3 0.795609 3 0
C 3 -0.795609 2.683901 -1.55874 2.12132 -2.12132
C 1.55874 -2.683901 0.795609 -3 0 -3
C -0.795609 -3 -1.55874 -2.683901 -2.12132 -2.12132
C -2.683901 -1.55874 -3 -0.795609 -3 0
C -3 0.795609 -2.683901 1.55874 -2.12132 2.12132
C -1.55874 2.683901 -0.795609 3 0 3
z
" style="stroke: #1f77b4"/>
    </defs>
    <g clip-path="url(#pa6d25cb3f1)">
     <use xlink:href="#m31bc73aa09" x="307.749865" y="217.049025" style="fill: #1f77b4; stroke: #1f77b4"/>
     <use xlink:href="#m31bc73aa09" x="904.342169" y="57.662105" style="fill: #1f77b4; stroke: #1f77b4"/>
     <use xlink:href="#m31bc73aa09" x="293.703603" y="215.183679" style="fill: #1f77b4; stroke: #1f77b4"/>
     <use xlink:href="#m31bc73aa09" x="948.372202" y="129.627544" style="fill: #1f77b4; stroke: #1f77b4"/>
     <use xlink:href="#m31bc73aa09" x="552.752719" y="141.916076" style="fill: #1f77b4; stroke: #1f77b4"/>
     <use xlink:href="#m31bc73aa09" x="666.171688" y="277.741698" style="fill: #1f77b4; stroke: #1f77b4"/>
     <use xlink:href="#m31bc73aa09" x="807.9437" y="123.050184" style="fill: #1f77b4; stroke: #1f77b4"/>
     <use xlink:href="#m31bc73aa09" x="580.347517" y="175.226431" style="fill: #1f77b4; stroke: #1f77b4"/>
     <use xlink:href="#m31bc73aa09" x="376.544047" y="194.113779" style="fill: #1f77b4; stroke: #1f77b4"/>
     <use xlink:href="#m31bc73aa09" x="276.232764" y="210.536851" style="fill: #1f77b4; stroke: #1f77b4"/>
    </g>
   </g>
   <g id="PolyCollection_1">
    <path d="M 103.600909 150.728446
L 103.600909 213.751854
L 112.889982 213.746579
L 122.179054 213.668281
L 131.468127 213.47101
L 140.757199 213.101234
L 150.046272 212.505289
L 159.335344 211.64067
L 168.624417 210.489831
L 177.913489 209.074017
L 187.202562 207.463782
L 196.491635 205.782724
L 205.780707 204.201551
L 215.06978 202.921088
L 224.358852 202.145
L 233.647925 202.045474
L 242.936997 202.727385
L 252.22607 204.197955
L 261.515142 206.349253
L 270.804215 208.962852
L 280.093287 211.798029
L 289.38236 214.311573
L 298.671433 216.141638
L 307.960505 217.131566
L 317.249578 217.283462
L 326.53865 216.515416
L 335.827723 214.725327
L 345.116795 211.846334
L 354.405868 207.851343
L 363.69494 202.767345
L 372.984013 196.685935
L 382.273085 191.611912
L 391.562158 187.982408
L 400.85123 184.921049
L 410.140303 182.34214
L 419.429376 180.051822
L 428.718448 177.785086
L 438.007521 175.253892
L 447.296593 172.198528
L 456.585666 168.435494
L 465.874738 163.896402
L 475.163811 158.653831
L 484.452883 152.931488
L 493.741956 147.097328
L 503.031028 141.639584
L 512.320101 137.126996
L 521.609174 134.156139
L 530.898246 133.290397
L 540.187319 134.996766
L 549.476391 139.590304
L 558.765464 148.254581
L 568.054536 159.139331
L 577.343609 171.154785
L 586.632681 185.495137
L 595.921754 201.584597
L 605.210826 217.992959
L 614.499899 233.805564
L 623.788972 248.140861
L 633.078044 260.221367
L 642.367117 269.433738
L 651.656189 275.371213
L 660.945262 277.855248
L 670.234334 279.470267
L 679.523407 281.71496
L 688.812479 281.55314
L 698.101552 279.007564
L 707.390624 274.174645
L 716.679697 267.205488
L 725.96877 258.283599
L 735.257842 247.602674
L 744.546915 235.348848
L 753.835987 221.691202
L 763.12506 206.782894
L 772.414132 190.773301
L 781.703205 173.829394
L 790.992277 156.162567
L 800.28135 138.055845
L 809.570422 121.048511
L 818.859495 109.381052
L 828.148567 97.494401
L 837.43764 85.709942
L 846.726713 74.520652
L 856.015785 64.555166
L 865.304858 56.519959
L 874.59393 51.1227
L 883.883003 48.98611
L 893.172075 50.564199
L 902.461148 56.077741
L 911.75022 67.773674
L 921.039293 82.433381
L 930.328365 98.424536
L 939.617438 114.762366
L 948.906511 130.744404
L 958.195583 149.658145
L 967.484656 167.720737
L 976.773728 184.116137
L 986.062801 198.249669
L 995.351873 209.761662
L 1004.640946 218.529801
L 1013.930018 224.645662
L 1023.219091 228.371769
L 1023.219091 179.807159
L 1023.219091 179.807159
L 1013.930018 181.138796
L 1004.640946 180.90407
L 995.351873 178.670568
L 986.062801 174.079479
L 976.773728 166.902245
L 967.484656 157.092037
L 958.195583 144.821287
L 948.906511 130.479809
L 939.617438 111.859025
L 930.328365 94.068248
L 921.039293 78.315713
L 911.75022 65.439396
L 902.461148 55.370206
L 893.172075 46.050314
L 883.883003 40.389908
L 874.59393 38.74
L 865.304858 41.178496
L 856.015785 47.52752
L 846.726713 57.392014
L 837.43764 70.216782
L 828.148567 85.352846
L 818.859495 102.123472
L 809.570422 119.878628
L 800.28135 132.335194
L 790.992277 143.26347
L 781.703205 153.95509
L 772.414132 164.608087
L 763.12506 175.434952
L 753.835987 186.609287
L 744.546915 198.219867
L 735.257842 210.236718
L 725.96877 222.492113
L 716.679697 234.677974
L 707.390624 246.359832
L 698.101552 257.006328
L 688.812479 266.031962
L 679.523407 272.849628
L 670.234334 276.927587
L 660.945262 274.872699
L 651.656189 268.077807
L 642.367117 259.305593
L 633.078044 248.848868
L 623.788972 237.049367
L 614.499899 224.279823
L 605.210826 210.926622
L 595.921754 197.374911
L 586.632681 183.995656
L 577.343609 170.577402
L 568.054536 157.615836
L 558.765464 147.16143
L 549.476391 138.716225
L 540.187319 130.731333
L 530.898246 124.401119
L 521.609174 119.786369
L 512.320101 116.883017
L 503.031028 115.632082
L 493.741956 115.93158
L 484.452883 117.651507
L 475.163811 120.649275
L 465.874738 124.782469
L 456.585666 129.916187
L 447.296593 135.923464
L 438.007521 142.67911
L 428.718448 150.049126
L 419.429376 157.879279
L 410.140303 165.986876
L 400.85123 174.159106
L 391.562158 182.159692
L 382.273085 189.742643
L 372.984013 195.752223
L 363.69494 200.248364
L 354.405868 204.801093
L 345.116795 209.062413
L 335.827723 212.671448
L 326.53865 215.316012
L 317.249578 216.784249
L 307.960505 216.987059
L 298.671433 216.009846
L 289.38236 214.152672
L 280.093287 211.64872
L 270.804215 208.571055
L 261.515142 204.809274
L 252.22607 200.512744
L 242.936997 195.78124
L 233.647925 190.73774
L 224.358852 185.531096
L 215.06978 180.32752
L 205.780707 175.29647
L 196.491635 170.594213
L 187.202562 166.348485
L 177.913489 162.647182
L 168.624417 159.532975
L 159.335344 157.004388
L 150.046272 155.022539
L 140.757199 153.521769
L 131.468127 152.421831
L 122.179054 151.639359
L 112.889982 151.096883
L 103.600909 150.728446
z
" clip-path="url(#pa6d25cb3f1)" style="fill: #ff7f0e; fill-opacity: 0.5"/>
   </g>
   <g id="matplotlib.axis_1">
    <g id="xtick_1">
     <g id="line2d_1">
      <defs>
       <path id="m564450c117" d="M 0 0
L 0 3.5
" style="stroke: #000000; stroke-width: 0.8"/>
      </defs>
      <g>
       <use xlink:href="#m564450c117" x="103.600909" y="318.04" style="stroke: #000000; stroke-width: 0.8"/>
      </g>
     </g>
     <g id="text_1">
      <!-- 0 -->
      <g transform="translate(100.419659 332.638438) scale(0.1 -0.1)">
       <defs>
        <path id="DejaVuSans-30" d="M 2034 4250
Q 1547 4250 1301 3770
Q 1056 3291 1056 2328
Q 1056 1369 1301 889
Q 1547 409 2034 409
Q 2525 409 2770 889
Q 3016 1369 3016 2328
Q 3016 3291 2770 3770
Q 2525 4250 2034 4250
z
M 2034 4750
Q 2819 4750 3233 4129
Q 3647 3509 3647 2328
Q 3647 1150 3233 529
Q 2819 -91 2034 -91
Q 1250 -91 836 529
Q 422 1150 422 2328
Q 422 3509 836 4129
Q 1250 4750 2034 4750
z
" transform="scale(0.015625)"/>
       </defs>
       <use xlink:href="#DejaVuSans-30"/>
      </g>
     </g>
    </g>
    <g id="xtick_2">
     <g id="line2d_2">
      <g>
       <use xlink:href="#m564450c117" x="287.524545" y="318.04" style="stroke: #000000; stroke-width: 0.8"/>
      </g>
     </g>
     <g id="text_2">
      <!-- 2 -->
      <g transform="translate(284.343295 332.638438) scale(0.1 -0.1)">
       <defs>
        <path id="DejaVuSans-32" d="M 1228 531
L 3431 531
L 3431 0
L 469 0
L 469 531
Q 828 903 1448 1529
Q 2069 2156 2228 2338
Q 2531 2678 2651 2914
Q 2772 3150 2772 3378
Q 2772 3750 2511 3984
Q 2250 4219 1831 4219
Q 1534 4219 1204 4116
Q 875 4013 500 3803
L 500 4441
Q 881 4594 1212 4672
Q 1544 4750 1819 4750
Q 2544 4750 2975 4387
Q 3406 4025 3406 3419
Q 3406 3131 3298 2873
Q 3191 2616 2906 2266
Q 2828 2175 2409 1742
Q 1991 1309 1228 531
z
" transform="scale(0.015625)"/>
       </defs>
       <use xlink:href="#DejaVuSans-32"/>
      </g>
     </g>
    </g>
    <g id="xtick_3">
     <g id="line2d_3">
      <g>
       <use xlink:href="#m564450c117" x="471.448182" y="318.04" style="stroke: #000000; stroke-width: 0.8"/>
      </g>
     </g>
     <g id="text_3">
      <!-- 4 -->
      <g transform="translate(468.266932 332.638438) scale(0.1 -0.1)">
       <defs>
        <path id="DejaVuSans-34" d="M 2419 4116
L 825 1625
L 2419 1625
L 2419 4116
z
M 2253 4666
L 3047 4666
L 3047 1625
L 3713 1625
L 3713 1100
L 3047 1100
L 3047 0
L 2419 0
L 2419 1100
L 313 1100
L 313 1709
L 2253 4666
z
" transform="scale(0.015625)"/>
       </defs>
       <use xlink:href="#DejaVuSans-34"/>
      </g>
     </g>
    </g>
    <g id="xtick_4">
     <g id="line2d_4">
      <g>
       <use xlink:href="#m564450c117" x="655.371818" y="318.04" style="stroke: #000000; stroke-width: 0.8"/>
      </g>
     </g>
     <g id="text_4">
      <!-- 6 -->
      <g transform="translate(652.190568 332.638438) scale(0.1 -0.1)">
       <defs>
        <path id="DejaVuSans-36" d="M 2113 2584
Q 1688 2584 1439 2293
Q 1191 2003 1191 1497
Q 1191 994 1439 701
Q 1688 409 2113 409
Q 2538 409 2786 701
Q 3034 994 3034 1497
Q 3034 2003 2786 2293
Q 2538 2584 2113 2584
z
M 3366 4563
L 3366 3988
Q 3128 4100 2886 4159
Q 2644 4219 2406 4219
Q 1781 4219 1451 3797
Q 1122 3375 1075 2522
Q 1259 2794 1537 2939
Q 1816 3084 2150 3084
Q 2853 3084 3261 2657
Q 3669 2231 3669 1497
Q 3669 778 3244 343
Q 2819 -91 2113 -91
Q 1303 -91 875 529
Q 447 1150 447 2328
Q 447 3434 972 4092
Q 1497 4750 2381 4750
Q 2619 4750 2861 4703
Q 3103 4656 3366 4563
z
" transform="scale(0.015625)"/>
       </defs>
       <use xlink:href="#DejaVuSans-36"/>
      </g>
     </g>
    </g>
    <g id="xtick_5">
     <g id="line2d_5">
      <g>
       <use xlink:href="#m564450c117" x="839.295455" y="318.04" style="stroke: #000000; stroke-width: 0.8"/>
      </g>
     </g>
     <g id="text_5">
      <!-- 8 -->
      <g transform="translate(836.114205 332.638438) scale(0.1 -0.1)">
       <defs>
        <path id="DejaVuSans-38" d="M 2034 2216
Q 1584 2216 1326 1975
Q 1069 1734 1069 1313
Q 1069 891 1326 650
Q 1584 409 2034 409
Q 2484 409 2743 651
Q 3003 894 3003 1313
Q 3003 1734 2745 1975
Q 2488 2216 2034 2216
z
M 1403 2484
Q 997 2584 770 2862
Q 544 3141 544 3541
Q 544 4100 942 4425
Q 1341 4750 2034 4750
Q 2731 4750 3128 4425
Q 3525 4100 3525 3541
Q 3525 3141 3298 2862
Q 3072 2584 2669 2484
Q 3125 2378 3379 2068
Q 3634 1759 3634 1313
Q 3634 634 3220 271
Q 2806 -91 2034 -91
Q 1263 -91 848 271
Q 434 634 434 1313
Q 434 1759 690 2068
Q 947 2378 1403 2484
z
M 1172 3481
Q 1172 3119 1398 2916
Q 1625 2713 2034 2713
Q 2441 2713 2670 2916
Q 2900 3119 2900 3481
Q 2900 3844 2670 4047
Q 2441 4250 2034 4250
Q 1625 4250 1398 4047
Q 1172 3844 1172 3481
z
" transform="scale(0.015625)"/>
       </defs>
       <use xlink:href="#DejaVuSans-38"/>
      </g>
     </g>
    </g>
    <g id="xtick_6">
     <g id="line2d_6">
      <g>
       <use xlink:href="#m564450c117" x="1023.219091" y="318.04" style="stroke: #000000; stroke-width: 0.8"/>
      </g>
     </g>
     <g id="text_6">
      <!-- 10 -->
      <g transform="translate(1016.856591 332.638438) scale(0.1 -0.1)">
       <defs>
        <path id="DejaVuSans-31" d="M 794 531
L 1825 531
L 1825 4091
L 703 3866
L 703 4441
L 1819 4666
L 2450 4666
L 2450 531
L 3481 531
L 3481 0
L 794 0
L 794 531
z
" transform="scale(0.015625)"/>
       </defs>
       <use xlink:href="#DejaVuSans-31"/>
       <use xlink:href="#DejaVuSans-30" x="63.623047"/>
      </g>
     </g>
    </g>
    <g id="text_7">
     <!-- $x$ -->
     <g transform="translate(560.41 346.316563) scale(0.1 -0.1)">
      <defs>
       <path id="DejaVuSans-Oblique-78" d="M 3841 3500
L 2234 1784
L 3219 0
L 2559 0
L 1819 1388
L 531 0
L -166 0
L 1556 1844
L 641 3500
L 1300 3500
L 1972 2234
L 3144 3500
L 3841 3500
z
" transform="scale(0.015625)"/>
      </defs>
      <use xlink:href="#DejaVuSans-Oblique-78" transform="translate(0 0.3125)"/>
     </g>
    </g>
   </g>
   <g id="matplotlib.axis_2">
    <g id="ytick_1">
     <g id="line2d_7">
      <defs>
       <path id="mf48ad03a3c" d="M 0 0
L -3.5 0
" style="stroke: #000000; stroke-width: 0.8"/>
      </defs>
      <g>
       <use xlink:href="#mf48ad03a3c" x="57.62" y="303.171476" style="stroke: #000000; stroke-width: 0.8"/>
      </g>
     </g>
     <g id="text_8">
      <!-- −7.5 -->
      <g transform="translate(26.337187 306.970695) scale(0.1 -0.1)">
       <defs>
        <path id="DejaVuSans-2212" d="M 678 2272
L 4684 2272
L 4684 1741
L 678 1741
L 678 2272
z
" transform="scale(0.015625)"/>
        <path id="DejaVuSans-37" d="M 525 4666
L 3525 4666
L 3525 4397
L 1831 0
L 1172 0
L 2766 4134
L 525 4134
L 525 4666
z
" transform="scale(0.015625)"/>
        <path id="DejaVuSans-2e" d="M 684 794
L 1344 794
L 1344 0
L 684 0
L 684 794
z
" transform="scale(0.015625)"/>
        <path id="DejaVuSans-35" d="M 691 4666
L 3169 4666
L 3169 4134
L 1269 4134
L 1269 2991
Q 1406 3038 1543 3061
Q 1681 3084 1819 3084
Q 2600 3084 3056 2656
Q 3513 2228 3513 1497
Q 3513 744 3044 326
Q 2575 -91 1722 -91
Q 1428 -91 1123 -41
Q 819 9 494 109
L 494 744
Q 775 591 1075 516
Q 1375 441 1709 441
Q 2250 441 2565 725
Q 2881 1009 2881 1497
Q 2881 1984 2565 2268
Q 2250 2553 1709 2553
Q 1456 2553 1204 2497
Q 953 2441 691 2322
L 691 4666
z
" transform="scale(0.015625)"/>
       </defs>
       <use xlink:href="#DejaVuSans-2212"/>
       <use xlink:href="#DejaVuSans-37" x="83.789062"/>
       <use xlink:href="#DejaVuSans-2e" x="147.412109"/>
       <use xlink:href="#DejaVuSans-35" x="179.199219"/>
      </g>
     </g>
    </g>
    <g id="ytick_2">
     <g id="line2d_8">
      <g>
       <use xlink:href="#mf48ad03a3c" x="57.62" y="262.695158" style="stroke: #000000; stroke-width: 0.8"/>
      </g>
     </g>
     <g id="text_9">
      <!-- −5.0 -->
      <g transform="translate(26.337187 266.494377) scale(0.1 -0.1)">
       <use xlink:href="#DejaVuSans-2212"/>
       <use xlink:href="#DejaVuSans-35" x="83.789062"/>
       <use xlink:href="#DejaVuSans-2e" x="147.412109"/>
       <use xlink:href="#DejaVuSans-30" x="179.199219"/>
      </g>
     </g>
    </g>
    <g id="ytick_3">
     <g id="line2d_9">
      <g>
       <use xlink:href="#mf48ad03a3c" x="57.62" y="222.21884" style="stroke: #000000; stroke-width: 0.8"/>
      </g>
     </g>
     <g id="text_10">
      <!-- −2.5 -->
      <g transform="translate(26.337187 226.018058) scale(0.1 -0.1)">
       <use xlink:href="#DejaVuSans-2212"/>
       <use xlink:href="#DejaVuSans-32" x="83.789062"/>
       <use xlink:href="#DejaVuSans-2e" x="147.412109"/>
       <use xlink:href="#DejaVuSans-35" x="179.199219"/>
      </g>
     </g>
    </g>
    <g id="ytick_4">
     <g id="line2d_10">
      <g>
       <use xlink:href="#mf48ad03a3c" x="57.62" y="181.742522" style="stroke: #000000; stroke-width: 0.8"/>
      </g>
     </g>
     <g id="text_11">
      <!-- 0.0 -->
      <g transform="translate(34.716875 185.54174) scale(0.1 -0.1)">
       <use xlink:href="#DejaVuSans-30"/>
       <use xlink:href="#DejaVuSans-2e" x="63.623047"/>
       <use xlink:href="#DejaVuSans-30" x="95.410156"/>
      </g>
     </g>
    </g>
    <g id="ytick_5">
     <g id="line2d_11">
      <g>
       <use xlink:href="#mf48ad03a3c" x="57.62" y="141.266204" style="stroke: #000000; stroke-width: 0.8"/>
      </g>
     </g>
     <g id="text_12">
      <!-- 2.5 -->
      <g transform="translate(34.716875 145.065422) scale(0.1 -0.1)">
       <use xlink:href="#DejaVuSans-32"/>
       <use xlink:href="#DejaVuSans-2e" x="63.623047"/>
       <use xlink:href="#DejaVuSans-35" x="95.410156"/>
      </g>
     </g>
    </g>
    <g id="ytick_6">
     <g id="line2d_12">
      <g>
       <use xlink:href="#mf48ad03a3c" x="57.62" y="100.789886" style="stroke: #000000; stroke-width: 0.8"/>
      </g>
     </g>
     <g id="text_13">
      <!-- 5.0 -->
      <g transform="translate(34.716875 104.589104) scale(0.1 -0.1)">
       <use xlink:href="#DejaVuSans-35"/>
       <use xlink:href="#DejaVuSans-2e" x="63.623047"/>
       <use xlink:href="#DejaVuSans-30" x="95.410156"/>
      </g>
     </g>
    </g>
    <g id="ytick_7">
     <g id="line2d_13">
      <g>
       <use xlink:href="#mf48ad03a3c" x="57.62" y="60.313568" style="stroke: #000000; stroke-width: 0.8"/>
      </g>
     </g>
     <g id="text_14">
      <!-- 7.5 -->
      <g transform="translate(34.716875 64.112786) scale(0.1 -0.1)">
       <use xlink:href="#DejaVuSans-37"/>
       <use xlink:href="#DejaVuSans-2e" x="63.623047"/>
       <use xlink:href="#DejaVuSans-35" x="95.410156"/>
      </g>
     </g>
    </g>
    <g id="text_15">
     <!-- $f(x)$ -->
     <g transform="translate(20.2575 180.39) rotate(-90) scale(0.1 -0.1)">
      <defs>
       <path id="DejaVuSans-Oblique-66" d="M 3059 4863
L 2969 4384
L 2419 4384
Q 2106 4384 1964 4261
Q 1822 4138 1753 3809
L 1691 3500
L 2638 3500
L 2553 3053
L 1606 3053
L 1013 0
L 434 0
L 1031 3053
L 481 3053
L 563 3500
L 1113 3500
L 1159 3744
Q 1278 4363 1576 4613
Q 1875 4863 2516 4863
L 3059 4863
z
" transform="scale(0.015625)"/>
       <path id="DejaVuSans-28" d="M 1984 4856
Q 1566 4138 1362 3434
Q 1159 2731 1159 2009
Q 1159 1288 1364 580
Q 1569 -128 1984 -844
L 1484 -844
Q 1016 -109 783 600
Q 550 1309 550 2009
Q 550 2706 781 3412
Q 1013 4119 1484 4856
L 1984 4856
z
" transform="scale(0.015625)"/>
       <path id="DejaVuSans-29" d="M 513 4856
L 1013 4856
Q 1481 4119 1714 3412
Q 1947 2706 1947 2009
Q 1947 1309 1714 600
Q 1481 -109 1013 -844
L 513 -844
Q 928 -128 1133 580
Q 1338 1288 1338 2009
Q 1338 2731 1133 3434
Q 928 4138 513 4856
z
" transform="scale(0.015625)"/>
      </defs>
      <use xlink:href="#DejaVuSans-Oblique-66" transform="translate(0 0.015625)"/>
      <use xlink:href="#DejaVuSans-28" transform="translate(35.205078 0.015625)"/>
      <use xlink:href="#DejaVuSans-Oblique-78" transform="translate(74.21875 0.015625)"/>
      <use xlink:href="#DejaVuSans-29" transform="translate(133.398438 0.015625)"/>
     </g>
    </g>
   </g>
   <g id="line2d_14">
    <path d="M 103.600909 181.742522
L 120.170606 178.931208
L 129.375993 177.599807
L 136.740303 176.739908
L 144.104613 176.112006
L 150.548384 175.784368
L 156.992155 175.687472
L 163.435926 175.839478
L 168.959158 176.178172
L 174.482391 176.715149
L 180.005623 177.453047
L 185.528855 178.391572
L 191.052088 179.527459
L 197.495859 181.093607
L 203.93963 182.904773
L 210.383401 184.940634
L 217.74771 187.509634
L 226.032559 190.65365
L 236.158485 194.753181
L 263.774646 206.087965
L 271.138956 208.807539
L 277.582727 210.970978
L 284.026498 212.883024
L 289.549731 214.287404
L 295.072963 215.446779
L 299.675657 216.207575
L 304.27835 216.767331
L 308.881044 217.11381
L 313.483737 217.236066
L 318.086431 217.124558
L 322.689125 216.771252
L 327.291818 216.169714
L 331.894512 215.315198
L 336.497205 214.204712
L 341.099899 212.837087
L 345.702593 211.213016
L 350.305286 209.335099
L 354.90798 207.207859
L 359.510673 204.837751
L 364.113367 202.233161
L 368.716061 199.404383
L 374.239293 195.731183
L 379.762525 191.777264
L 385.285758 187.570752
L 391.729529 182.386195
L 399.093838 176.164325
L 408.299226 168.077063
L 433.153771 146.032692
L 440.518081 139.895548
L 446.961852 134.835787
L 452.485084 130.788628
L 457.087778 127.655171
L 461.690471 124.766294
L 466.293165 122.146366
L 470.895859 119.818532
L 474.578013 118.181238
L 478.260168 116.75525
L 481.942323 115.55029
L 485.624478 114.575328
L 489.306633 113.838537
L 492.988788 113.347248
L 496.670943 113.107902
L 500.353098 113.126013
L 504.035253 113.40613
L 507.717407 113.951806
L 511.399562 114.765566
L 515.081717 115.848885
L 518.763872 117.202162
L 522.446027 118.824708
L 526.128182 120.714732
L 529.810337 122.86933
L 533.492492 125.284483
L 537.174646 127.955062
L 540.856801 130.874826
L 544.538956 134.036438
L 549.14165 138.315625
L 553.744343 142.94069
L 558.347037 147.890343
L 562.949731 153.140862
L 568.472963 159.801818
L 573.996195 166.809296
L 580.439966 175.351331
L 587.804276 185.485067
L 598.850741 201.118857
L 613.57936 221.951059
L 620.94367 231.996605
L 627.387441 240.410472
L 632.910673 247.257172
L 637.513367 252.654638
L 642.116061 257.732407
L 646.718754 262.454767
L 650.400909 265.953777
L 654.083064 269.18682
L 657.765219 272.138083
L 661.447374 274.79265
L 665.129529 277.136565
L 668.811684 279.156907
L 671.5733 280.452659
L 674.334916 281.555154
L 677.096532 282.460203
L 679.858148 283.164006
L 682.619764 283.663165
L 685.38138 283.954695
L 688.142997 284.036035
L 690.904613 283.905054
L 693.666229 283.560063
L 696.427845 282.999821
L 699.189461 282.223541
L 701.951077 281.230895
L 704.712694 280.022021
L 707.47431 278.597523
L 710.235926 276.958477
L 712.997542 275.10643
L 715.759158 273.043402
L 719.441313 269.968878
L 723.123468 266.530963
L 726.805623 262.738336
L 730.487778 258.60113
L 734.169933 254.130911
L 737.852088 249.340647
L 742.454781 242.924717
L 747.057475 236.062111
L 751.660168 228.786815
L 756.262862 221.135747
L 761.786094 211.51446
L 768.229865 199.776125
L 775.594175 185.836778
L 785.720101 166.108802
L 802.289798 133.74739
L 809.654108 119.875898
L 816.097879 108.241347
L 821.621111 98.755752
L 826.223805 91.260839
L 830.826498 84.190212
L 835.429192 77.59043
L 839.111347 72.679496
L 842.793502 68.119903
L 846.475657 63.932103
L 850.157811 60.135343
L 852.919428 57.555249
L 855.681044 55.212322
L 858.44266 53.113186
L 861.204276 51.263997
L 863.965892 49.670425
L 866.727508 48.337642
L 869.489125 47.270305
L 872.250741 46.472541
L 875.012357 45.947938
L 877.773973 45.699534
L 880.535589 45.729803
L 883.297205 46.040648
L 886.058822 46.633395
L 888.820438 47.508784
L 891.582054 48.666964
L 894.34367 50.10749
L 897.105286 51.829318
L 899.866902 53.830804
L 902.628519 56.109706
L 905.390135 58.663181
L 908.151751 61.487789
L 910.913367 64.579499
L 913.674983 67.933688
L 917.357138 72.805162
L 921.039293 78.120023
L 924.721448 83.862565
L 928.403603 90.015347
L 932.085758 96.559239
L 936.688451 105.257334
L 941.291145 114.490039
L 945.893838 124.209803
L 951.417071 136.444542
L 956.940303 149.213401
L 963.384074 164.652494
L 971.668923 185.10331
L 996.523468 246.904743
L 1002.967239 262.130229
L 1008.490471 274.644384
L 1013.093165 284.610399
L 1017.695859 294.09005
L 1022.298552 303.023814
L 1023.219091 304.74
L 1023.219091 304.74
" clip-path="url(#pa6d25cb3f1)" style="fill: none; stroke-dasharray: 1.5,2.475; stroke-dashoffset: 0; stroke: #1f77b4; stroke-width: 1.5"/>
   </g>
   <g id="line2d_15">
    <path d="M 103.600909 182.24015
L 112.889982 182.421731
L 122.179054 182.65382
L 131.468127 182.94642
L 140.757199 183.311501
L 150.046272 183.763914
L 159.335344 184.322529
L 168.624417 185.011403
L 177.913489 185.860599
L 187.202562 186.906134
L 196.491635 188.188469
L 205.780707 189.749011
L 215.06978 191.624304
L 224.358852 193.838048
L 233.647925 196.391607
L 242.936997 199.254312
L 252.22607 202.355349
L 261.515142 205.579264
L 270.804215 208.766954
L 280.093287 211.723375
L 289.38236 214.232122
L 298.671433 216.075742
L 307.960505 217.059313
L 317.249578 217.033855
L 326.53865 215.915714
L 335.827723 213.698387
L 345.116795 210.454373
L 354.405868 206.326218
L 363.69494 201.507854
L 372.984013 196.219079
L 382.273085 190.677278
L 391.562158 185.07105
L 400.85123 179.540078
L 410.140303 174.164508
L 419.429376 168.965551
L 428.718448 163.917106
L 438.007521 158.966501
L 447.296593 154.060996
L 456.585666 149.175841
L 465.874738 144.339436
L 475.163811 139.651553
L 484.452883 135.291497
L 493.741956 131.514454
L 503.031028 128.635833
L 512.320101 127.005007
L 521.609174 126.971254
L 530.898246 128.845758
L 540.187319 132.86405
L 549.476391 139.153264
L 558.765464 147.708006
L 568.054536 158.377584
L 577.343609 170.866093
L 586.632681 184.745396
L 595.921754 199.479754
L 605.210826 214.45979
L 614.499899 229.042693
L 623.788972 242.595114
L 633.078044 254.535117
L 642.367117 264.369665
L 651.656189 271.72451
L 660.945262 276.363974
L 670.234334 278.198927
L 679.523407 277.282294
L 688.812479 273.792551
L 698.101552 268.006946
L 707.390624 260.267238
L 716.679697 250.941731
L 725.96877 240.387856
L 735.257842 228.919696
L 744.546915 216.784358
L 753.835987 204.150245
L 763.12506 191.108923
L 772.414132 177.690694
L 781.703205 163.892242
L 790.992277 149.713019
L 800.28135 135.19552
L 809.570422 120.463569
L 818.859495 105.752262
L 828.148567 91.423624
L 837.43764 77.963362
L 846.726713 65.956333
L 856.015785 56.041343
L 865.304858 48.849227
L 874.59393 44.93135
L 883.883003 44.688009
L 893.172075 48.307257
L 902.461148 55.723974
L 911.75022 66.606535
L 921.039293 80.374547
L 930.328365 96.246392
L 939.617438 113.310696
L 948.906511 130.612107
L 958.195583 147.239716
L 967.484656 162.406387
L 976.773728 175.509191
L 986.062801 186.164574
L 995.351873 194.216115
L 1004.640946 199.716936
L 1013.930018 202.892229
L 1023.219091 204.089464
" clip-path="url(#pa6d25cb3f1)" style="fill: none; stroke: #ff7f0e; stroke-width: 1.5; stroke-linecap: square"/>
   </g>
   <g id="patch_3">
    <path d="M 57.62 318.04
L 57.62 25.44
" style="fill: none; stroke: #000000; stroke-width: 0.8; stroke-linejoin: miter; stroke-linecap: square"/>
   </g>
   <g id="patch_4">
    <path d="M 1069.2 318.04
L 1069.2 25.44
" style="fill: none; stroke: #000000; stroke-width: 0.8; stroke-linejoin: miter; stroke-linecap: square"/>
   </g>
   <g id="patch_5">
    <path d="M 57.62 318.04
L 1069.2 318.04
" style="fill: none; stroke: #000000; stroke-width: 0.8; stroke-linejoin: miter; stroke-linecap: square"/>
   </g>
   <g id="patch_6">
    <path d="M 57.62 25.44
L 1069.2 25.44
" style="fill: none; stroke: #000000; stroke-width: 0.8; stroke-linejoin: miter; stroke-linecap: square"/>
   </g>
   <g id="text_16">
    <!-- Gaussian process regression on a noisy dataset -->
    <g transform="translate(420.488125 19.44) scale(0.12 -0.12)">
     <defs>
      <path id="DejaVuSans-47" d="M 3809 666
L 3809 1919
L 2778 1919
L 2778 2438
L 4434 2438
L 4434 434
Q 4069 175 3628 42
Q 3188 -91 2688 -91
Q 1594 -91 976 548
Q 359 1188 359 2328
Q 359 3472 976 4111
Q 1594 4750 2688 4750
Q 3144 4750 3555 4637
Q 3966 4525 4313 4306
L 4313 3634
Q 3963 3931 3569 4081
Q 3175 4231 2741 4231
Q 1884 4231 1454 3753
Q 1025 3275 1025 2328
Q 1025 1384 1454 906
Q 1884 428 2741 428
Q 3075 428 3337 486
Q 3600 544 3809 666
z
" transform="scale(0.015625)"/>
      <path id="DejaVuSans-61" d="M 2194 1759
Q 1497 1759 1228 1600
Q 959 1441 959 1056
Q 959 750 1161 570
Q 1363 391 1709 391
Q 2188 391 2477 730
Q 2766 1069 2766 1631
L 2766 1759
L 2194 1759
z
M 3341 1997
L 3341 0
L 2766 0
L 2766 531
Q 2569 213 2275 61
Q 1981 -91 1556 -91
Q 1019 -91 701 211
Q 384 513 384 1019
Q 384 1609 779 1909
Q 1175 2209 1959 2209
L 2766 2209
L 2766 2266
Q 2766 2663 2505 2880
Q 2244 3097 1772 3097
Q 1472 3097 1187 3025
Q 903 2953 641 2809
L 641 3341
Q 956 3463 1253 3523
Q 1550 3584 1831 3584
Q 2591 3584 2966 3190
Q 3341 2797 3341 1997
z
" transform="scale(0.015625)"/>
      <path id="DejaVuSans-75" d="M 544 1381
L 544 3500
L 1119 3500
L 1119 1403
Q 1119 906 1312 657
Q 1506 409 1894 409
Q 2359 409 2629 706
Q 2900 1003 2900 1516
L 2900 3500
L 3475 3500
L 3475 0
L 2900 0
L 2900 538
Q 2691 219 2414 64
Q 2138 -91 1772 -91
Q 1169 -91 856 284
Q 544 659 544 1381
z
M 1991 3584
L 1991 3584
z
" transform="scale(0.015625)"/>
      <path id="DejaVuSans-73" d="M 2834 3397
L 2834 2853
Q 2591 2978 2328 3040
Q 2066 3103 1784 3103
Q 1356 3103 1142 2972
Q 928 2841 928 2578
Q 928 2378 1081 2264
Q 1234 2150 1697 2047
L 1894 2003
Q 2506 1872 2764 1633
Q 3022 1394 3022 966
Q 3022 478 2636 193
Q 2250 -91 1575 -91
Q 1294 -91 989 -36
Q 684 19 347 128
L 347 722
Q 666 556 975 473
Q 1284 391 1588 391
Q 1994 391 2212 530
Q 2431 669 2431 922
Q 2431 1156 2273 1281
Q 2116 1406 1581 1522
L 1381 1569
Q 847 1681 609 1914
Q 372 2147 372 2553
Q 372 3047 722 3315
Q 1072 3584 1716 3584
Q 2034 3584 2315 3537
Q 2597 3491 2834 3397
z
" transform="scale(0.015625)"/>
      <path id="DejaVuSans-69" d="M 603 3500
L 1178 3500
L 1178 0
L 603 0
L 603 3500
z
M 603 4863
L 1178 4863
L 1178 4134
L 603 4134
L 603 4863
z
" transform="scale(0.015625)"/>
      <path id="DejaVuSans-6e" d="M 3513 2113
L 3513 0
L 2938 0
L 2938 2094
Q 2938 2591 2744 2837
Q 2550 3084 2163 3084
Q 1697 3084 1428 2787
Q 1159 2491 1159 1978
L 1159 0
L 581 0
L 581 3500
L 1159 3500
L 1159 2956
Q 1366 3272 1645 3428
Q 1925 3584 2291 3584
Q 2894 3584 3203 3211
Q 3513 2838 3513 2113
z
" transform="scale(0.015625)"/>
      <path id="DejaVuSans-20" transform="scale(0.015625)"/>
      <path id="DejaVuSans-70" d="M 1159 525
L 1159 -1331
L 581 -1331
L 581 3500
L 1159 3500
L 1159 2969
Q 1341 3281 1617 3432
Q 1894 3584 2278 3584
Q 2916 3584 3314 3078
Q 3713 2572 3713 1747
Q 3713 922 3314 415
Q 2916 -91 2278 -91
Q 1894 -91 1617 61
Q 1341 213 1159 525
z
M 3116 1747
Q 3116 2381 2855 2742
Q 2594 3103 2138 3103
Q 1681 3103 1420 2742
Q 1159 2381 1159 1747
Q 1159 1113 1420 752
Q 1681 391 2138 391
Q 2594 391 2855 752
Q 3116 1113 3116 1747
z
" transform="scale(0.015625)"/>
      <path id="DejaVuSans-72" d="M 2631 2963
Q 2534 3019 2420 3045
Q 2306 3072 2169 3072
Q 1681 3072 1420 2755
Q 1159 2438 1159 1844
L 1159 0
L 581 0
L 581 3500
L 1159 3500
L 1159 2956
Q 1341 3275 1631 3429
Q 1922 3584 2338 3584
Q 2397 3584 2469 3576
Q 2541 3569 2628 3553
L 2631 2963
z
" transform="scale(0.015625)"/>
      <path id="DejaVuSans-6f" d="M 1959 3097
Q 1497 3097 1228 2736
Q 959 2375 959 1747
Q 959 1119 1226 758
Q 1494 397 1959 397
Q 2419 397 2687 759
Q 2956 1122 2956 1747
Q 2956 2369 2687 2733
Q 2419 3097 1959 3097
z
M 1959 3584
Q 2709 3584 3137 3096
Q 3566 2609 3566 1747
Q 3566 888 3137 398
Q 2709 -91 1959 -91
Q 1206 -91 779 398
Q 353 888 353 1747
Q 353 2609 779 3096
Q 1206 3584 1959 3584
z
" transform="scale(0.015625)"/>
      <path id="DejaVuSans-63" d="M 3122 3366
L 3122 2828
Q 2878 2963 2633 3030
Q 2388 3097 2138 3097
Q 1578 3097 1268 2742
Q 959 2388 959 1747
Q 959 1106 1268 751
Q 1578 397 2138 397
Q 2388 397 2633 464
Q 2878 531 3122 666
L 3122 134
Q 2881 22 2623 -34
Q 2366 -91 2075 -91
Q 1284 -91 818 406
Q 353 903 353 1747
Q 353 2603 823 3093
Q 1294 3584 2113 3584
Q 2378 3584 2631 3529
Q 2884 3475 3122 3366
z
" transform="scale(0.015625)"/>
      <path id="DejaVuSans-65" d="M 3597 1894
L 3597 1613
L 953 1613
Q 991 1019 1311 708
Q 1631 397 2203 397
Q 2534 397 2845 478
Q 3156 559 3463 722
L 3463 178
Q 3153 47 2828 -22
Q 2503 -91 2169 -91
Q 1331 -91 842 396
Q 353 884 353 1716
Q 353 2575 817 3079
Q 1281 3584 2069 3584
Q 2775 3584 3186 3129
Q 3597 2675 3597 1894
z
M 3022 2063
Q 3016 2534 2758 2815
Q 2500 3097 2075 3097
Q 1594 3097 1305 2825
Q 1016 2553 972 2059
L 3022 2063
z
" transform="scale(0.015625)"/>
      <path id="DejaVuSans-67" d="M 2906 1791
Q 2906 2416 2648 2759
Q 2391 3103 1925 3103
Q 1463 3103 1205 2759
Q 947 2416 947 1791
Q 947 1169 1205 825
Q 1463 481 1925 481
Q 2391 481 2648 825
Q 2906 1169 2906 1791
z
M 3481 434
Q 3481 -459 3084 -895
Q 2688 -1331 1869 -1331
Q 1566 -1331 1297 -1286
Q 1028 -1241 775 -1147
L 775 -588
Q 1028 -725 1275 -790
Q 1522 -856 1778 -856
Q 2344 -856 2625 -561
Q 2906 -266 2906 331
L 2906 616
Q 2728 306 2450 153
Q 2172 0 1784 0
Q 1141 0 747 490
Q 353 981 353 1791
Q 353 2603 747 3093
Q 1141 3584 1784 3584
Q 2172 3584 2450 3431
Q 2728 3278 2906 2969
L 2906 3500
L 3481 3500
L 3481 434
z
" transform="scale(0.015625)"/>
      <path id="DejaVuSans-79" d="M 2059 -325
Q 1816 -950 1584 -1140
Q 1353 -1331 966 -1331
L 506 -1331
L 506 -850
L 844 -850
Q 1081 -850 1212 -737
Q 1344 -625 1503 -206
L 1606 56
L 191 3500
L 800 3500
L 1894 763
L 2988 3500
L 3597 3500
L 2059 -325
z
" transform="scale(0.015625)"/>
      <path id="DejaVuSans-64" d="M 2906 2969
L 2906 4863
L 3481 4863
L 3481 0
L 2906 0
L 2906 525
Q 2725 213 2448 61
Q 2172 -91 1784 -91
Q 1150 -91 751 415
Q 353 922 353 1747
Q 353 2572 751 3078
Q 1150 3584 1784 3584
Q 2172 3584 2448 3432
Q 2725 3281 2906 2969
z
M 947 1747
Q 947 1113 1208 752
Q 1469 391 1925 391
Q 2381 391 2643 752
Q 2906 1113 2906 1747
Q 2906 2381 2643 2742
Q 2381 3103 1925 3103
Q 1469 3103 1208 2742
Q 947 2381 947 1747
z
" transform="scale(0.015625)"/>
      <path id="DejaVuSans-74" d="M 1172 4494
L 1172 3500
L 2356 3500
L 2356 3053
L 1172 3053
L 1172 1153
Q 1172 725 1289 603
Q 1406 481 1766 481
L 2356 481
L 2356 0
L 1766 0
Q 1100 0 847 248
Q 594 497 594 1153
L 594 3053
L 172 3053
L 172 3500
L 594 3500
L 594 4494
L 1172 4494
z
" transform="scale(0.015625)"/>
     </defs>
     <use xlink:href="#DejaVuSans-47"/>
     <use xlink:href="#DejaVuSans-61" x="77.490234"/>
     <use xlink:href="#DejaVuSans-75" x="138.769531"/>
     <use xlink:href="#DejaVuSans-73" x="202.148438"/>
     <use xlink:href="#DejaVuSans-73" x="254.248047"/>
     <use xlink:href="#DejaVuSans-69" x="306.347656"/>
     <use xlink:href="#DejaVuSans-61" x="334.130859"/>
     <use xlink:href="#DejaVuSans-6e" x="395.410156"/>
     <use xlink:href="#DejaVuSans-20" x="458.789062"/>
     <use xlink:href="#DejaVuSans-70" x="490.576172"/>
     <use xlink:href="#DejaVuSans-72" x="554.052734"/>
     <use xlink:href="#DejaVuSans-6f" x="592.916016"/>
     <use xlink:href="#DejaVuSans-63" x="654.097656"/>
     <use xlink:href="#DejaVuSans-65" x="709.078125"/>
     <use xlink:href="#DejaVuSans-73" x="770.601562"/>
     <use xlink:href="#DejaVuSans-73" x="822.701172"/>
     <use xlink:href="#DejaVuSans-20" x="874.800781"/>
     <use xlink:href="#DejaVuSans-72" x="906.587891"/>
     <use xlink:href="#DejaVuSans-65" x="945.451172"/>
     <use xlink:href="#DejaVuSans-67" x="1006.974609"/>
     <use xlink:href="#DejaVuSans-72" x="1070.451172"/>
     <use xlink:href="#DejaVuSans-65" x="1109.314453"/>
     <use xlink:href="#DejaVuSans-73" x="1170.837891"/>
     <use xlink:href="#DejaVuSans-73" x="1222.9375"/>
     <use xlink:href="#DejaVuSans-69" x="1275.037109"/>
     <use xlink:href="#DejaVuSans-6f" x="1302.820312"/>
     <use xlink:href="#DejaVuSans-6e" x="1364.001953"/>
     <use xlink:href="#DejaVuSans-20" x="1427.380859"/>
     <use xlink:href="#DejaVuSans-6f" x="1459.167969"/>
     <use xlink:href="#DejaVuSans-6e" x="1520.349609"/>
     <use xlink:href="#DejaVuSans-20" x="1583.728516"/>
     <use xlink:href="#DejaVuSans-61" x="1615.515625"/>
     <use xlink:href="#DejaVuSans-20" x="1676.794922"/>
     <use xlink:href="#DejaVuSans-6e" x="1708.582031"/>
     <use xlink:href="#DejaVuSans-6f" x="1771.960938"/>
     <use xlink:href="#DejaVuSans-69" x="1833.142578"/>
     <use xlink:href="#DejaVuSans-73" x="1860.925781"/>
     <use xlink:href="#DejaVuSans-79" x="1913.025391"/>
     <use xlink:href="#DejaVuSans-20" x="1972.205078"/>
     <use xlink:href="#DejaVuSans-64" x="2003.992188"/>
     <use xlink:href="#DejaVuSans-61" x="2067.46875"/>
     <use xlink:href="#DejaVuSans-74" x="2128.748047"/>
     <use xlink:href="#DejaVuSans-61" x="2167.957031"/>
     <use xlink:href="#DejaVuSans-73" x="2229.236328"/>
     <use xlink:href="#DejaVuSans-65" x="2281.335938"/>
     <use xlink:href="#DejaVuSans-74" x="2342.859375"/>
    </g>
   </g>
   <g id="legend_1">
    <g id="patch_7">
     <path d="M 64.62 92.1525
L 218.071563 92.1525
Q 220.071563 92.1525 220.071563 90.1525
L 220.071563 32.44
Q 220.071563 30.44 218.071563 30.44
L 64.62 30.44
Q 62.62 30.44 62.62 32.44
L 62.62 90.1525
Q 62.62 92.1525 64.62 92.1525
z
" style="fill: #ffffff; opacity: 0.8; stroke: #cccccc; stroke-linejoin: miter"/>
    </g>
    <g id="line2d_16">
     <path d="M 66.62 38.538437
L 76.62 38.538437
L 86.62 38.538437
" style="fill: none; stroke-dasharray: 1.5,2.475; stroke-dashoffset: 0; stroke: #1f77b4; stroke-width: 1.5"/>
    </g>
    <g id="text_17">
     <!-- $f(x) = x \cos(1.5x)$ -->
     <g transform="translate(94.62 42.038437) scale(0.1 -0.1)">
      <defs>
       <path id="DejaVuSans-3d" d="M 678 2906
L 4684 2906
L 4684 2381
L 678 2381
L 678 2906
z
M 678 1631
L 4684 1631
L 4684 1100
L 678 1100
L 678 1631
z
" transform="scale(0.015625)"/>
      </defs>
      <use xlink:href="#DejaVuSans-Oblique-66" transform="translate(0 0.015625)"/>
      <use xlink:href="#DejaVuSans-28" transform="translate(35.205078 0.015625)"/>
      <use xlink:href="#DejaVuSans-Oblique-78" transform="translate(74.21875 0.015625)"/>
      <use xlink:href="#DejaVuSans-29" transform="translate(133.398438 0.015625)"/>
      <use xlink:href="#DejaVuSans-3d" transform="translate(191.894531 0.015625)"/>
      <use xlink:href="#DejaVuSans-Oblique-78" transform="translate(295.166016 0.015625)"/>
      <use xlink:href="#DejaVuSans-63" transform="translate(354.345703 0.015625)"/>
      <use xlink:href="#DejaVuSans-6f" transform="translate(409.326172 0.015625)"/>
      <use xlink:href="#DejaVuSans-73" transform="translate(470.507812 0.015625)"/>
      <use xlink:href="#DejaVuSans-28" transform="translate(522.607422 0.015625)"/>
      <use xlink:href="#DejaVuSans-31" transform="translate(561.621094 0.015625)"/>
      <use xlink:href="#DejaVuSans-2e" transform="translate(625.244141 0.015625)"/>
      <use xlink:href="#DejaVuSans-35" transform="translate(657.03125 0.015625)"/>
      <use xlink:href="#DejaVuSans-Oblique-78" transform="translate(720.654297 0.015625)"/>
      <use xlink:href="#DejaVuSans-29" transform="translate(779.833984 0.015625)"/>
     </g>
    </g>
    <g id="PathCollection_2">
     <g>
      <use xlink:href="#m31bc73aa09" x="76.62" y="54.091563" style="fill: #1f77b4; stroke: #1f77b4"/>
     </g>
    </g>
    <g id="text_18">
     <!-- Observations -->
     <g transform="translate(94.62 56.716563) scale(0.1 -0.1)">
      <defs>
       <path id="DejaVuSans-4f" d="M 2522 4238
Q 1834 4238 1429 3725
Q 1025 3213 1025 2328
Q 1025 1447 1429 934
Q 1834 422 2522 422
Q 3209 422 3611 934
Q 4013 1447 4013 2328
Q 4013 3213 3611 3725
Q 3209 4238 2522 4238
z
M 2522 4750
Q 3503 4750 4090 4092
Q 4678 3434 4678 2328
Q 4678 1225 4090 567
Q 3503 -91 2522 -91
Q 1538 -91 948 565
Q 359 1222 359 2328
Q 359 3434 948 4092
Q 1538 4750 2522 4750
z
" transform="scale(0.015625)"/>
       <path id="DejaVuSans-62" d="M 3116 1747
Q 3116 2381 2855 2742
Q 2594 3103 2138 3103
Q 1681 3103 1420 2742
Q 1159 2381 1159 1747
Q 1159 1113 1420 752
Q 1681 391 2138 391
Q 2594 391 2855 752
Q 3116 1113 3116 1747
z
M 1159 2969
Q 1341 3281 1617 3432
Q 1894 3584 2278 3584
Q 2916 3584 3314 3078
Q 3713 2572 3713 1747
Q 3713 922 3314 415
Q 2916 -91 2278 -91
Q 1894 -91 1617 61
Q 1341 213 1159 525
L 1159 0
L 581 0
L 581 4863
L 1159 4863
L 1159 2969
z
" transform="scale(0.015625)"/>
       <path id="DejaVuSans-76" d="M 191 3500
L 800 3500
L 1894 563
L 2988 3500
L 3597 3500
L 2284 0
L 1503 0
L 191 3500
z
" transform="scale(0.015625)"/>
      </defs>
      <use xlink:href="#DejaVuSans-4f"/>
      <use xlink:href="#DejaVuSans-62" x="78.710938"/>
      <use xlink:href="#DejaVuSans-73" x="142.1875"/>
      <use xlink:href="#DejaVuSans-65" x="194.287109"/>
      <use xlink:href="#DejaVuSans-72" x="255.810547"/>
      <use xlink:href="#DejaVuSans-76" x="296.923828"/>
      <use xlink:href="#DejaVuSans-61" x="356.103516"/>
      <use xlink:href="#DejaVuSans-74" x="417.382812"/>
      <use xlink:href="#DejaVuSans-69" x="456.591797"/>
      <use xlink:href="#DejaVuSans-6f" x="484.375"/>
      <use xlink:href="#DejaVuSans-6e" x="545.556641"/>
      <use xlink:href="#DejaVuSans-73" x="608.935547"/>
     </g>
    </g>
    <g id="line2d_17">
     <path d="M 66.62 67.894687
L 76.62 67.894687
L 86.62 67.894687
" style="fill: none; stroke: #ff7f0e; stroke-width: 1.5; stroke-linecap: square"/>
    </g>
    <g id="text_19">
     <!-- Mean prediction -->
     <g transform="translate(94.62 71.394687) scale(0.1 -0.1)">
      <defs>
       <path id="DejaVuSans-4d" d="M 628 4666
L 1569 4666
L 2759 1491
L 3956 4666
L 4897 4666
L 4897 0
L 4281 0
L 4281 4097
L 3078 897
L 2444 897
L 1241 4097
L 1241 0
L 628 0
L 628 4666
z
" transform="scale(0.015625)"/>
      </defs>
      <use xlink:href="#DejaVuSans-4d"/>
      <use xlink:href="#DejaVuSans-65" x="86.279297"/>
      <use xlink:href="#DejaVuSans-61" x="147.802734"/>
      <use xlink:href="#DejaVuSans-6e" x="209.082031"/>
      <use xlink:href="#DejaVuSans-20" x="272.460938"/>
      <use xlink:href="#DejaVuSans-70" x="304.248047"/>
      <use xlink:href="#DejaVuSans-72" x="367.724609"/>
      <use xlink:href="#DejaVuSans-65" x="406.587891"/>
      <use xlink:href="#DejaVuSans-64" x="468.111328"/>
      <use xlink:href="#DejaVuSans-69" x="531.587891"/>
      <use xlink:href="#DejaVuSans-63" x="559.371094"/>
      <use xlink:href="#DejaVuSans-74" x="614.351562"/>
      <use xlink:href="#DejaVuSans-69" x="653.560547"/>
      <use xlink:href="#DejaVuSans-6f" x="681.34375"/>
      <use xlink:href="#DejaVuSans-6e" x="742.525391"/>
     </g>
    </g>
    <g id="patch_8">
     <path d="M 66.62 86.072812
L 86.62 86.072812
L 86.62 79.072812
L 66.62 79.072812
z
" style="fill: #ff7f0e; fill-opacity: 0.5"/>
    </g>
    <g id="text_20">
     <!-- 95% confidence interval -->
     <g transform="translate(94.62 86.072812) scale(0.1 -0.1)">
      <defs>
       <path id="DejaVuSans-39" d="M 703 97
L 703 672
Q 941 559 1184 500
Q 1428 441 1663 441
Q 2288 441 2617 861
Q 2947 1281 2994 2138
Q 2813 1869 2534 1725
Q 2256 1581 1919 1581
Q 1219 1581 811 2004
Q 403 2428 403 3163
Q 403 3881 828 4315
Q 1253 4750 1959 4750
Q 2769 4750 3195 4129
Q 3622 3509 3622 2328
Q 3622 1225 3098 567
Q 2575 -91 1691 -91
Q 1453 -91 1209 -44
Q 966 3 703 97
z
M 1959 2075
Q 2384 2075 2632 2365
Q 2881 2656 2881 3163
Q 2881 3666 2632 3958
Q 2384 4250 1959 4250
Q 1534 4250 1286 3958
Q 1038 3666 1038 3163
Q 1038 2656 1286 2365
Q 1534 2075 1959 2075
z
" transform="scale(0.015625)"/>
       <path id="DejaVuSans-25" d="M 4653 2053
Q 4381 2053 4226 1822
Q 4072 1591 4072 1178
Q 4072 772 4226 539
Q 4381 306 4653 306
Q 4919 306 5073 539
Q 5228 772 5228 1178
Q 5228 1588 5073 1820
Q 4919 2053 4653 2053
z
M 4653 2450
Q 5147 2450 5437 2106
Q 5728 1763 5728 1178
Q 5728 594 5436 251
Q 5144 -91 4653 -91
Q 4153 -91 3862 251
Q 3572 594 3572 1178
Q 3572 1766 3864 2108
Q 4156 2450 4653 2450
z
M 1428 4353
Q 1159 4353 1004 4120
Q 850 3888 850 3481
Q 850 3069 1003 2837
Q 1156 2606 1428 2606
Q 1700 2606 1854 2837
Q 2009 3069 2009 3481
Q 2009 3884 1853 4118
Q 1697 4353 1428 4353
z
M 4250 4750
L 4750 4750
L 1831 -91
L 1331 -91
L 4250 4750
z
M 1428 4750
Q 1922 4750 2215 4408
Q 2509 4066 2509 3481
Q 2509 2891 2217 2550
Q 1925 2209 1428 2209
Q 931 2209 642 2551
Q 353 2894 353 3481
Q 353 4063 643 4406
Q 934 4750 1428 4750
z
" transform="scale(0.015625)"/>
       <path id="DejaVuSans-66" d="M 2375 4863
L 2375 4384
L 1825 4384
Q 1516 4384 1395 4259
Q 1275 4134 1275 3809
L 1275 3500
L 2222 3500
L 2222 3053
L 1275 3053
L 1275 0
L 697 0
L 697 3053
L 147 3053
L 147 3500
L 697 3500
L 697 3744
Q 697 4328 969 4595
Q 1241 4863 1831 4863
L 2375 4863
z
" transform="scale(0.015625)"/>
       <path id="DejaVuSans-6c" d="M 603 4863
L 1178 4863
L 1178 0
L 603 0
L 603 4863
z
" transform="scale(0.015625)"/>
      </defs>
      <use xlink:href="#DejaVuSans-39"/>
      <use xlink:href="#DejaVuSans-35" x="63.623047"/>
      <use xlink:href="#DejaVuSans-25" x="127.246094"/>
      <use xlink:href="#DejaVuSans-20" x="222.265625"/>
      <use xlink:href="#DejaVuSans-63" x="254.052734"/>
      <use xlink:href="#DejaVuSans-6f" x="309.033203"/>
      <use xlink:href="#DejaVuSans-6e" x="370.214844"/>
      <use xlink:href="#DejaVuSans-66" x="433.59375"/>
      <use xlink:href="#DejaVuSans-69" x="468.798828"/>
      <use xlink:href="#DejaVuSans-64" x="496.582031"/>
      <use xlink:href="#DejaVuSans-65" x="560.058594"/>
      <use xlink:href="#DejaVuSans-6e" x="621.582031"/>
      <use xlink:href="#DejaVuSans-63" x="684.960938"/>
      <use xlink:href="#DejaVuSans-65" x="739.941406"/>
      <use xlink:href="#DejaVuSans-20" x="801.464844"/>
      <use xlink:href="#DejaVuSans-69" x="833.251953"/>
      <use xlink:href="#DejaVuSans-6e" x="861.035156"/>
      <use xlink:href="#DejaVuSans-74" x="924.414062"/>
      <use xlink:href="#DejaVuSans-65" x="963.623047"/>
      <use xlink:href="#DejaVuSans-72" x="1025.146484"/>
      <use xlink:href="#DejaVuSans-76" x="1066.259766"/>
      <use xlink:href="#DejaVuSans-61" x="1125.439453"/>
      <use xlink:href="#DejaVuSans-6c" x="1186.71875"/>
     </g>
    </g>
   </g>
  </g>
 </g>
 <defs>
  <clipPath id="pa6d25cb3f1">
   <rect x="57.62" y="25.44" width="1011.58" height="292.6"/>
  </clipPath>
 </defs>
</svg>
